<ttFont>
    <TTGlyph name="A" xMin="25" yMin="0" xMax="616" yMax="750">
      <contour>
        <pt x="409" y="330" on="1"/>
        <pt x="320" y="682" on="1"/>
        <pt x="231" y="330" on="1"/>
      </contour>
      <contour>
        <pt x="616" y="68" on="1"/>
        <pt x="616" y="0" on="1"/>
        <pt x="421" y="0" on="1"/>
        <pt x="421" y="68" on="1"/>
        <pt x="475" y="68" on="1"/>
        <pt x="425" y="267" on="1"/>
        <pt x="215" y="267" on="1"/>
        <pt x="165" y="68" on="1"/>
        <pt x="220" y="68" on="1"/>
        <pt x="220" y="0" on="1"/>
        <pt x="25" y="0" on="1"/>
        <pt x="25" y="68" on="1"/>
        <pt x="88" y="68" on="1"/>
        <pt x="262" y="750" on="1"/>
        <pt x="380" y="750" on="1"/>
        <pt x="551" y="68" on="1"/>
      </contour>
    </TTGlyph>
    <TTGlyph name="AE" xMin="44" yMin="0" xMax="779" yMax="750">
      <contour>
        <pt x="711" y="68" on="1"/>
        <pt x="711" y="185" on="1"/>
        <pt x="779" y="185" on="1"/>
        <pt x="779" y="0" on="1"/>
        <pt x="387" y="0" on="1"/>
        <pt x="387" y="70" on="1"/>
        <pt x="450" y="70" on="1"/>
        <pt x="450" y="353" on="1"/>
        <pt x="278" y="353" on="1"/>
        <pt x="178" y="68" on="1"/>
        <pt x="238" y="68" on="1"/>
        <pt x="238" y="0" on="1"/>
        <pt x="44" y="0" on="1"/>
        <pt x="44" y="68" on="1"/>
        <pt x="102" y="68" on="1"/>
        <pt x="320" y="682" on="1"/>
        <pt x="241" y="682" on="1"/>
        <pt x="241" y="750" on="1"/>
        <pt x="779" y="750" on="1"/>
        <pt x="779" y="565" on="1"/>
        <pt x="711" y="565" on="1"/>
        <pt x="711" y="682" on="1"/>
        <pt x="532" y="682" on="1"/>
        <pt x="532" y="420" on="1"/>
        <pt x="700" y="420" on="1"/>
        <pt x="700" y="353" on="1"/>
        <pt x="532" y="353" on="1"/>
        <pt x="532" y="69" on="1"/>
      </contour>
      <contour>
        <pt x="302" y="420" on="1"/>
        <pt x="450" y="420" on="1"/>
        <pt x="450" y="682" on="1"/>
        <pt x="395" y="682" on="1"/>
      </contour>
    </TTGlyph>
    <TTGlyph name="AEacute" xMin="44" yMin="0" xMax="779" yMax="932">
      <contour>
        <pt x="532" y="69" on="1"/>
        <pt x="532" y="353" on="1"/>
        <pt x="700" y="353" on="1"/>
        <pt x="700" y="420" on="1"/>
        <pt x="532" y="420" on="1"/>
        <pt x="532" y="682" on="1"/>
        <pt x="711" y="682" on="1"/>
        <pt x="711" y="565" on="1"/>
        <pt x="779" y="565" on="1"/>
        <pt x="779" y="750" on="1"/>
        <pt x="241" y="750" on="1"/>
        <pt x="241" y="682" on="1"/>
        <pt x="320" y="682" on="1"/>
        <pt x="102" y="68" on="1"/>
        <pt x="44" y="68" on="1"/>
        <pt x="44" y="0" on="1"/>
        <pt x="238" y="0" on="1"/>
        <pt x="238" y="68" on="1"/>
        <pt x="178" y="68" on="1"/>
        <pt x="278" y="353" on="1"/>
        <pt x="450" y="353" on="1"/>
        <pt x="450" y="70" on="1"/>
        <pt x="387" y="70" on="1"/>
        <pt x="387" y="0" on="1"/>
        <pt x="779" y="0" on="1"/>
        <pt x="779" y="185" on="1"/>
        <pt x="711" y="185" on="1"/>
        <pt x="711" y="68" on="1"/>
      </contour>
      <contour>
        <pt x="395" y="682" on="1"/>
        <pt x="450" y="682" on="1"/>
        <pt x="450" y="420" on="1"/>
        <pt x="302" y="420" on="1"/>
      </contour>
      <contour>
        <pt x="446" y="932" on="1"/>
        <pt x="517" y="932" on="1"/>
        <pt x="412" y="809" on="1"/>
        <pt x="339" y="809" on="1"/>
      </contour>
    </TTGlyph>
    <TTGlyph name="Aacute" xMin="25" yMin="0" xMax="616" yMax="932">
      <contour>
        <pt x="231" y="330" on="1"/>
        <pt x="320" y="682" on="1"/>
        <pt x="409" y="330" on="1"/>
      </contour>
      <contour>
        <pt x="551" y="68" on="1"/>
        <pt x="380" y="750" on="1"/>
        <pt x="262" y="750" on="1"/>
        <pt x="88" y="68" on="1"/>
        <pt x="25" y="68" on="1"/>
        <pt x="25" y="0" on="1"/>
        <pt x="220" y="0" on="1"/>
        <pt x="220" y="68" on="1"/>
        <pt x="165" y="68" on="1"/>
        <pt x="215" y="267" on="1"/>
        <pt x="425" y="267" on="1"/>
        <pt x="475" y="68" on="1"/>
        <pt x="421" y="68" on="1"/>
        <pt x="421" y="0" on="1"/>
        <pt x="616" y="0" on="1"/>
        <pt x="616" y="68" on="1"/>
      </contour>
      <contour>
        <pt x="338" y="932" on="1"/>
        <pt x="409" y="932" on="1"/>
        <pt x="304" y="809" on="1"/>
        <pt x="231" y="809" on="1"/>
      </contour>
    </TTGlyph>
    <TTGlyph name="Abreve" xMin="25" yMin="0" xMax="616" yMax="947">
      <contour>
        <pt x="616" y="68" on="1"/>
        <pt x="616" y="0" on="1"/>
        <pt x="421" y="0" on="1"/>
        <pt x="421" y="68" on="1"/>
        <pt x="475" y="68" on="1"/>
        <pt x="425" y="267" on="1"/>
        <pt x="215" y="267" on="1"/>
        <pt x="165" y="68" on="1"/>
        <pt x="220" y="68" on="1"/>
        <pt x="220" y="0" on="1"/>
        <pt x="25" y="0" on="1"/>
        <pt x="25" y="68" on="1"/>
        <pt x="88" y="68" on="1"/>
        <pt x="262" y="750" on="1"/>
        <pt x="380" y="750" on="1"/>
        <pt x="551" y="68" on="1"/>
      </contour>
      <contour>
        <pt x="409" y="330" on="1"/>
        <pt x="320" y="682" on="1"/>
        <pt x="231" y="330" on="1"/>
      </contour>
      <contour>
        <pt x="474" y="947" on="1"/>
        <pt x="474" y="882" on="0"/>
        <pt x="429" y="838" on="1"/>
        <pt x="383" y="794" on="0"/>
        <pt x="321" y="794" on="1"/>
        <pt x="257" y="794" on="0"/>
        <pt x="167" y="884" on="0"/>
        <pt x="167" y="947" on="1"/>
        <pt x="220" y="947" on="1"/>
        <pt x="220" y="907" on="0"/>
        <pt x="279" y="848" on="0"/>
        <pt x="321" y="848" on="1"/>
        <pt x="362" y="848" on="0"/>
        <pt x="421" y="907" on="0"/>
        <pt x="421" y="947" on="1"/>
      </contour>
    </TTGlyph>
    <TTGlyph name="Acircumflex" xMin="25" yMin="0" xMax="616" yMax="932">
      <contour>
        <pt x="409" y="330" on="1"/>
        <pt x="320" y="682" on="1"/>
        <pt x="231" y="330" on="1"/>
      </contour>
      <contour>
        <pt x="616" y="68" on="1"/>
        <pt x="616" y="0" on="1"/>
        <pt x="421" y="0" on="1"/>
        <pt x="421" y="68" on="1"/>
        <pt x="475" y="68" on="1"/>
        <pt x="425" y="267" on="1"/>
        <pt x="215" y="267" on="1"/>
        <pt x="165" y="68" on="1"/>
        <pt x="220" y="68" on="1"/>
        <pt x="220" y="0" on="1"/>
        <pt x="25" y="0" on="1"/>
        <pt x="25" y="68" on="1"/>
        <pt x="88" y="68" on="1"/>
        <pt x="262" y="750" on="1"/>
        <pt x="380" y="750" on="1"/>
        <pt x="551" y="68" on="1"/>
      </contour>
      <contour>
        <pt x="463" y="809" on="1"/>
        <pt x="390" y="809" on="1"/>
        <pt x="321" y="889" on="1"/>
        <pt x="251" y="809" on="1"/>
        <pt x="177" y="809" on="1"/>
        <pt x="289" y="932" on="1"/>
        <pt x="356" y="932" on="1"/>
      </contour>
    </TTGlyph>
    <TTGlyph name="Adieresis" xMin="25" yMin="0" xMax="616" yMax="896">
      <contour>
        <pt x="409" y="330" on="1"/>
        <pt x="320" y="682" on="1"/>
        <pt x="231" y="330" on="1"/>
      </contour>
      <contour>
        <pt x="616" y="68" on="1"/>
        <pt x="616" y="0" on="1"/>
        <pt x="421" y="0" on="1"/>
        <pt x="421" y="68" on="1"/>
        <pt x="475" y="68" on="1"/>
        <pt x="425" y="267" on="1"/>
        <pt x="215" y="267" on="1"/>
        <pt x="165" y="68" on="1"/>
        <pt x="220" y="68" on="1"/>
        <pt x="220" y="0" on="1"/>
        <pt x="25" y="0" on="1"/>
        <pt x="25" y="68" on="1"/>
        <pt x="88" y="68" on="1"/>
        <pt x="262" y="750" on="1"/>
        <pt x="380" y="750" on="1"/>
        <pt x="551" y="68" on="1"/>
      </contour>
      <contour>
        <pt x="264" y="896" on="0"/>
        <pt x="289" y="869" on="0"/>
        <pt x="289" y="833" on="0"/>
        <pt x="264" y="808" on="0"/>
        <pt x="228" y="808" on="0"/>
        <pt x="203" y="833" on="0"/>
        <pt x="203" y="869" on="0"/>
        <pt x="229" y="896" on="0"/>
      </contour>
      <contour>
        <pt x="412" y="896" on="0"/>
        <pt x="437" y="869" on="0"/>
        <pt x="437" y="833" on="0"/>
        <pt x="412" y="808" on="0"/>
        <pt x="376" y="808" on="0"/>
        <pt x="351" y="833" on="0"/>
        <pt x="351" y="869" on="0"/>
        <pt x="377" y="896" on="0"/>
      </contour>
    </TTGlyph>
    <TTGlyph name="Agrave" xMin="25" yMin="0" xMax="616" yMax="932">
      <contour>
        <pt x="409" y="330" on="1"/>
        <pt x="320" y="682" on="1"/>
        <pt x="231" y="330" on="1"/>
      </contour>
      <contour>
        <pt x="616" y="68" on="1"/>
        <pt x="616" y="0" on="1"/>
        <pt x="421" y="0" on="1"/>
        <pt x="421" y="68" on="1"/>
        <pt x="475" y="68" on="1"/>
        <pt x="425" y="267" on="1"/>
        <pt x="215" y="267" on="1"/>
        <pt x="165" y="68" on="1"/>
        <pt x="220" y="68" on="1"/>
        <pt x="220" y="0" on="1"/>
        <pt x="25" y="0" on="1"/>
        <pt x="25" y="68" on="1"/>
        <pt x="88" y="68" on="1"/>
        <pt x="262" y="750" on="1"/>
        <pt x="380" y="750" on="1"/>
        <pt x="551" y="68" on="1"/>
      </contour>
      <contour>
        <pt x="409" y="809" on="1"/>
        <pt x="336" y="809" on="1"/>
        <pt x="231" y="932" on="1"/>
        <pt x="302" y="932" on="1"/>
      </contour>
    </TTGlyph>
    <TTGlyph name="Amacron" xMin="25" yMin="0" xMax="616" yMax="888">
      <contour>
        <pt x="409" y="330" on="1"/>
        <pt x="320" y="682" on="1"/>
        <pt x="231" y="330" on="1"/>
      </contour>
      <contour>
        <pt x="616" y="68" on="1"/>
        <pt x="616" y="0" on="1"/>
        <pt x="421" y="0" on="1"/>
        <pt x="421" y="68" on="1"/>
        <pt x="475" y="68" on="1"/>
        <pt x="425" y="267" on="1"/>
        <pt x="215" y="267" on="1"/>
        <pt x="165" y="68" on="1"/>
        <pt x="220" y="68" on="1"/>
        <pt x="220" y="0" on="1"/>
        <pt x="25" y="0" on="1"/>
        <pt x="25" y="68" on="1"/>
        <pt x="88" y="68" on="1"/>
        <pt x="262" y="750" on="1"/>
        <pt x="380" y="750" on="1"/>
        <pt x="551" y="68" on="1"/>
      </contour>
      <contour>
        <pt x="193" y="888" on="1"/>
        <pt x="448" y="888" on="1"/>
        <pt x="448" y="825" on="1"/>
        <pt x="193" y="825" on="1"/>
      </contour>
    </TTGlyph>
    <TTGlyph name="Aogonek" xMin="25" yMin="-217" xMax="616" yMax="750">
      <contour>
        <pt x="409" y="330" on="1"/>
        <pt x="320" y="682" on="1"/>
        <pt x="231" y="330" on="1"/>
      </contour>
      <contour>
        <pt x="616" y="68" on="1"/>
        <pt x="616" y="0" on="1"/>
        <pt x="421" y="0" on="1"/>
        <pt x="421" y="68" on="1"/>
        <pt x="475" y="68" on="1"/>
        <pt x="425" y="267" on="1"/>
        <pt x="215" y="267" on="1"/>
        <pt x="165" y="68" on="1"/>
        <pt x="220" y="68" on="1"/>
        <pt x="220" y="0" on="1"/>
        <pt x="25" y="0" on="1"/>
        <pt x="25" y="68" on="1"/>
        <pt x="88" y="68" on="1"/>
        <pt x="262" y="750" on="1"/>
        <pt x="380" y="750" on="1"/>
        <pt x="551" y="68" on="1"/>
      </contour>
      <contour>
        <pt x="616" y="0" on="1"/>
        <pt x="508" y="-89" on="1"/>
        <pt x="508" y="-164" on="1"/>
        <pt x="596" y="-164" on="1"/>
        <pt x="596" y="-217" on="1"/>
        <pt x="514" y="-217" on="1"/>
        <pt x="472" y="-217" on="0"/>
        <pt x="446" y="-177" on="0"/>
        <pt x="446" y="-149" on="1"/>
        <pt x="446" y="-118" on="1"/>
        <pt x="446" y="-89" on="0"/>
        <pt x="464" y="-62" on="0"/>
        <pt x="485" y="-45" on="0"/>
        <pt x="500" y="-34" on="1"/>
        <pt x="544" y="0" on="1"/>
      </contour>
    </TTGlyph>
    <TTGlyph name="Aring" xMin="25" yMin="0" xMax="616" yMax="962">
      <contour>
        <pt x="409" y="330" on="1"/>
        <pt x="320" y="682" on="1"/>
        <pt x="231" y="330" on="1"/>
      </contour>
      <contour>
        <pt x="616" y="68" on="1"/>
        <pt x="616" y="0" on="1"/>
        <pt x="421" y="0" on="1"/>
        <pt x="421" y="68" on="1"/>
        <pt x="475" y="68" on="1"/>
        <pt x="425" y="267" on="1"/>
        <pt x="215" y="267" on="1"/>
        <pt x="165" y="68" on="1"/>
        <pt x="220" y="68" on="1"/>
        <pt x="220" y="0" on="1"/>
        <pt x="25" y="0" on="1"/>
        <pt x="25" y="68" on="1"/>
        <pt x="88" y="68" on="1"/>
        <pt x="262" y="750" on="1"/>
        <pt x="380" y="750" on="1"/>
        <pt x="551" y="68" on="1"/>
      </contour>
      <contour>
        <pt x="231" y="910" on="0"/>
        <pt x="283" y="962" on="0"/>
        <pt x="321" y="962" on="1"/>
        <pt x="357" y="962" on="0"/>
        <pt x="409" y="910" on="0"/>
        <pt x="409" y="836" on="0"/>
        <pt x="357" y="784" on="0"/>
        <pt x="320" y="784" on="1"/>
        <pt x="282" y="784" on="0"/>
        <pt x="257" y="810" on="1"/>
        <pt x="231" y="838" on="0"/>
      </contour>
      <contour>
        <pt x="280" y="874" on="1"/>
        <pt x="280" y="857" on="0"/>
        <pt x="303" y="833" on="0"/>
        <pt x="320" y="833" on="1"/>
        <pt x="337" y="833" on="0"/>
        <pt x="361" y="857" on="0"/>
        <pt x="361" y="890" on="0"/>
        <pt x="337" y="914" on="0"/>
        <pt x="304" y="914" on="0"/>
        <pt x="280" y="891" on="0"/>
      </contour>
    </TTGlyph>
    <TTGlyph name="Atilde" xMin="25" yMin="0" xMax="616" yMax="922">
      <contour>
        <pt x="409" y="330" on="1"/>
        <pt x="320" y="682" on="1"/>
        <pt x="231" y="330" on="1"/>
      </contour>
      <contour>
        <pt x="616" y="68" on="1"/>
        <pt x="616" y="0" on="1"/>
        <pt x="421" y="0" on="1"/>
        <pt x="421" y="68" on="1"/>
        <pt x="475" y="68" on="1"/>
        <pt x="425" y="267" on="1"/>
        <pt x="215" y="267" on="1"/>
        <pt x="165" y="68" on="1"/>
        <pt x="220" y="68" on="1"/>
        <pt x="220" y="0" on="1"/>
        <pt x="25" y="0" on="1"/>
        <pt x="25" y="68" on="1"/>
        <pt x="88" y="68" on="1"/>
        <pt x="262" y="750" on="1"/>
        <pt x="380" y="750" on="1"/>
        <pt x="551" y="68" on="1"/>
      </contour>
      <contour>
        <pt x="485" y="888" on="1"/>
        <pt x="477" y="865" on="0"/>
        <pt x="457" y="846" on="1"/>
        <pt x="417" y="811" on="0"/>
        <pt x="385" y="811" on="1"/>
        <pt x="361" y="811" on="0"/>
        <pt x="298" y="848" on="0"/>
        <pt x="265" y="865" on="0"/>
        <pt x="232" y="865" on="0"/>
        <pt x="210" y="845" on="0"/>
        <pt x="196" y="816" on="1"/>
        <pt x="155" y="846" on="1"/>
        <pt x="162" y="868" on="0"/>
        <pt x="182" y="886" on="1"/>
        <pt x="219" y="922" on="0"/>
        <pt x="267" y="922" on="0"/>
        <pt x="308" y="905" on="0"/>
        <pt x="345" y="884" on="0"/>
        <pt x="375" y="867" on="0"/>
        <pt x="404" y="867" on="0"/>
        <pt x="439" y="897" on="0"/>
        <pt x="447" y="916" on="1"/>
      </contour>
    </TTGlyph>
    <TTGlyph name="B" xMin="60" yMin="0" xMax="497" yMax="750">
      <contour>
        <pt x="372" y="476" on="1"/>
        <pt x="393" y="492" on="0"/>
        <pt x="454" y="492" on="0"/>
        <pt x="497" y="450" on="0"/>
        <pt x="497" y="406" on="1"/>
        <pt x="497" y="88" on="1"/>
        <pt x="497" y="46" on="0"/>
        <pt x="484" y="30" on="1"/>
        <pt x="458" y="0" on="0"/>
        <pt x="408" y="0" on="1"/>
        <pt x="60" y="0" on="1"/>
        <pt x="60" y="68" on="1"/>
        <pt x="123" y="68" on="1"/>
        <pt x="123" y="683" on="1"/>
        <pt x="61" y="683" on="1"/>
        <pt x="61" y="750" on="1"/>
        <pt x="270" y="750" on="1"/>
        <pt x="372" y="750" on="0"/>
        <pt x="372" y="661" on="1"/>
      </contour>
      <contour>
        <pt x="291" y="425" on="1"/>
        <pt x="291" y="683" on="1"/>
        <pt x="205" y="683" on="1"/>
        <pt x="205" y="371" on="1"/>
      </contour>
      <contour>
        <pt x="417" y="424" on="1"/>
        <pt x="205" y="291" on="1"/>
        <pt x="205" y="69" on="1"/>
        <pt x="417" y="69" on="1"/>
      </contour>
    </TTGlyph>
    <TTGlyph name="C" xMin="60" yMin="0" xMax="475" yMax="750">
      <contour>
        <pt x="407" y="185" on="1"/>
        <pt x="475" y="185" on="1"/>
        <pt x="475" y="0" on="1"/>
        <pt x="168" y="0" on="1"/>
        <pt x="84" y="0" on="0"/>
        <pt x="66" y="66" on="1"/>
        <pt x="60" y="85" on="0"/>
        <pt x="60" y="107" on="1"/>
        <pt x="60" y="642" on="1"/>
        <pt x="60" y="715" on="0"/>
        <pt x="111" y="740" on="1"/>
        <pt x="130" y="750" on="0"/>
        <pt x="158" y="750" on="1"/>
        <pt x="475" y="750" on="1"/>
        <pt x="475" y="565" on="1"/>
        <pt x="407" y="565" on="1"/>
        <pt x="407" y="682" on="1"/>
        <pt x="142" y="682" on="1"/>
        <pt x="142" y="68" on="1"/>
        <pt x="407" y="68" on="1"/>
      </contour>
    </TTGlyph>
    <TTGlyph name="Cacute" xMin="60" yMin="0" xMax="475" yMax="932">
      <contour>
        <pt x="407" y="68" on="1"/>
        <pt x="142" y="68" on="1"/>
        <pt x="142" y="682" on="1"/>
        <pt x="407" y="682" on="1"/>
        <pt x="407" y="565" on="1"/>
        <pt x="475" y="565" on="1"/>
        <pt x="475" y="750" on="1"/>
        <pt x="158" y="750" on="1"/>
        <pt x="83" y="750" on="0"/>
        <pt x="65" y="680" on="1"/>
        <pt x="60" y="661" on="0"/>
        <pt x="60" y="642" on="1"/>
        <pt x="60" y="107" on="1"/>
        <pt x="60" y="32" on="0"/>
        <pt x="117" y="8" on="1"/>
        <pt x="138" y="0" on="0"/>
        <pt x="168" y="0" on="1"/>
        <pt x="475" y="0" on="1"/>
        <pt x="475" y="185" on="1"/>
        <pt x="407" y="185" on="1"/>
      </contour>
      <contour>
        <pt x="280" y="932" on="1"/>
        <pt x="351" y="932" on="1"/>
        <pt x="246" y="809" on="1"/>
        <pt x="173" y="809" on="1"/>
      </contour>
    </TTGlyph>
    <TTGlyph name="Ccaron" xMin="60" yMin="0" xMax="475" yMax="932">
      <contour>
        <pt x="407" y="185" on="1"/>
        <pt x="475" y="185" on="1"/>
        <pt x="475" y="0" on="1"/>
        <pt x="168" y="0" on="1"/>
        <pt x="84" y="0" on="0"/>
        <pt x="66" y="66" on="1"/>
        <pt x="60" y="85" on="0"/>
        <pt x="60" y="107" on="1"/>
        <pt x="60" y="642" on="1"/>
        <pt x="60" y="715" on="0"/>
        <pt x="111" y="740" on="1"/>
        <pt x="130" y="750" on="0"/>
        <pt x="158" y="750" on="1"/>
        <pt x="475" y="750" on="1"/>
        <pt x="475" y="565" on="1"/>
        <pt x="407" y="565" on="1"/>
        <pt x="407" y="682" on="1"/>
        <pt x="142" y="682" on="1"/>
        <pt x="142" y="68" on="1"/>
        <pt x="407" y="68" on="1"/>
      </contour>
      <contour>
        <pt x="298" y="809" on="1"/>
        <pt x="231" y="809" on="1"/>
        <pt x="119" y="932" on="1"/>
        <pt x="193" y="932" on="1"/>
        <pt x="263" y="852" on="1"/>
        <pt x="332" y="932" on="1"/>
        <pt x="405" y="932" on="1"/>
      </contour>
    </TTGlyph>
    <TTGlyph name="Ccedilla" xMin="60" yMin="-217" xMax="475" yMax="750">
      <contour>
        <pt x="177" y="0" on="1"/>
        <pt x="168" y="0" on="1"/>
        <pt x="84" y="0" on="0"/>
        <pt x="66" y="66" on="1"/>
        <pt x="60" y="85" on="0"/>
        <pt x="60" y="107" on="1"/>
        <pt x="60" y="642" on="1"/>
        <pt x="60" y="715" on="0"/>
        <pt x="111" y="740" on="1"/>
        <pt x="130" y="750" on="0"/>
        <pt x="158" y="750" on="1"/>
        <pt x="475" y="750" on="1"/>
        <pt x="475" y="565" on="1"/>
        <pt x="407" y="565" on="1"/>
        <pt x="407" y="682" on="1"/>
        <pt x="142" y="682" on="1"/>
        <pt x="142" y="68" on="1"/>
        <pt x="407" y="68" on="1"/>
        <pt x="407" y="185" on="1"/>
        <pt x="475" y="185" on="1"/>
        <pt x="475" y="0" on="1"/>
        <pt x="236" y="0" on="1"/>
        <pt x="236" y="-42" on="1"/>
        <pt x="273" y="-42" on="1"/>
        <pt x="311" y="-42" on="0"/>
        <pt x="347" y="-80" on="0"/>
        <pt x="347" y="-112" on="1"/>
        <pt x="347" y="-149" on="1"/>
        <pt x="347" y="-177" on="0"/>
        <pt x="321" y="-217" on="0"/>
        <pt x="279" y="-217" on="1"/>
        <pt x="177" y="-217" on="1"/>
        <pt x="177" y="-164" on="1"/>
        <pt x="285" y="-164" on="1"/>
        <pt x="285" y="-97" on="1"/>
        <pt x="177" y="-97" on="1"/>
      </contour>
    </TTGlyph>
    <TTGlyph name="Ccircumflex" xMin="60" yMin="0" xMax="475" yMax="932">
      <contour>
        <pt x="407" y="185" on="1"/>
        <pt x="475" y="185" on="1"/>
        <pt x="475" y="0" on="1"/>
        <pt x="168" y="0" on="1"/>
        <pt x="84" y="0" on="0"/>
        <pt x="66" y="66" on="1"/>
        <pt x="60" y="85" on="0"/>
        <pt x="60" y="107" on="1"/>
        <pt x="60" y="642" on="1"/>
        <pt x="60" y="715" on="0"/>
        <pt x="111" y="740" on="1"/>
        <pt x="130" y="750" on="0"/>
        <pt x="158" y="750" on="1"/>
        <pt x="475" y="750" on="1"/>
        <pt x="475" y="565" on="1"/>
        <pt x="407" y="565" on="1"/>
        <pt x="407" y="682" on="1"/>
        <pt x="142" y="682" on="1"/>
        <pt x="142" y="68" on="1"/>
        <pt x="407" y="68" on="1"/>
      </contour>
      <contour>
        <pt x="405" y="809" on="1"/>
        <pt x="332" y="809" on="1"/>
        <pt x="263" y="889" on="1"/>
        <pt x="193" y="809" on="1"/>
        <pt x="119" y="809" on="1"/>
        <pt x="231" y="932" on="1"/>
        <pt x="298" y="932" on="1"/>
      </contour>
    </TTGlyph>
    <TTGlyph name="Cdotaccent" xMin="60" yMin="0" xMax="475" yMax="918">
      <contour>
        <pt x="407" y="185" on="1"/>
        <pt x="475" y="185" on="1"/>
        <pt x="475" y="0" on="1"/>
        <pt x="168" y="0" on="1"/>
        <pt x="84" y="0" on="0"/>
        <pt x="66" y="66" on="1"/>
        <pt x="60" y="85" on="0"/>
        <pt x="60" y="107" on="1"/>
        <pt x="60" y="642" on="1"/>
        <pt x="60" y="715" on="0"/>
        <pt x="111" y="740" on="1"/>
        <pt x="130" y="750" on="0"/>
        <pt x="158" y="750" on="1"/>
        <pt x="475" y="750" on="1"/>
        <pt x="475" y="565" on="1"/>
        <pt x="407" y="565" on="1"/>
        <pt x="407" y="682" on="1"/>
        <pt x="142" y="682" on="1"/>
        <pt x="142" y="68" on="1"/>
        <pt x="407" y="68" on="1"/>
      </contour>
      <contour>
        <pt x="280" y="918" on="0"/>
        <pt x="305" y="891" on="0"/>
        <pt x="305" y="855" on="0"/>
        <pt x="280" y="830" on="0"/>
        <pt x="244" y="830" on="0"/>
        <pt x="219" y="855" on="0"/>
        <pt x="219" y="891" on="0"/>
        <pt x="245" y="918" on="0"/>
      </contour>
    </TTGlyph>
    <TTGlyph name="D" xMin="60" yMin="0" xMax="544" yMax="750">
      <contour>
        <pt x="413" y="750" on="1"/>
        <pt x="487" y="750" on="0"/>
        <pt x="544" y="685" on="0"/>
        <pt x="544" y="619" on="1"/>
        <pt x="544" y="131" on="1"/>
        <pt x="544" y="62" on="0"/>
        <pt x="480" y="0" on="0"/>
        <pt x="413" y="0" on="1"/>
        <pt x="60" y="0" on="1"/>
        <pt x="60" y="68" on="1"/>
        <pt x="123" y="68" on="1"/>
        <pt x="123" y="682" on="1"/>
        <pt x="60" y="682" on="1"/>
        <pt x="60" y="750" on="1"/>
      </contour>
      <contour>
        <pt x="462" y="682" on="1"/>
        <pt x="205" y="682" on="1"/>
        <pt x="205" y="68" on="1"/>
        <pt x="462" y="68" on="1"/>
      </contour>
    </TTGlyph>
    <TTGlyph name="Dcaron" xMin="60" yMin="0" xMax="544" yMax="932">
      <contour>
        <pt x="413" y="750" on="1"/>
        <pt x="487" y="750" on="0"/>
        <pt x="544" y="685" on="0"/>
        <pt x="544" y="619" on="1"/>
        <pt x="544" y="131" on="1"/>
        <pt x="544" y="62" on="0"/>
        <pt x="480" y="0" on="0"/>
        <pt x="413" y="0" on="1"/>
        <pt x="60" y="0" on="1"/>
        <pt x="60" y="68" on="1"/>
        <pt x="123" y="68" on="1"/>
        <pt x="123" y="682" on="1"/>
        <pt x="60" y="682" on="1"/>
        <pt x="60" y="750" on="1"/>
      </contour>
      <contour>
        <pt x="462" y="682" on="1"/>
        <pt x="205" y="682" on="1"/>
        <pt x="205" y="68" on="1"/>
        <pt x="462" y="68" on="1"/>
      </contour>
      <contour>
        <pt x="338" y="809" on="1"/>
        <pt x="271" y="809" on="1"/>
        <pt x="159" y="932" on="1"/>
        <pt x="233" y="932" on="1"/>
        <pt x="303" y="852" on="1"/>
        <pt x="372" y="932" on="1"/>
        <pt x="445" y="932" on="1"/>
      </contour>
    </TTGlyph>
    <TTGlyph name="Dcroat" xMin="53" yMin="0" xMax="544" yMax="750">
      <contour>
        <pt x="53" y="420" on="1"/>
        <pt x="123" y="420" on="1"/>
        <pt x="123" y="682" on="1"/>
        <pt x="60" y="682" on="1"/>
        <pt x="60" y="750" on="1"/>
        <pt x="413" y="750" on="1"/>
        <pt x="487" y="750" on="0"/>
        <pt x="544" y="685" on="0"/>
        <pt x="544" y="619" on="1"/>
        <pt x="544" y="131" on="1"/>
        <pt x="544" y="62" on="0"/>
        <pt x="480" y="0" on="0"/>
        <pt x="413" y="0" on="1"/>
        <pt x="60" y="0" on="1"/>
        <pt x="60" y="68" on="1"/>
        <pt x="123" y="68" on="1"/>
        <pt x="123" y="354" on="1"/>
        <pt x="53" y="354" on="1"/>
      </contour>
      <contour>
        <pt x="462" y="682" on="1"/>
        <pt x="205" y="682" on="1"/>
        <pt x="205" y="420" on="1"/>
        <pt x="328" y="420" on="1"/>
        <pt x="328" y="354" on="1"/>
        <pt x="205" y="354" on="1"/>
        <pt x="205" y="68" on="1"/>
        <pt x="462" y="68" on="1"/>
      </contour>
    </TTGlyph>
    <TTGlyph name="E" xMin="65" yMin="0" xMax="534" yMax="750">
      <contour>
        <pt x="419" y="493" on="1"/>
        <pt x="419" y="283" on="1"/>
        <pt x="351" y="283" on="1"/>
        <pt x="351" y="354" on="1"/>
        <pt x="210" y="354" on="1"/>
        <pt x="210" y="68" on="1"/>
        <pt x="466" y="68" on="1"/>
        <pt x="466" y="185" on="1"/>
        <pt x="534" y="185" on="1"/>
        <pt x="534" y="0" on="1"/>
        <pt x="65" y="0" on="1"/>
        <pt x="65" y="68" on="1"/>
        <pt x="128" y="68" on="1"/>
        <pt x="128" y="682" on="1"/>
        <pt x="65" y="682" on="1"/>
        <pt x="65" y="750" on="1"/>
        <pt x="534" y="750" on="1"/>
        <pt x="534" y="565" on="1"/>
        <pt x="466" y="565" on="1"/>
        <pt x="466" y="682" on="1"/>
        <pt x="210" y="682" on="1"/>
        <pt x="210" y="422" on="1"/>
        <pt x="351" y="422" on="1"/>
        <pt x="351" y="493" on="1"/>
      </contour>
    </TTGlyph>
    <TTGlyph name="Eacute" xMin="65" yMin="0" xMax="534" yMax="932">
      <contour>
        <pt x="351" y="493" on="1"/>
        <pt x="351" y="422" on="1"/>
        <pt x="210" y="422" on="1"/>
        <pt x="210" y="682" on="1"/>
        <pt x="466" y="682" on="1"/>
        <pt x="466" y="565" on="1"/>
        <pt x="534" y="565" on="1"/>
        <pt x="534" y="750" on="1"/>
        <pt x="65" y="750" on="1"/>
        <pt x="65" y="682" on="1"/>
        <pt x="128" y="682" on="1"/>
        <pt x="128" y="68" on="1"/>
        <pt x="65" y="68" on="1"/>
        <pt x="65" y="0" on="1"/>
        <pt x="534" y="0" on="1"/>
        <pt x="534" y="185" on="1"/>
        <pt x="466" y="185" on="1"/>
        <pt x="466" y="68" on="1"/>
        <pt x="210" y="68" on="1"/>
        <pt x="210" y="354" on="1"/>
        <pt x="351" y="354" on="1"/>
        <pt x="351" y="283" on="1"/>
        <pt x="419" y="283" on="1"/>
        <pt x="419" y="493" on="1"/>
      </contour>
      <contour>
        <pt x="310" y="932" on="1"/>
        <pt x="381" y="932" on="1"/>
        <pt x="276" y="809" on="1"/>
        <pt x="203" y="809" on="1"/>
      </contour>
    </TTGlyph>
    <TTGlyph name="Ebreve" xMin="65" yMin="0" xMax="534" yMax="947">
      <contour>
        <pt x="419" y="493" on="1"/>
        <pt x="419" y="283" on="1"/>
        <pt x="351" y="283" on="1"/>
        <pt x="351" y="354" on="1"/>
        <pt x="210" y="354" on="1"/>
        <pt x="210" y="68" on="1"/>
        <pt x="466" y="68" on="1"/>
        <pt x="466" y="185" on="1"/>
        <pt x="534" y="185" on="1"/>
        <pt x="534" y="0" on="1"/>
        <pt x="65" y="0" on="1"/>
        <pt x="65" y="68" on="1"/>
        <pt x="128" y="68" on="1"/>
        <pt x="128" y="682" on="1"/>
        <pt x="65" y="682" on="1"/>
        <pt x="65" y="750" on="1"/>
        <pt x="534" y="750" on="1"/>
        <pt x="534" y="565" on="1"/>
        <pt x="466" y="565" on="1"/>
        <pt x="466" y="682" on="1"/>
        <pt x="210" y="682" on="1"/>
        <pt x="210" y="422" on="1"/>
        <pt x="351" y="422" on="1"/>
        <pt x="351" y="493" on="1"/>
      </contour>
      <contour>
        <pt x="445" y="947" on="1"/>
        <pt x="445" y="882" on="0"/>
        <pt x="400" y="838" on="1"/>
        <pt x="354" y="794" on="0"/>
        <pt x="292" y="794" on="1"/>
        <pt x="228" y="794" on="0"/>
        <pt x="138" y="884" on="0"/>
        <pt x="138" y="947" on="1"/>
        <pt x="191" y="947" on="1"/>
        <pt x="191" y="907" on="0"/>
        <pt x="250" y="848" on="0"/>
        <pt x="292" y="848" on="1"/>
        <pt x="333" y="848" on="0"/>
        <pt x="392" y="907" on="0"/>
        <pt x="392" y="947" on="1"/>
      </contour>
    </TTGlyph>
    <TTGlyph name="Ecaron" xMin="65" yMin="0" xMax="534" yMax="932">
      <contour>
        <pt x="419" y="493" on="1"/>
        <pt x="419" y="283" on="1"/>
        <pt x="351" y="283" on="1"/>
        <pt x="351" y="354" on="1"/>
        <pt x="210" y="354" on="1"/>
        <pt x="210" y="68" on="1"/>
        <pt x="466" y="68" on="1"/>
        <pt x="466" y="185" on="1"/>
        <pt x="534" y="185" on="1"/>
        <pt x="534" y="0" on="1"/>
        <pt x="65" y="0" on="1"/>
        <pt x="65" y="68" on="1"/>
        <pt x="128" y="68" on="1"/>
        <pt x="128" y="682" on="1"/>
        <pt x="65" y="682" on="1"/>
        <pt x="65" y="750" on="1"/>
        <pt x="534" y="750" on="1"/>
        <pt x="534" y="565" on="1"/>
        <pt x="466" y="565" on="1"/>
        <pt x="466" y="682" on="1"/>
        <pt x="210" y="682" on="1"/>
        <pt x="210" y="422" on="1"/>
        <pt x="351" y="422" on="1"/>
        <pt x="351" y="493" on="1"/>
      </contour>
      <contour>
        <pt x="328" y="809" on="1"/>
        <pt x="261" y="809" on="1"/>
        <pt x="149" y="932" on="1"/>
        <pt x="223" y="932" on="1"/>
        <pt x="293" y="852" on="1"/>
        <pt x="362" y="932" on="1"/>
        <pt x="435" y="932" on="1"/>
      </contour>
    </TTGlyph>
    <TTGlyph name="Ecircumflex" xMin="65" yMin="0" xMax="534" yMax="932">
      <contour>
        <pt x="419" y="493" on="1"/>
        <pt x="419" y="283" on="1"/>
        <pt x="351" y="283" on="1"/>
        <pt x="351" y="354" on="1"/>
        <pt x="210" y="354" on="1"/>
        <pt x="210" y="68" on="1"/>
        <pt x="466" y="68" on="1"/>
        <pt x="466" y="185" on="1"/>
        <pt x="534" y="185" on="1"/>
        <pt x="534" y="0" on="1"/>
        <pt x="65" y="0" on="1"/>
        <pt x="65" y="68" on="1"/>
        <pt x="128" y="68" on="1"/>
        <pt x="128" y="682" on="1"/>
        <pt x="65" y="682" on="1"/>
        <pt x="65" y="750" on="1"/>
        <pt x="534" y="750" on="1"/>
        <pt x="534" y="565" on="1"/>
        <pt x="466" y="565" on="1"/>
        <pt x="466" y="682" on="1"/>
        <pt x="210" y="682" on="1"/>
        <pt x="210" y="422" on="1"/>
        <pt x="351" y="422" on="1"/>
        <pt x="351" y="493" on="1"/>
      </contour>
      <contour>
        <pt x="435" y="809" on="1"/>
        <pt x="362" y="809" on="1"/>
        <pt x="293" y="889" on="1"/>
        <pt x="223" y="809" on="1"/>
        <pt x="149" y="809" on="1"/>
        <pt x="261" y="932" on="1"/>
        <pt x="328" y="932" on="1"/>
      </contour>
    </TTGlyph>
    <TTGlyph name="Edieresis" xMin="65" yMin="0" xMax="534" yMax="896">
      <contour>
        <pt x="419" y="493" on="1"/>
        <pt x="419" y="283" on="1"/>
        <pt x="351" y="283" on="1"/>
        <pt x="351" y="354" on="1"/>
        <pt x="210" y="354" on="1"/>
        <pt x="210" y="68" on="1"/>
        <pt x="466" y="68" on="1"/>
        <pt x="466" y="185" on="1"/>
        <pt x="534" y="185" on="1"/>
        <pt x="534" y="0" on="1"/>
        <pt x="65" y="0" on="1"/>
        <pt x="65" y="68" on="1"/>
        <pt x="128" y="68" on="1"/>
        <pt x="128" y="682" on="1"/>
        <pt x="65" y="682" on="1"/>
        <pt x="65" y="750" on="1"/>
        <pt x="534" y="750" on="1"/>
        <pt x="534" y="565" on="1"/>
        <pt x="466" y="565" on="1"/>
        <pt x="466" y="682" on="1"/>
        <pt x="210" y="682" on="1"/>
        <pt x="210" y="422" on="1"/>
        <pt x="351" y="422" on="1"/>
        <pt x="351" y="493" on="1"/>
      </contour>
      <contour>
        <pt x="236" y="896" on="0"/>
        <pt x="261" y="869" on="0"/>
        <pt x="261" y="833" on="0"/>
        <pt x="236" y="808" on="0"/>
        <pt x="200" y="808" on="0"/>
        <pt x="175" y="833" on="0"/>
        <pt x="175" y="869" on="0"/>
        <pt x="201" y="896" on="0"/>
      </contour>
      <contour>
        <pt x="384" y="896" on="0"/>
        <pt x="409" y="869" on="0"/>
        <pt x="409" y="833" on="0"/>
        <pt x="384" y="808" on="0"/>
        <pt x="348" y="808" on="0"/>
        <pt x="323" y="833" on="0"/>
        <pt x="323" y="869" on="0"/>
        <pt x="349" y="896" on="0"/>
      </contour>
    </TTGlyph>
    <TTGlyph name="Edotaccent" xMin="65" yMin="0" xMax="534" yMax="918">
      <contour>
        <pt x="419" y="493" on="1"/>
        <pt x="419" y="283" on="1"/>
        <pt x="351" y="283" on="1"/>
        <pt x="351" y="354" on="1"/>
        <pt x="210" y="354" on="1"/>
        <pt x="210" y="68" on="1"/>
        <pt x="466" y="68" on="1"/>
        <pt x="466" y="185" on="1"/>
        <pt x="534" y="185" on="1"/>
        <pt x="534" y="0" on="1"/>
        <pt x="65" y="0" on="1"/>
        <pt x="65" y="68" on="1"/>
        <pt x="128" y="68" on="1"/>
        <pt x="128" y="682" on="1"/>
        <pt x="65" y="682" on="1"/>
        <pt x="65" y="750" on="1"/>
        <pt x="534" y="750" on="1"/>
        <pt x="534" y="565" on="1"/>
        <pt x="466" y="565" on="1"/>
        <pt x="466" y="682" on="1"/>
        <pt x="210" y="682" on="1"/>
        <pt x="210" y="422" on="1"/>
        <pt x="351" y="422" on="1"/>
        <pt x="351" y="493" on="1"/>
      </contour>
      <contour>
        <pt x="310" y="918" on="0"/>
        <pt x="335" y="891" on="0"/>
        <pt x="335" y="855" on="0"/>
        <pt x="310" y="830" on="0"/>
        <pt x="274" y="830" on="0"/>
        <pt x="249" y="855" on="0"/>
        <pt x="249" y="891" on="0"/>
        <pt x="275" y="918" on="0"/>
      </contour>
    </TTGlyph>
    <TTGlyph name="Egrave" xMin="65" yMin="0" xMax="534" yMax="932">
      <contour>
        <pt x="419" y="493" on="1"/>
        <pt x="419" y="283" on="1"/>
        <pt x="351" y="283" on="1"/>
        <pt x="351" y="354" on="1"/>
        <pt x="210" y="354" on="1"/>
        <pt x="210" y="68" on="1"/>
        <pt x="466" y="68" on="1"/>
        <pt x="466" y="185" on="1"/>
        <pt x="534" y="185" on="1"/>
        <pt x="534" y="0" on="1"/>
        <pt x="65" y="0" on="1"/>
        <pt x="65" y="68" on="1"/>
        <pt x="128" y="68" on="1"/>
        <pt x="128" y="682" on="1"/>
        <pt x="65" y="682" on="1"/>
        <pt x="65" y="750" on="1"/>
        <pt x="534" y="750" on="1"/>
        <pt x="534" y="565" on="1"/>
        <pt x="466" y="565" on="1"/>
        <pt x="466" y="682" on="1"/>
        <pt x="210" y="682" on="1"/>
        <pt x="210" y="422" on="1"/>
        <pt x="351" y="422" on="1"/>
        <pt x="351" y="493" on="1"/>
      </contour>
      <contour>
        <pt x="381" y="809" on="1"/>
        <pt x="308" y="809" on="1"/>
        <pt x="203" y="932" on="1"/>
        <pt x="274" y="932" on="1"/>
      </contour>
    </TTGlyph>
    <TTGlyph name="Emacron" xMin="65" yMin="0" xMax="534" yMax="888">
      <contour>
        <pt x="419" y="493" on="1"/>
        <pt x="419" y="283" on="1"/>
        <pt x="351" y="283" on="1"/>
        <pt x="351" y="354" on="1"/>
        <pt x="210" y="354" on="1"/>
        <pt x="210" y="68" on="1"/>
        <pt x="466" y="68" on="1"/>
        <pt x="466" y="185" on="1"/>
        <pt x="534" y="185" on="1"/>
        <pt x="534" y="0" on="1"/>
        <pt x="65" y="0" on="1"/>
        <pt x="65" y="68" on="1"/>
        <pt x="128" y="68" on="1"/>
        <pt x="128" y="682" on="1"/>
        <pt x="65" y="682" on="1"/>
        <pt x="65" y="750" on="1"/>
        <pt x="534" y="750" on="1"/>
        <pt x="534" y="565" on="1"/>
        <pt x="466" y="565" on="1"/>
        <pt x="466" y="682" on="1"/>
        <pt x="210" y="682" on="1"/>
        <pt x="210" y="422" on="1"/>
        <pt x="351" y="422" on="1"/>
        <pt x="351" y="493" on="1"/>
      </contour>
      <contour>
        <pt x="164" y="888" on="1"/>
        <pt x="419" y="888" on="1"/>
        <pt x="419" y="825" on="1"/>
        <pt x="164" y="825" on="1"/>
      </contour>
    </TTGlyph>
    <TTGlyph name="Eng" xMin="65" yMin="-217" xMax="654" yMax="750">
      <contour>
        <pt x="654" y="682" on="1"/>
        <pt x="591" y="682" on="1"/>
        <pt x="591" y="-100" on="1"/>
        <pt x="591" y="-179" on="0"/>
        <pt x="536" y="-206" on="1"/>
        <pt x="515" y="-217" on="0"/>
        <pt x="484" y="-217" on="1"/>
        <pt x="335" y="-217" on="1"/>
        <pt x="335" y="-149" on="1"/>
        <pt x="509" y="-149" on="1"/>
        <pt x="509" y="2" on="1"/>
        <pt x="210" y="584" on="1"/>
        <pt x="210" y="68" on="1"/>
        <pt x="275" y="68" on="1"/>
        <pt x="275" y="0" on="1"/>
        <pt x="65" y="0" on="1"/>
        <pt x="65" y="68" on="1"/>
        <pt x="128" y="68" on="1"/>
        <pt x="128" y="682" on="1"/>
        <pt x="65" y="682" on="1"/>
        <pt x="65" y="750" on="1"/>
        <pt x="219" y="750" on="1"/>
        <pt x="509" y="187" on="1"/>
        <pt x="509" y="682" on="1"/>
        <pt x="444" y="682" on="1"/>
        <pt x="444" y="750" on="1"/>
        <pt x="654" y="750" on="1"/>
      </contour>
    </TTGlyph>
    <TTGlyph name="Eogonek" xMin="65" yMin="-217" xMax="534" yMax="750">
      <contour>
        <pt x="419" y="493" on="1"/>
        <pt x="419" y="283" on="1"/>
        <pt x="351" y="283" on="1"/>
        <pt x="351" y="354" on="1"/>
        <pt x="210" y="354" on="1"/>
        <pt x="210" y="68" on="1"/>
        <pt x="466" y="68" on="1"/>
        <pt x="466" y="185" on="1"/>
        <pt x="534" y="185" on="1"/>
        <pt x="534" y="0" on="1"/>
        <pt x="65" y="0" on="1"/>
        <pt x="65" y="68" on="1"/>
        <pt x="128" y="68" on="1"/>
        <pt x="128" y="682" on="1"/>
        <pt x="65" y="682" on="1"/>
        <pt x="65" y="750" on="1"/>
        <pt x="534" y="750" on="1"/>
        <pt x="534" y="565" on="1"/>
        <pt x="466" y="565" on="1"/>
        <pt x="466" y="682" on="1"/>
        <pt x="210" y="682" on="1"/>
        <pt x="210" y="422" on="1"/>
        <pt x="351" y="422" on="1"/>
        <pt x="351" y="493" on="1"/>
      </contour>
      <contour>
        <pt x="534" y="0" on="1"/>
        <pt x="426" y="-89" on="1"/>
        <pt x="426" y="-164" on="1"/>
        <pt x="514" y="-164" on="1"/>
        <pt x="514" y="-217" on="1"/>
        <pt x="432" y="-217" on="1"/>
        <pt x="390" y="-217" on="0"/>
        <pt x="364" y="-177" on="0"/>
        <pt x="364" y="-149" on="1"/>
        <pt x="364" y="-118" on="1"/>
        <pt x="364" y="-89" on="0"/>
        <pt x="382" y="-62" on="0"/>
        <pt x="403" y="-45" on="0"/>
        <pt x="418" y="-34" on="1"/>
        <pt x="462" y="0" on="1"/>
      </contour>
    </TTGlyph>
    <TTGlyph name="Eth" xMin="56" yMin="0" xMax="544" yMax="750">
      <contour>
        <pt x="123" y="421" on="1"/>
        <pt x="123" y="682" on="1"/>
        <pt x="60" y="682" on="1"/>
        <pt x="60" y="750" on="1"/>
        <pt x="413" y="750" on="1"/>
        <pt x="487" y="750" on="0"/>
        <pt x="544" y="685" on="0"/>
        <pt x="544" y="619" on="1"/>
        <pt x="544" y="131" on="1"/>
        <pt x="544" y="62" on="0"/>
        <pt x="480" y="0" on="0"/>
        <pt x="413" y="0" on="1"/>
        <pt x="60" y="0" on="1"/>
        <pt x="60" y="68" on="1"/>
        <pt x="123" y="68" on="1"/>
        <pt x="123" y="355" on="1"/>
        <pt x="56" y="355" on="1"/>
        <pt x="56" y="421" on="1"/>
      </contour>
      <contour>
        <pt x="462" y="682" on="1"/>
        <pt x="205" y="682" on="1"/>
        <pt x="205" y="421" on="1"/>
        <pt x="347" y="421" on="1"/>
        <pt x="347" y="355" on="1"/>
        <pt x="205" y="355" on="1"/>
        <pt x="205" y="68" on="1"/>
        <pt x="462" y="68" on="1"/>
      </contour>
    </TTGlyph>
    <TTGlyph name="Euro" xMin="40" yMin="0" xMax="515" yMax="750">
      <contour>
        <pt x="40" y="501" on="1"/>
        <pt x="100" y="501" on="1"/>
        <pt x="100" y="642" on="1"/>
        <pt x="100" y="715" on="0"/>
        <pt x="151" y="740" on="1"/>
        <pt x="170" y="750" on="0"/>
        <pt x="198" y="750" on="1"/>
        <pt x="515" y="750" on="1"/>
        <pt x="515" y="615" on="1"/>
        <pt x="447" y="615" on="1"/>
        <pt x="447" y="682" on="1"/>
        <pt x="182" y="682" on="1"/>
        <pt x="182" y="501" on="1"/>
        <pt x="430" y="501" on="1"/>
        <pt x="430" y="434" on="1"/>
        <pt x="182" y="434" on="1"/>
        <pt x="182" y="327" on="1"/>
        <pt x="430" y="327" on="1"/>
        <pt x="430" y="260" on="1"/>
        <pt x="182" y="260" on="1"/>
        <pt x="182" y="68" on="1"/>
        <pt x="447" y="68" on="1"/>
        <pt x="447" y="132" on="1"/>
        <pt x="515" y="132" on="1"/>
        <pt x="515" y="0" on="1"/>
        <pt x="208" y="0" on="1"/>
        <pt x="124" y="0" on="0"/>
        <pt x="106" y="66" on="1"/>
        <pt x="100" y="85" on="0"/>
        <pt x="100" y="107" on="1"/>
        <pt x="100" y="260" on="1"/>
        <pt x="40" y="260" on="1"/>
        <pt x="40" y="327" on="1"/>
        <pt x="100" y="327" on="1"/>
        <pt x="100" y="434" on="1"/>
        <pt x="40" y="434" on="1"/>
      </contour>
    </TTGlyph>
    <TTGlyph name="F" xMin="65" yMin="0" xMax="534" yMax="750">
      <contour>
        <pt x="351" y="354" on="1"/>
        <pt x="210" y="354" on="1"/>
        <pt x="210" y="68" on="1"/>
        <pt x="275" y="68" on="1"/>
        <pt x="275" y="0" on="1"/>
        <pt x="65" y="0" on="1"/>
        <pt x="65" y="68" on="1"/>
        <pt x="128" y="68" on="1"/>
        <pt x="128" y="682" on="1"/>
        <pt x="65" y="682" on="1"/>
        <pt x="65" y="750" on="1"/>
        <pt x="534" y="750" on="1"/>
        <pt x="534" y="565" on="1"/>
        <pt x="466" y="565" on="1"/>
        <pt x="466" y="682" on="1"/>
        <pt x="210" y="682" on="1"/>
        <pt x="210" y="422" on="1"/>
        <pt x="351" y="422" on="1"/>
        <pt x="351" y="493" on="1"/>
        <pt x="419" y="493" on="1"/>
        <pt x="419" y="283" on="1"/>
        <pt x="351" y="283" on="1"/>
      </contour>
    </TTGlyph>
    <TTGlyph name="G" xMin="60" yMin="0" xMax="482" yMax="750">
      <contour>
        <pt x="60" y="635" on="1"/>
        <pt x="60" y="750" on="0"/>
        <pt x="167" y="750" on="1"/>
        <pt x="482" y="750" on="1"/>
        <pt x="482" y="565" on="1"/>
        <pt x="402" y="565" on="1"/>
        <pt x="402" y="682" on="1"/>
        <pt x="142" y="682" on="1"/>
        <pt x="142" y="68" on="1"/>
        <pt x="402" y="68" on="1"/>
        <pt x="402" y="302" on="1"/>
        <pt x="263" y="215" on="1"/>
        <pt x="263" y="288" on="1"/>
        <pt x="482" y="425" on="1"/>
        <pt x="482" y="0" on="1"/>
        <pt x="185" y="0" on="1"/>
        <pt x="114" y="0" on="0"/>
        <pt x="88" y="26" on="1"/>
        <pt x="60" y="53" on="0"/>
        <pt x="60" y="124" on="1"/>
      </contour>
    </TTGlyph>
    <TTGlyph name="Gbreve" xMin="60" yMin="0" xMax="482" yMax="947">
      <contour>
        <pt x="60" y="635" on="1"/>
        <pt x="60" y="750" on="0"/>
        <pt x="167" y="750" on="1"/>
        <pt x="482" y="750" on="1"/>
        <pt x="482" y="565" on="1"/>
        <pt x="402" y="565" on="1"/>
        <pt x="402" y="682" on="1"/>
        <pt x="142" y="682" on="1"/>
        <pt x="142" y="68" on="1"/>
        <pt x="402" y="68" on="1"/>
        <pt x="402" y="302" on="1"/>
        <pt x="263" y="215" on="1"/>
        <pt x="263" y="288" on="1"/>
        <pt x="482" y="425" on="1"/>
        <pt x="482" y="0" on="1"/>
        <pt x="185" y="0" on="1"/>
        <pt x="114" y="0" on="0"/>
        <pt x="88" y="26" on="1"/>
        <pt x="60" y="53" on="0"/>
        <pt x="60" y="124" on="1"/>
      </contour>
      <contour>
        <pt x="424" y="947" on="1"/>
        <pt x="424" y="882" on="0"/>
        <pt x="379" y="838" on="1"/>
        <pt x="333" y="794" on="0"/>
        <pt x="271" y="794" on="1"/>
        <pt x="207" y="794" on="0"/>
        <pt x="117" y="884" on="0"/>
        <pt x="117" y="947" on="1"/>
        <pt x="170" y="947" on="1"/>
        <pt x="170" y="907" on="0"/>
        <pt x="229" y="848" on="0"/>
        <pt x="271" y="848" on="1"/>
        <pt x="312" y="848" on="0"/>
        <pt x="371" y="907" on="0"/>
        <pt x="371" y="947" on="1"/>
      </contour>
    </TTGlyph>
    <TTGlyph name="Gcircumflex" xMin="60" yMin="0" xMax="482" yMax="932">
      <contour>
        <pt x="60" y="635" on="1"/>
        <pt x="60" y="750" on="0"/>
        <pt x="167" y="750" on="1"/>
        <pt x="482" y="750" on="1"/>
        <pt x="482" y="565" on="1"/>
        <pt x="402" y="565" on="1"/>
        <pt x="402" y="682" on="1"/>
        <pt x="142" y="682" on="1"/>
        <pt x="142" y="68" on="1"/>
        <pt x="402" y="68" on="1"/>
        <pt x="402" y="302" on="1"/>
        <pt x="263" y="215" on="1"/>
        <pt x="263" y="288" on="1"/>
        <pt x="482" y="425" on="1"/>
        <pt x="482" y="0" on="1"/>
        <pt x="185" y="0" on="1"/>
        <pt x="114" y="0" on="0"/>
        <pt x="88" y="26" on="1"/>
        <pt x="60" y="53" on="0"/>
        <pt x="60" y="124" on="1"/>
      </contour>
      <contour>
        <pt x="414" y="809" on="1"/>
        <pt x="341" y="809" on="1"/>
        <pt x="272" y="889" on="1"/>
        <pt x="202" y="809" on="1"/>
        <pt x="128" y="809" on="1"/>
        <pt x="240" y="932" on="1"/>
        <pt x="307" y="932" on="1"/>
      </contour>
    </TTGlyph>
    <TTGlyph name="Gdotaccent" xMin="60" yMin="0" xMax="482" yMax="918">
      <contour>
        <pt x="60" y="635" on="1"/>
        <pt x="60" y="750" on="0"/>
        <pt x="167" y="750" on="1"/>
        <pt x="482" y="750" on="1"/>
        <pt x="482" y="565" on="1"/>
        <pt x="402" y="565" on="1"/>
        <pt x="402" y="682" on="1"/>
        <pt x="142" y="682" on="1"/>
        <pt x="142" y="68" on="1"/>
        <pt x="402" y="68" on="1"/>
        <pt x="402" y="302" on="1"/>
        <pt x="263" y="215" on="1"/>
        <pt x="263" y="288" on="1"/>
        <pt x="482" y="425" on="1"/>
        <pt x="482" y="0" on="1"/>
        <pt x="185" y="0" on="1"/>
        <pt x="114" y="0" on="0"/>
        <pt x="88" y="26" on="1"/>
        <pt x="60" y="53" on="0"/>
        <pt x="60" y="124" on="1"/>
      </contour>
      <contour>
        <pt x="289" y="918" on="0"/>
        <pt x="314" y="891" on="0"/>
        <pt x="314" y="855" on="0"/>
        <pt x="289" y="830" on="0"/>
        <pt x="253" y="830" on="0"/>
        <pt x="228" y="855" on="0"/>
        <pt x="228" y="891" on="0"/>
        <pt x="254" y="918" on="0"/>
      </contour>
    </TTGlyph>
    <TTGlyph name="H" xMin="65" yMin="0" xMax="633" yMax="750">
      <contour>
        <pt x="570" y="682" on="1"/>
        <pt x="570" y="68" on="1"/>
        <pt x="633" y="68" on="1"/>
        <pt x="633" y="0" on="1"/>
        <pt x="427" y="0" on="1"/>
        <pt x="427" y="68" on="1"/>
        <pt x="488" y="68" on="1"/>
        <pt x="488" y="354" on="1"/>
        <pt x="210" y="354" on="1"/>
        <pt x="210" y="68" on="1"/>
        <pt x="271" y="68" on="1"/>
        <pt x="271" y="0" on="1"/>
        <pt x="65" y="0" on="1"/>
        <pt x="65" y="68" on="1"/>
        <pt x="128" y="68" on="1"/>
        <pt x="128" y="682" on="1"/>
        <pt x="65" y="682" on="1"/>
        <pt x="65" y="750" on="1"/>
        <pt x="271" y="750" on="1"/>
        <pt x="271" y="682" on="1"/>
        <pt x="210" y="682" on="1"/>
        <pt x="210" y="421" on="1"/>
        <pt x="488" y="421" on="1"/>
        <pt x="488" y="682" on="1"/>
        <pt x="427" y="682" on="1"/>
        <pt x="427" y="750" on="1"/>
        <pt x="633" y="750" on="1"/>
        <pt x="633" y="682" on="1"/>
      </contour>
    </TTGlyph>
    <TTGlyph name="Hbar" xMin="65" yMin="0" xMax="633" yMax="750">
      <contour>
        <pt x="69" y="563" on="1"/>
        <pt x="128" y="563" on="1"/>
        <pt x="128" y="682" on="1"/>
        <pt x="65" y="682" on="1"/>
        <pt x="65" y="750" on="1"/>
        <pt x="271" y="750" on="1"/>
        <pt x="271" y="682" on="1"/>
        <pt x="210" y="682" on="1"/>
        <pt x="210" y="563" on="1"/>
        <pt x="488" y="563" on="1"/>
        <pt x="488" y="682" on="1"/>
        <pt x="427" y="682" on="1"/>
        <pt x="427" y="750" on="1"/>
        <pt x="633" y="750" on="1"/>
        <pt x="633" y="682" on="1"/>
        <pt x="570" y="682" on="1"/>
        <pt x="570" y="563" on="1"/>
        <pt x="630" y="563" on="1"/>
        <pt x="630" y="500" on="1"/>
        <pt x="570" y="500" on="1"/>
        <pt x="570" y="68" on="1"/>
        <pt x="633" y="68" on="1"/>
        <pt x="633" y="0" on="1"/>
        <pt x="427" y="0" on="1"/>
        <pt x="427" y="68" on="1"/>
        <pt x="488" y="68" on="1"/>
        <pt x="488" y="354" on="1"/>
        <pt x="210" y="354" on="1"/>
        <pt x="210" y="68" on="1"/>
        <pt x="271" y="68" on="1"/>
        <pt x="271" y="0" on="1"/>
        <pt x="65" y="0" on="1"/>
        <pt x="65" y="68" on="1"/>
        <pt x="128" y="68" on="1"/>
        <pt x="128" y="500" on="1"/>
        <pt x="69" y="500" on="1"/>
      </contour>
      <contour>
        <pt x="488" y="421" on="1"/>
        <pt x="488" y="500" on="1"/>
        <pt x="210" y="500" on="1"/>
        <pt x="210" y="421" on="1"/>
      </contour>
    </TTGlyph>
    <TTGlyph name="Hcircumflex" xMin="65" yMin="0" xMax="633" yMax="932">
      <contour>
        <pt x="570" y="682" on="1"/>
        <pt x="570" y="68" on="1"/>
        <pt x="633" y="68" on="1"/>
        <pt x="633" y="0" on="1"/>
        <pt x="427" y="0" on="1"/>
        <pt x="427" y="68" on="1"/>
        <pt x="488" y="68" on="1"/>
        <pt x="488" y="354" on="1"/>
        <pt x="210" y="354" on="1"/>
        <pt x="210" y="68" on="1"/>
        <pt x="271" y="68" on="1"/>
        <pt x="271" y="0" on="1"/>
        <pt x="65" y="0" on="1"/>
        <pt x="65" y="68" on="1"/>
        <pt x="128" y="68" on="1"/>
        <pt x="128" y="682" on="1"/>
        <pt x="65" y="682" on="1"/>
        <pt x="65" y="750" on="1"/>
        <pt x="271" y="750" on="1"/>
        <pt x="271" y="682" on="1"/>
        <pt x="210" y="682" on="1"/>
        <pt x="210" y="421" on="1"/>
        <pt x="488" y="421" on="1"/>
        <pt x="488" y="682" on="1"/>
        <pt x="427" y="682" on="1"/>
        <pt x="427" y="750" on="1"/>
        <pt x="633" y="750" on="1"/>
        <pt x="633" y="682" on="1"/>
      </contour>
      <contour>
        <pt x="492" y="809" on="1"/>
        <pt x="419" y="809" on="1"/>
        <pt x="350" y="889" on="1"/>
        <pt x="280" y="809" on="1"/>
        <pt x="206" y="809" on="1"/>
        <pt x="318" y="932" on="1"/>
        <pt x="385" y="932" on="1"/>
      </contour>
    </TTGlyph>
    <TTGlyph name="I" xMin="80" yMin="0" xMax="290" yMax="750">
      <contour>
        <pt x="225" y="68" on="1"/>
        <pt x="290" y="68" on="1"/>
        <pt x="290" y="0" on="1"/>
        <pt x="80" y="0" on="1"/>
        <pt x="80" y="68" on="1"/>
        <pt x="143" y="68" on="1"/>
        <pt x="143" y="682" on="1"/>
        <pt x="80" y="682" on="1"/>
        <pt x="80" y="750" on="1"/>
        <pt x="290" y="750" on="1"/>
        <pt x="290" y="682" on="1"/>
        <pt x="225" y="682" on="1"/>
      </contour>
    </TTGlyph>
    <TTGlyph name="Iacute" xMin="80" yMin="0" xMax="290" yMax="932">
      <contour>
        <pt x="225" y="682" on="1"/>
        <pt x="290" y="682" on="1"/>
        <pt x="290" y="750" on="1"/>
        <pt x="80" y="750" on="1"/>
        <pt x="80" y="682" on="1"/>
        <pt x="143" y="682" on="1"/>
        <pt x="143" y="68" on="1"/>
        <pt x="80" y="68" on="1"/>
        <pt x="80" y="0" on="1"/>
        <pt x="290" y="0" on="1"/>
        <pt x="290" y="68" on="1"/>
        <pt x="225" y="68" on="1"/>
      </contour>
      <contour>
        <pt x="203" y="932" on="1"/>
        <pt x="274" y="932" on="1"/>
        <pt x="169" y="809" on="1"/>
        <pt x="96" y="809" on="1"/>
      </contour>
    </TTGlyph>
    <TTGlyph name="Ibreve" xMin="31" yMin="0" xMax="338" yMax="947">
      <contour>
        <pt x="225" y="68" on="1"/>
        <pt x="290" y="68" on="1"/>
        <pt x="290" y="0" on="1"/>
        <pt x="80" y="0" on="1"/>
        <pt x="80" y="68" on="1"/>
        <pt x="143" y="68" on="1"/>
        <pt x="143" y="682" on="1"/>
        <pt x="80" y="682" on="1"/>
        <pt x="80" y="750" on="1"/>
        <pt x="290" y="750" on="1"/>
        <pt x="290" y="682" on="1"/>
        <pt x="225" y="682" on="1"/>
      </contour>
      <contour>
        <pt x="338" y="947" on="1"/>
        <pt x="338" y="882" on="0"/>
        <pt x="293" y="838" on="1"/>
        <pt x="247" y="794" on="0"/>
        <pt x="185" y="794" on="1"/>
        <pt x="121" y="794" on="0"/>
        <pt x="31" y="884" on="0"/>
        <pt x="31" y="947" on="1"/>
        <pt x="84" y="947" on="1"/>
        <pt x="84" y="907" on="0"/>
        <pt x="143" y="848" on="0"/>
        <pt x="185" y="848" on="1"/>
        <pt x="226" y="848" on="0"/>
        <pt x="285" y="907" on="0"/>
        <pt x="285" y="947" on="1"/>
      </contour>
    </TTGlyph>
    <TTGlyph name="Icircumflex" xMin="42" yMin="0" xMax="328" yMax="932">
      <contour>
        <pt x="225" y="68" on="1"/>
        <pt x="290" y="68" on="1"/>
        <pt x="290" y="0" on="1"/>
        <pt x="80" y="0" on="1"/>
        <pt x="80" y="68" on="1"/>
        <pt x="143" y="68" on="1"/>
        <pt x="143" y="682" on="1"/>
        <pt x="80" y="682" on="1"/>
        <pt x="80" y="750" on="1"/>
        <pt x="290" y="750" on="1"/>
        <pt x="290" y="682" on="1"/>
        <pt x="225" y="682" on="1"/>
      </contour>
      <contour>
        <pt x="328" y="809" on="1"/>
        <pt x="255" y="809" on="1"/>
        <pt x="186" y="889" on="1"/>
        <pt x="116" y="809" on="1"/>
        <pt x="42" y="809" on="1"/>
        <pt x="154" y="932" on="1"/>
        <pt x="221" y="932" on="1"/>
      </contour>
    </TTGlyph>
    <TTGlyph name="Idieresis" xMin="68" yMin="0" xMax="302" yMax="896">
      <contour>
        <pt x="225" y="68" on="1"/>
        <pt x="290" y="68" on="1"/>
        <pt x="290" y="0" on="1"/>
        <pt x="80" y="0" on="1"/>
        <pt x="80" y="68" on="1"/>
        <pt x="143" y="68" on="1"/>
        <pt x="143" y="682" on="1"/>
        <pt x="80" y="682" on="1"/>
        <pt x="80" y="750" on="1"/>
        <pt x="290" y="750" on="1"/>
        <pt x="290" y="682" on="1"/>
        <pt x="225" y="682" on="1"/>
      </contour>
      <contour>
        <pt x="129" y="896" on="0"/>
        <pt x="154" y="869" on="0"/>
        <pt x="154" y="833" on="0"/>
        <pt x="129" y="808" on="0"/>
        <pt x="93" y="808" on="0"/>
        <pt x="68" y="833" on="0"/>
        <pt x="68" y="869" on="0"/>
        <pt x="94" y="896" on="0"/>
      </contour>
      <contour>
        <pt x="277" y="896" on="0"/>
        <pt x="302" y="869" on="0"/>
        <pt x="302" y="833" on="0"/>
        <pt x="277" y="808" on="0"/>
        <pt x="241" y="808" on="0"/>
        <pt x="216" y="833" on="0"/>
        <pt x="216" y="869" on="0"/>
        <pt x="242" y="896" on="0"/>
      </contour>
    </TTGlyph>
    <TTGlyph name="Idotaccent" xMin="80" yMin="0" xMax="290" yMax="918">
      <contour>
        <pt x="225" y="68" on="1"/>
        <pt x="290" y="68" on="1"/>
        <pt x="290" y="0" on="1"/>
        <pt x="80" y="0" on="1"/>
        <pt x="80" y="68" on="1"/>
        <pt x="143" y="68" on="1"/>
        <pt x="143" y="682" on="1"/>
        <pt x="80" y="682" on="1"/>
        <pt x="80" y="750" on="1"/>
        <pt x="290" y="750" on="1"/>
        <pt x="290" y="682" on="1"/>
        <pt x="225" y="682" on="1"/>
      </contour>
      <contour>
        <pt x="203" y="918" on="0"/>
        <pt x="228" y="891" on="0"/>
        <pt x="228" y="855" on="0"/>
        <pt x="203" y="830" on="0"/>
        <pt x="167" y="830" on="0"/>
        <pt x="142" y="855" on="0"/>
        <pt x="142" y="891" on="0"/>
        <pt x="168" y="918" on="0"/>
      </contour>
    </TTGlyph>
    <TTGlyph name="Igrave" xMin="80" yMin="0" xMax="290" yMax="932">
      <contour>
        <pt x="225" y="68" on="1"/>
        <pt x="290" y="68" on="1"/>
        <pt x="290" y="0" on="1"/>
        <pt x="80" y="0" on="1"/>
        <pt x="80" y="68" on="1"/>
        <pt x="143" y="68" on="1"/>
        <pt x="143" y="682" on="1"/>
        <pt x="80" y="682" on="1"/>
        <pt x="80" y="750" on="1"/>
        <pt x="290" y="750" on="1"/>
        <pt x="290" y="682" on="1"/>
        <pt x="225" y="682" on="1"/>
      </contour>
      <contour>
        <pt x="274" y="809" on="1"/>
        <pt x="201" y="809" on="1"/>
        <pt x="96" y="932" on="1"/>
        <pt x="167" y="932" on="1"/>
      </contour>
    </TTGlyph>
    <TTGlyph name="Imacron" xMin="57" yMin="0" xMax="312" yMax="888">
      <contour>
        <pt x="225" y="68" on="1"/>
        <pt x="290" y="68" on="1"/>
        <pt x="290" y="0" on="1"/>
        <pt x="80" y="0" on="1"/>
        <pt x="80" y="68" on="1"/>
        <pt x="143" y="68" on="1"/>
        <pt x="143" y="682" on="1"/>
        <pt x="80" y="682" on="1"/>
        <pt x="80" y="750" on="1"/>
        <pt x="290" y="750" on="1"/>
        <pt x="290" y="682" on="1"/>
        <pt x="225" y="682" on="1"/>
      </contour>
      <contour>
        <pt x="57" y="888" on="1"/>
        <pt x="312" y="888" on="1"/>
        <pt x="312" y="825" on="1"/>
        <pt x="57" y="825" on="1"/>
      </contour>
    </TTGlyph>
    <TTGlyph name="Iogonek" xMin="80" yMin="-217" xMax="290" yMax="750">
      <contour>
        <pt x="225" y="68" on="1"/>
        <pt x="290" y="68" on="1"/>
        <pt x="290" y="0" on="1"/>
        <pt x="80" y="0" on="1"/>
        <pt x="80" y="68" on="1"/>
        <pt x="143" y="68" on="1"/>
        <pt x="143" y="682" on="1"/>
        <pt x="80" y="682" on="1"/>
        <pt x="80" y="750" on="1"/>
        <pt x="290" y="750" on="1"/>
        <pt x="290" y="682" on="1"/>
        <pt x="225" y="682" on="1"/>
      </contour>
      <contour>
        <pt x="290" y="0" on="1"/>
        <pt x="182" y="-89" on="1"/>
        <pt x="182" y="-164" on="1"/>
        <pt x="270" y="-164" on="1"/>
        <pt x="270" y="-217" on="1"/>
        <pt x="188" y="-217" on="1"/>
        <pt x="146" y="-217" on="0"/>
        <pt x="120" y="-177" on="0"/>
        <pt x="120" y="-149" on="1"/>
        <pt x="120" y="-118" on="1"/>
        <pt x="120" y="-89" on="0"/>
        <pt x="138" y="-62" on="0"/>
        <pt x="159" y="-45" on="0"/>
        <pt x="174" y="-34" on="1"/>
        <pt x="218" y="0" on="1"/>
      </contour>
    </TTGlyph>
    <TTGlyph name="Itilde" xMin="20" yMin="0" xMax="350" yMax="922">
      <contour>
        <pt x="225" y="68" on="1"/>
        <pt x="290" y="68" on="1"/>
        <pt x="290" y="0" on="1"/>
        <pt x="80" y="0" on="1"/>
        <pt x="80" y="68" on="1"/>
        <pt x="143" y="68" on="1"/>
        <pt x="143" y="682" on="1"/>
        <pt x="80" y="682" on="1"/>
        <pt x="80" y="750" on="1"/>
        <pt x="290" y="750" on="1"/>
        <pt x="290" y="682" on="1"/>
        <pt x="225" y="682" on="1"/>
      </contour>
      <contour>
        <pt x="350" y="888" on="1"/>
        <pt x="342" y="865" on="0"/>
        <pt x="322" y="846" on="1"/>
        <pt x="282" y="811" on="0"/>
        <pt x="250" y="811" on="1"/>
        <pt x="226" y="811" on="0"/>
        <pt x="163" y="848" on="0"/>
        <pt x="130" y="865" on="0"/>
        <pt x="97" y="865" on="0"/>
        <pt x="75" y="845" on="0"/>
        <pt x="61" y="816" on="1"/>
        <pt x="20" y="846" on="1"/>
        <pt x="27" y="868" on="0"/>
        <pt x="47" y="886" on="1"/>
        <pt x="84" y="922" on="0"/>
        <pt x="132" y="922" on="0"/>
        <pt x="173" y="905" on="0"/>
        <pt x="210" y="884" on="0"/>
        <pt x="240" y="867" on="0"/>
        <pt x="269" y="867" on="0"/>
        <pt x="304" y="897" on="0"/>
        <pt x="312" y="916" on="1"/>
      </contour>
    </TTGlyph>
    <TTGlyph name="J" xMin="20" yMin="0" xMax="341" yMax="750">
      <contour>
        <pt x="341" y="682" on="1"/>
        <pt x="276" y="682" on="1"/>
        <pt x="276" y="117" on="1"/>
        <pt x="276" y="38" on="0"/>
        <pt x="221" y="10" on="1"/>
        <pt x="200" y="0" on="0"/>
        <pt x="169" y="0" on="1"/>
        <pt x="20" y="0" on="1"/>
        <pt x="20" y="68" on="1"/>
        <pt x="194" y="68" on="1"/>
        <pt x="194" y="682" on="1"/>
        <pt x="130" y="682" on="1"/>
        <pt x="130" y="750" on="1"/>
        <pt x="341" y="750" on="1"/>
      </contour>
    </TTGlyph>
    <TTGlyph name="Jcircumflex" xMin="20" yMin="0" xMax="377" yMax="932">
      <contour>
        <pt x="341" y="682" on="1"/>
        <pt x="276" y="682" on="1"/>
        <pt x="276" y="117" on="1"/>
        <pt x="276" y="38" on="0"/>
        <pt x="221" y="10" on="1"/>
        <pt x="200" y="0" on="0"/>
        <pt x="169" y="0" on="1"/>
        <pt x="20" y="0" on="1"/>
        <pt x="20" y="68" on="1"/>
        <pt x="194" y="68" on="1"/>
        <pt x="194" y="682" on="1"/>
        <pt x="130" y="682" on="1"/>
        <pt x="130" y="750" on="1"/>
        <pt x="341" y="750" on="1"/>
      </contour>
      <contour>
        <pt x="377" y="809" on="1"/>
        <pt x="304" y="809" on="1"/>
        <pt x="235" y="889" on="1"/>
        <pt x="165" y="809" on="1"/>
        <pt x="91" y="809" on="1"/>
        <pt x="203" y="932" on="1"/>
        <pt x="270" y="932" on="1"/>
      </contour>
    </TTGlyph>
    <TTGlyph name="K" xMin="65" yMin="0" xMax="575" yMax="750">
      <contour>
        <pt x="575" y="68" on="1"/>
        <pt x="575" y="0" on="1"/>
        <pt x="461" y="0" on="1"/>
        <pt x="210" y="373" on="1"/>
        <pt x="210" y="68" on="1"/>
        <pt x="275" y="68" on="1"/>
        <pt x="275" y="0" on="1"/>
        <pt x="65" y="0" on="1"/>
        <pt x="65" y="68" on="1"/>
        <pt x="128" y="68" on="1"/>
        <pt x="128" y="682" on="1"/>
        <pt x="65" y="682" on="1"/>
        <pt x="65" y="750" on="1"/>
        <pt x="275" y="750" on="1"/>
        <pt x="275" y="682" on="1"/>
        <pt x="206" y="682" on="1"/>
        <pt x="206" y="403" on="1"/>
        <pt x="461" y="750" on="1"/>
        <pt x="569" y="750" on="1"/>
        <pt x="569" y="682" on="1"/>
        <pt x="502" y="682" on="1"/>
        <pt x="294" y="390" on="1"/>
        <pt x="511" y="68" on="1"/>
      </contour>
    </TTGlyph>
    <TTGlyph name="L" xMin="65" yMin="0" xMax="488" yMax="750">
      <contour>
        <pt x="65" y="68" on="1"/>
        <pt x="128" y="68" on="1"/>
        <pt x="128" y="682" on="1"/>
        <pt x="65" y="682" on="1"/>
        <pt x="65" y="750" on="1"/>
        <pt x="275" y="750" on="1"/>
        <pt x="275" y="682" on="1"/>
        <pt x="210" y="682" on="1"/>
        <pt x="210" y="68" on="1"/>
        <pt x="420" y="68" on="1"/>
        <pt x="420" y="185" on="1"/>
        <pt x="488" y="185" on="1"/>
        <pt x="488" y="0" on="1"/>
        <pt x="65" y="0" on="1"/>
      </contour>
    </TTGlyph>
    <TTGlyph name="Lacute" xMin="65" yMin="0" xMax="488" yMax="932">
      <contour>
        <pt x="65" y="0" on="1"/>
        <pt x="488" y="0" on="1"/>
        <pt x="488" y="185" on="1"/>
        <pt x="420" y="185" on="1"/>
        <pt x="420" y="68" on="1"/>
        <pt x="210" y="68" on="1"/>
        <pt x="210" y="682" on="1"/>
        <pt x="275" y="682" on="1"/>
        <pt x="275" y="750" on="1"/>
        <pt x="65" y="750" on="1"/>
        <pt x="65" y="682" on="1"/>
        <pt x="128" y="682" on="1"/>
        <pt x="128" y="68" on="1"/>
        <pt x="65" y="68" on="1"/>
      </contour>
      <contour>
        <pt x="282" y="932" on="1"/>
        <pt x="353" y="932" on="1"/>
        <pt x="248" y="809" on="1"/>
        <pt x="175" y="809" on="1"/>
      </contour>
    </TTGlyph>
    <TTGlyph name="Lcaron" xMin="27" yMin="0" xMax="488" yMax="914">
      <contour>
        <pt x="206" y="791" on="1"/>
        <pt x="139" y="791" on="1"/>
        <pt x="27" y="914" on="1"/>
        <pt x="101" y="914" on="1"/>
        <pt x="171" y="834" on="1"/>
        <pt x="240" y="914" on="1"/>
        <pt x="313" y="914" on="1"/>
      </contour>
      <contour>
        <pt x="65" y="68" on="1"/>
        <pt x="128" y="68" on="1"/>
        <pt x="128" y="682" on="1"/>
        <pt x="65" y="682" on="1"/>
        <pt x="65" y="750" on="1"/>
        <pt x="275" y="750" on="1"/>
        <pt x="275" y="682" on="1"/>
        <pt x="210" y="682" on="1"/>
        <pt x="210" y="68" on="1"/>
        <pt x="420" y="68" on="1"/>
        <pt x="420" y="185" on="1"/>
        <pt x="488" y="185" on="1"/>
        <pt x="488" y="0" on="1"/>
        <pt x="65" y="0" on="1"/>
      </contour>
    </TTGlyph>
    <TTGlyph name="Ldot" xMin="65" yMin="0" xMax="488" yMax="750">
      <contour>
        <pt x="65" y="68" on="1"/>
        <pt x="128" y="68" on="1"/>
        <pt x="128" y="682" on="1"/>
        <pt x="65" y="682" on="1"/>
        <pt x="65" y="750" on="1"/>
        <pt x="275" y="750" on="1"/>
        <pt x="275" y="682" on="1"/>
        <pt x="210" y="682" on="1"/>
        <pt x="210" y="68" on="1"/>
        <pt x="420" y="68" on="1"/>
        <pt x="420" y="185" on="1"/>
        <pt x="488" y="185" on="1"/>
        <pt x="488" y="0" on="1"/>
        <pt x="65" y="0" on="1"/>
      </contour>
      <contour>
        <pt x="347" y="316" on="0"/>
        <pt x="376" y="284" on="0"/>
        <pt x="376" y="242" on="0"/>
        <pt x="347" y="213" on="0"/>
        <pt x="305" y="213" on="0"/>
        <pt x="275" y="242" on="0"/>
        <pt x="275" y="284" on="0"/>
        <pt x="306" y="316" on="0"/>
      </contour>
    </TTGlyph>
    <TTGlyph name="Lslash" xMin="45" yMin="0" xMax="488" yMax="750">
      <contour>
        <pt x="65" y="68" on="1"/>
        <pt x="128" y="68" on="1"/>
        <pt x="128" y="253" on="1"/>
        <pt x="45" y="218" on="1"/>
        <pt x="45" y="304" on="1"/>
        <pt x="128" y="339" on="1"/>
        <pt x="128" y="682" on="1"/>
        <pt x="65" y="682" on="1"/>
        <pt x="65" y="750" on="1"/>
        <pt x="275" y="750" on="1"/>
        <pt x="275" y="682" on="1"/>
        <pt x="210" y="682" on="1"/>
        <pt x="210" y="375" on="1"/>
        <pt x="401" y="457" on="1"/>
        <pt x="401" y="371" on="1"/>
        <pt x="210" y="289" on="1"/>
        <pt x="210" y="68" on="1"/>
        <pt x="420" y="68" on="1"/>
        <pt x="420" y="185" on="1"/>
        <pt x="488" y="185" on="1"/>
        <pt x="488" y="0" on="1"/>
        <pt x="65" y="0" on="1"/>
      </contour>
    </TTGlyph>
    <TTGlyph name="M" xMin="65" yMin="0" xMax="795" yMax="750">
      <contour>
        <pt x="65" y="682" on="1"/>
        <pt x="65" y="750" on="1"/>
        <pt x="219" y="750" on="1"/>
        <pt x="431" y="313" on="1"/>
        <pt x="641" y="750" on="1"/>
        <pt x="795" y="750" on="1"/>
        <pt x="795" y="682" on="1"/>
        <pt x="732" y="682" on="1"/>
        <pt x="732" y="68" on="1"/>
        <pt x="795" y="68" on="1"/>
        <pt x="795" y="0" on="1"/>
        <pt x="585" y="0" on="1"/>
        <pt x="585" y="68" on="1"/>
        <pt x="650" y="68" on="1"/>
        <pt x="650" y="583" on="1"/>
        <pt x="461" y="194" on="1"/>
        <pt x="398" y="194" on="1"/>
        <pt x="210" y="586" on="1"/>
        <pt x="210" y="68" on="1"/>
        <pt x="275" y="68" on="1"/>
        <pt x="275" y="0" on="1"/>
        <pt x="65" y="0" on="1"/>
        <pt x="65" y="68" on="1"/>
        <pt x="128" y="68" on="1"/>
        <pt x="128" y="682" on="1"/>
      </contour>
    </TTGlyph>
    <TTGlyph name="N" xMin="65" yMin="0" xMax="654" yMax="750">
      <contour>
        <pt x="654" y="682" on="1"/>
        <pt x="591" y="682" on="1"/>
        <pt x="591" y="0" on="1"/>
        <pt x="493" y="0" on="1"/>
        <pt x="210" y="584" on="1"/>
        <pt x="210" y="68" on="1"/>
        <pt x="275" y="68" on="1"/>
        <pt x="275" y="0" on="1"/>
        <pt x="65" y="0" on="1"/>
        <pt x="65" y="68" on="1"/>
        <pt x="128" y="68" on="1"/>
        <pt x="128" y="682" on="1"/>
        <pt x="65" y="682" on="1"/>
        <pt x="65" y="750" on="1"/>
        <pt x="219" y="750" on="1"/>
        <pt x="509" y="154" on="1"/>
        <pt x="509" y="682" on="1"/>
        <pt x="444" y="682" on="1"/>
        <pt x="444" y="750" on="1"/>
        <pt x="654" y="750" on="1"/>
      </contour>
    </TTGlyph>
    <TTGlyph name="Nacute" xMin="65" yMin="0" xMax="654" yMax="932">
      <contour>
        <pt x="654" y="750" on="1"/>
        <pt x="444" y="750" on="1"/>
        <pt x="444" y="682" on="1"/>
        <pt x="509" y="682" on="1"/>
        <pt x="509" y="154" on="1"/>
        <pt x="219" y="750" on="1"/>
        <pt x="65" y="750" on="1"/>
        <pt x="65" y="682" on="1"/>
        <pt x="128" y="682" on="1"/>
        <pt x="128" y="68" on="1"/>
        <pt x="65" y="68" on="1"/>
        <pt x="65" y="0" on="1"/>
        <pt x="275" y="0" on="1"/>
        <pt x="275" y="68" on="1"/>
        <pt x="210" y="68" on="1"/>
        <pt x="210" y="584" on="1"/>
        <pt x="493" y="0" on="1"/>
        <pt x="591" y="0" on="1"/>
        <pt x="591" y="682" on="1"/>
        <pt x="654" y="682" on="1"/>
      </contour>
      <contour>
        <pt x="377" y="932" on="1"/>
        <pt x="448" y="932" on="1"/>
        <pt x="343" y="809" on="1"/>
        <pt x="270" y="809" on="1"/>
      </contour>
    </TTGlyph>
    <TTGlyph name="Ncaron" xMin="65" yMin="0" xMax="654" yMax="932">
      <contour>
        <pt x="654" y="682" on="1"/>
        <pt x="591" y="682" on="1"/>
        <pt x="591" y="0" on="1"/>
        <pt x="493" y="0" on="1"/>
        <pt x="210" y="584" on="1"/>
        <pt x="210" y="68" on="1"/>
        <pt x="275" y="68" on="1"/>
        <pt x="275" y="0" on="1"/>
        <pt x="65" y="0" on="1"/>
        <pt x="65" y="68" on="1"/>
        <pt x="128" y="68" on="1"/>
        <pt x="128" y="682" on="1"/>
        <pt x="65" y="682" on="1"/>
        <pt x="65" y="750" on="1"/>
        <pt x="219" y="750" on="1"/>
        <pt x="509" y="154" on="1"/>
        <pt x="509" y="682" on="1"/>
        <pt x="444" y="682" on="1"/>
        <pt x="444" y="750" on="1"/>
        <pt x="654" y="750" on="1"/>
      </contour>
      <contour>
        <pt x="395" y="809" on="1"/>
        <pt x="328" y="809" on="1"/>
        <pt x="216" y="932" on="1"/>
        <pt x="290" y="932" on="1"/>
        <pt x="360" y="852" on="1"/>
        <pt x="429" y="932" on="1"/>
        <pt x="502" y="932" on="1"/>
      </contour>
    </TTGlyph>
    <TTGlyph name="Ntilde" xMin="65" yMin="0" xMax="654" yMax="922">
      <contour>
        <pt x="654" y="682" on="1"/>
        <pt x="591" y="682" on="1"/>
        <pt x="591" y="0" on="1"/>
        <pt x="493" y="0" on="1"/>
        <pt x="210" y="584" on="1"/>
        <pt x="210" y="68" on="1"/>
        <pt x="275" y="68" on="1"/>
        <pt x="275" y="0" on="1"/>
        <pt x="65" y="0" on="1"/>
        <pt x="65" y="68" on="1"/>
        <pt x="128" y="68" on="1"/>
        <pt x="128" y="682" on="1"/>
        <pt x="65" y="682" on="1"/>
        <pt x="65" y="750" on="1"/>
        <pt x="219" y="750" on="1"/>
        <pt x="509" y="154" on="1"/>
        <pt x="509" y="682" on="1"/>
        <pt x="444" y="682" on="1"/>
        <pt x="444" y="750" on="1"/>
        <pt x="654" y="750" on="1"/>
      </contour>
      <contour>
        <pt x="524" y="888" on="1"/>
        <pt x="516" y="865" on="0"/>
        <pt x="496" y="846" on="1"/>
        <pt x="456" y="811" on="0"/>
        <pt x="424" y="811" on="1"/>
        <pt x="400" y="811" on="0"/>
        <pt x="337" y="848" on="0"/>
        <pt x="304" y="865" on="0"/>
        <pt x="271" y="865" on="0"/>
        <pt x="249" y="845" on="0"/>
        <pt x="235" y="816" on="1"/>
        <pt x="194" y="846" on="1"/>
        <pt x="201" y="868" on="0"/>
        <pt x="221" y="886" on="1"/>
        <pt x="258" y="922" on="0"/>
        <pt x="306" y="922" on="0"/>
        <pt x="347" y="905" on="0"/>
        <pt x="384" y="884" on="0"/>
        <pt x="414" y="867" on="0"/>
        <pt x="443" y="867" on="0"/>
        <pt x="478" y="897" on="0"/>
        <pt x="486" y="916" on="1"/>
      </contour>
    </TTGlyph>
    <TTGlyph name="O" xMin="60" yMin="0" xMax="482" yMax="750">
      <contour>
        <pt x="366" y="750" on="1"/>
        <pt x="427" y="750" on="0"/>
        <pt x="482" y="683" on="0"/>
        <pt x="482" y="617" on="1"/>
        <pt x="482" y="136" on="1"/>
        <pt x="482" y="64" on="0"/>
        <pt x="434" y="0" on="0"/>
        <pt x="371" y="0" on="1"/>
        <pt x="179" y="0" on="1"/>
        <pt x="83" y="0" on="0"/>
        <pt x="66" y="72" on="1"/>
        <pt x="60" y="94" on="0"/>
        <pt x="60" y="121" on="1"/>
        <pt x="60" y="617" on="1"/>
        <pt x="60" y="684" on="0"/>
        <pt x="82" y="714" on="1"/>
        <pt x="107" y="750" on="0"/>
        <pt x="171" y="750" on="1"/>
      </contour>
      <contour>
        <pt x="140" y="68" on="1"/>
        <pt x="402" y="68" on="1"/>
        <pt x="402" y="682" on="1"/>
        <pt x="140" y="682" on="1"/>
      </contour>
    </TTGlyph>
    <TTGlyph name="OE" xMin="60" yMin="0" xMax="759" yMax="750">
      <contour>
        <pt x="759" y="750" on="1"/>
        <pt x="759" y="565" on="1"/>
        <pt x="691" y="565" on="1"/>
        <pt x="691" y="682" on="1"/>
        <pt x="458" y="682" on="1"/>
        <pt x="458" y="416" on="1"/>
        <pt x="630" y="525" on="1"/>
        <pt x="630" y="444" on="1"/>
        <pt x="458" y="337" on="1"/>
        <pt x="458" y="68" on="1"/>
        <pt x="691" y="68" on="1"/>
        <pt x="691" y="185" on="1"/>
        <pt x="759" y="185" on="1"/>
        <pt x="759" y="0" on="1"/>
        <pt x="179" y="0" on="1"/>
        <pt x="83" y="0" on="0"/>
        <pt x="66" y="72" on="1"/>
        <pt x="60" y="94" on="0"/>
        <pt x="60" y="121" on="1"/>
        <pt x="60" y="617" on="1"/>
        <pt x="60" y="684" on="0"/>
        <pt x="82" y="714" on="1"/>
        <pt x="107" y="750" on="0"/>
        <pt x="171" y="750" on="1"/>
      </contour>
      <contour>
        <pt x="140" y="68" on="1"/>
        <pt x="376" y="68" on="1"/>
        <pt x="376" y="285" on="1"/>
        <pt x="313" y="245" on="1"/>
        <pt x="313" y="326" on="1"/>
        <pt x="376" y="366" on="1"/>
        <pt x="376" y="682" on="1"/>
        <pt x="140" y="682" on="1"/>
      </contour>
    </TTGlyph>
    <TTGlyph name="Oacute" xMin="60" yMin="0" xMax="482" yMax="932">
      <contour>
        <pt x="171" y="750" on="1"/>
        <pt x="79" y="750" on="0"/>
        <pt x="64" y="672" on="1"/>
        <pt x="60" y="648" on="0"/>
        <pt x="60" y="617" on="1"/>
        <pt x="60" y="121" on="1"/>
        <pt x="60" y="32" on="0"/>
        <pt x="122" y="8" on="1"/>
        <pt x="144" y="0" on="0"/>
        <pt x="179" y="0" on="1"/>
        <pt x="371" y="0" on="1"/>
        <pt x="434" y="0" on="0"/>
        <pt x="482" y="64" on="0"/>
        <pt x="482" y="136" on="1"/>
        <pt x="482" y="617" on="1"/>
        <pt x="482" y="683" on="0"/>
        <pt x="427" y="750" on="0"/>
        <pt x="366" y="750" on="1"/>
      </contour>
      <contour>
        <pt x="140" y="682" on="1"/>
        <pt x="402" y="682" on="1"/>
        <pt x="402" y="68" on="1"/>
        <pt x="140" y="68" on="1"/>
      </contour>
      <contour>
        <pt x="289" y="932" on="1"/>
        <pt x="360" y="932" on="1"/>
        <pt x="255" y="809" on="1"/>
        <pt x="182" y="809" on="1"/>
      </contour>
    </TTGlyph>
    <TTGlyph name="Obreve" xMin="60" yMin="0" xMax="482" yMax="947">
      <contour>
        <pt x="366" y="750" on="1"/>
        <pt x="427" y="750" on="0"/>
        <pt x="482" y="683" on="0"/>
        <pt x="482" y="617" on="1"/>
        <pt x="482" y="136" on="1"/>
        <pt x="482" y="64" on="0"/>
        <pt x="434" y="0" on="0"/>
        <pt x="371" y="0" on="1"/>
        <pt x="179" y="0" on="1"/>
        <pt x="83" y="0" on="0"/>
        <pt x="66" y="72" on="1"/>
        <pt x="60" y="94" on="0"/>
        <pt x="60" y="121" on="1"/>
        <pt x="60" y="617" on="1"/>
        <pt x="60" y="684" on="0"/>
        <pt x="82" y="714" on="1"/>
        <pt x="107" y="750" on="0"/>
        <pt x="171" y="750" on="1"/>
      </contour>
      <contour>
        <pt x="140" y="68" on="1"/>
        <pt x="402" y="68" on="1"/>
        <pt x="402" y="682" on="1"/>
        <pt x="140" y="682" on="1"/>
      </contour>
      <contour>
        <pt x="424" y="947" on="1"/>
        <pt x="424" y="882" on="0"/>
        <pt x="379" y="838" on="1"/>
        <pt x="333" y="794" on="0"/>
        <pt x="271" y="794" on="1"/>
        <pt x="207" y="794" on="0"/>
        <pt x="117" y="884" on="0"/>
        <pt x="117" y="947" on="1"/>
        <pt x="170" y="947" on="1"/>
        <pt x="170" y="907" on="0"/>
        <pt x="229" y="848" on="0"/>
        <pt x="271" y="848" on="1"/>
        <pt x="312" y="848" on="0"/>
        <pt x="371" y="907" on="0"/>
        <pt x="371" y="947" on="1"/>
      </contour>
    </TTGlyph>
    <TTGlyph name="Ocircumflex" xMin="60" yMin="0" xMax="482" yMax="932">
      <contour>
        <pt x="366" y="750" on="1"/>
        <pt x="427" y="750" on="0"/>
        <pt x="482" y="683" on="0"/>
        <pt x="482" y="617" on="1"/>
        <pt x="482" y="136" on="1"/>
        <pt x="482" y="64" on="0"/>
        <pt x="434" y="0" on="0"/>
        <pt x="371" y="0" on="1"/>
        <pt x="179" y="0" on="1"/>
        <pt x="83" y="0" on="0"/>
        <pt x="66" y="72" on="1"/>
        <pt x="60" y="94" on="0"/>
        <pt x="60" y="121" on="1"/>
        <pt x="60" y="617" on="1"/>
        <pt x="60" y="684" on="0"/>
        <pt x="82" y="714" on="1"/>
        <pt x="107" y="750" on="0"/>
        <pt x="171" y="750" on="1"/>
      </contour>
      <contour>
        <pt x="140" y="68" on="1"/>
        <pt x="402" y="68" on="1"/>
        <pt x="402" y="682" on="1"/>
        <pt x="140" y="682" on="1"/>
      </contour>
      <contour>
        <pt x="414" y="809" on="1"/>
        <pt x="341" y="809" on="1"/>
        <pt x="272" y="889" on="1"/>
        <pt x="202" y="809" on="1"/>
        <pt x="128" y="809" on="1"/>
        <pt x="240" y="932" on="1"/>
        <pt x="307" y="932" on="1"/>
      </contour>
    </TTGlyph>
    <TTGlyph name="Odieresis" xMin="60" yMin="0" xMax="482" yMax="896">
      <contour>
        <pt x="366" y="750" on="1"/>
        <pt x="427" y="750" on="0"/>
        <pt x="482" y="683" on="0"/>
        <pt x="482" y="617" on="1"/>
        <pt x="482" y="136" on="1"/>
        <pt x="482" y="64" on="0"/>
        <pt x="434" y="0" on="0"/>
        <pt x="371" y="0" on="1"/>
        <pt x="179" y="0" on="1"/>
        <pt x="83" y="0" on="0"/>
        <pt x="66" y="72" on="1"/>
        <pt x="60" y="94" on="0"/>
        <pt x="60" y="121" on="1"/>
        <pt x="60" y="617" on="1"/>
        <pt x="60" y="684" on="0"/>
        <pt x="82" y="714" on="1"/>
        <pt x="107" y="750" on="0"/>
        <pt x="171" y="750" on="1"/>
      </contour>
      <contour>
        <pt x="140" y="68" on="1"/>
        <pt x="402" y="68" on="1"/>
        <pt x="402" y="682" on="1"/>
        <pt x="140" y="682" on="1"/>
      </contour>
      <contour>
        <pt x="215" y="896" on="0"/>
        <pt x="240" y="869" on="0"/>
        <pt x="240" y="833" on="0"/>
        <pt x="215" y="808" on="0"/>
        <pt x="179" y="808" on="0"/>
        <pt x="154" y="833" on="0"/>
        <pt x="154" y="869" on="0"/>
        <pt x="180" y="896" on="0"/>
      </contour>
      <contour>
        <pt x="363" y="896" on="0"/>
        <pt x="388" y="869" on="0"/>
        <pt x="388" y="833" on="0"/>
        <pt x="363" y="808" on="0"/>
        <pt x="327" y="808" on="0"/>
        <pt x="302" y="833" on="0"/>
        <pt x="302" y="869" on="0"/>
        <pt x="328" y="896" on="0"/>
      </contour>
    </TTGlyph>
    <TTGlyph name="Ograve" xMin="60" yMin="0" xMax="482" yMax="932">
      <contour>
        <pt x="366" y="750" on="1"/>
        <pt x="427" y="750" on="0"/>
        <pt x="482" y="683" on="0"/>
        <pt x="482" y="617" on="1"/>
        <pt x="482" y="136" on="1"/>
        <pt x="482" y="64" on="0"/>
        <pt x="434" y="0" on="0"/>
        <pt x="371" y="0" on="1"/>
        <pt x="179" y="0" on="1"/>
        <pt x="83" y="0" on="0"/>
        <pt x="66" y="72" on="1"/>
        <pt x="60" y="94" on="0"/>
        <pt x="60" y="121" on="1"/>
        <pt x="60" y="617" on="1"/>
        <pt x="60" y="684" on="0"/>
        <pt x="82" y="714" on="1"/>
        <pt x="107" y="750" on="0"/>
        <pt x="171" y="750" on="1"/>
      </contour>
      <contour>
        <pt x="140" y="68" on="1"/>
        <pt x="402" y="68" on="1"/>
        <pt x="402" y="682" on="1"/>
        <pt x="140" y="682" on="1"/>
      </contour>
      <contour>
        <pt x="360" y="809" on="1"/>
        <pt x="287" y="809" on="1"/>
        <pt x="182" y="932" on="1"/>
        <pt x="253" y="932" on="1"/>
      </contour>
    </TTGlyph>
    <TTGlyph name="Ohungarumlaut" xMin="60" yMin="0" xMax="482" yMax="932">
      <contour>
        <pt x="171" y="750" on="1"/>
        <pt x="79" y="750" on="0"/>
        <pt x="64" y="672" on="1"/>
        <pt x="60" y="648" on="0"/>
        <pt x="60" y="617" on="1"/>
        <pt x="60" y="121" on="1"/>
        <pt x="60" y="32" on="0"/>
        <pt x="122" y="8" on="1"/>
        <pt x="144" y="0" on="0"/>
        <pt x="179" y="0" on="1"/>
        <pt x="371" y="0" on="1"/>
        <pt x="434" y="0" on="0"/>
        <pt x="482" y="64" on="0"/>
        <pt x="482" y="136" on="1"/>
        <pt x="482" y="617" on="1"/>
        <pt x="482" y="683" on="0"/>
        <pt x="427" y="750" on="0"/>
        <pt x="366" y="750" on="1"/>
      </contour>
      <contour>
        <pt x="140" y="682" on="1"/>
        <pt x="402" y="682" on="1"/>
        <pt x="402" y="68" on="1"/>
        <pt x="140" y="68" on="1"/>
      </contour>
      <contour>
        <pt x="214" y="932" on="1"/>
        <pt x="285" y="932" on="1"/>
        <pt x="180" y="809" on="1"/>
        <pt x="107" y="809" on="1"/>
      </contour>
      <contour>
        <pt x="363" y="932" on="1"/>
        <pt x="434" y="932" on="1"/>
        <pt x="329" y="809" on="1"/>
        <pt x="256" y="809" on="1"/>
      </contour>
    </TTGlyph>
    <TTGlyph name="Omacron" xMin="60" yMin="0" xMax="482" yMax="888">
      <contour>
        <pt x="366" y="750" on="1"/>
        <pt x="427" y="750" on="0"/>
        <pt x="482" y="683" on="0"/>
        <pt x="482" y="617" on="1"/>
        <pt x="482" y="136" on="1"/>
        <pt x="482" y="64" on="0"/>
        <pt x="434" y="0" on="0"/>
        <pt x="371" y="0" on="1"/>
        <pt x="179" y="0" on="1"/>
        <pt x="83" y="0" on="0"/>
        <pt x="66" y="72" on="1"/>
        <pt x="60" y="94" on="0"/>
        <pt x="60" y="121" on="1"/>
        <pt x="60" y="617" on="1"/>
        <pt x="60" y="684" on="0"/>
        <pt x="82" y="714" on="1"/>
        <pt x="107" y="750" on="0"/>
        <pt x="171" y="750" on="1"/>
      </contour>
      <contour>
        <pt x="140" y="68" on="1"/>
        <pt x="402" y="68" on="1"/>
        <pt x="402" y="682" on="1"/>
        <pt x="140" y="682" on="1"/>
      </contour>
      <contour>
        <pt x="143" y="888" on="1"/>
        <pt x="398" y="888" on="1"/>
        <pt x="398" y="825" on="1"/>
        <pt x="143" y="825" on="1"/>
      </contour>
    </TTGlyph>
    <TTGlyph name="Oslash" xMin="60" yMin="-76" xMax="482" yMax="817">
      <contour>
        <pt x="131" y="5" on="1"/>
        <pt x="90" y="16" on="0"/>
        <pt x="60" y="77" on="0"/>
        <pt x="60" y="121" on="1"/>
        <pt x="60" y="617" on="1"/>
        <pt x="60" y="684" on="0"/>
        <pt x="82" y="714" on="1"/>
        <pt x="107" y="750" on="0"/>
        <pt x="171" y="750" on="1"/>
        <pt x="343" y="750" on="1"/>
        <pt x="362" y="817" on="1"/>
        <pt x="429" y="817" on="1"/>
        <pt x="408" y="744" on="1"/>
        <pt x="482" y="724" on="0"/>
        <pt x="482" y="617" on="1"/>
        <pt x="482" y="136" on="1"/>
        <pt x="482" y="64" on="0"/>
        <pt x="434" y="0" on="0"/>
        <pt x="371" y="0" on="1"/>
        <pt x="197" y="0" on="1"/>
        <pt x="176" y="-76" on="1"/>
        <pt x="108" y="-76" on="1"/>
      </contour>
      <contour>
        <pt x="391" y="682" on="1"/>
        <pt x="217" y="68" on="1"/>
        <pt x="402" y="68" on="1"/>
        <pt x="402" y="682" on="1"/>
      </contour>
      <contour>
        <pt x="140" y="68" on="1"/>
        <pt x="149" y="68" on="1"/>
        <pt x="323" y="682" on="1"/>
        <pt x="140" y="682" on="1"/>
      </contour>
    </TTGlyph>
    <TTGlyph name="Oslashacute" xMin="60" yMin="-150" xMax="482" yMax="932">
      <contour>
        <pt x="66" y="-150" on="1"/>
        <pt x="144" y="-150" on="1"/>
        <pt x="192" y="0" on="1"/>
        <pt x="371" y="0" on="1"/>
        <pt x="434" y="0" on="0"/>
        <pt x="482" y="64" on="0"/>
        <pt x="482" y="136" on="1"/>
        <pt x="482" y="617" on="1"/>
        <pt x="482" y="707" on="0"/>
        <pt x="431" y="736" on="1"/>
        <pt x="475" y="870" on="1"/>
        <pt x="398" y="870" on="1"/>
        <pt x="359" y="750" on="1"/>
        <pt x="171" y="750" on="1"/>
        <pt x="79" y="750" on="0"/>
        <pt x="64" y="672" on="1"/>
        <pt x="60" y="648" on="0"/>
        <pt x="60" y="617" on="1"/>
        <pt x="60" y="121" on="1"/>
        <pt x="60" y="80" on="0"/>
        <pt x="85" y="23" on="0"/>
        <pt x="118" y="10" on="1"/>
      </contour>
      <contour>
        <pt x="140" y="682" on="1"/>
        <pt x="337" y="682" on="1"/>
        <pt x="140" y="77" on="1"/>
      </contour>
      <contour>
        <pt x="214" y="68" on="1"/>
        <pt x="402" y="645" on="1"/>
        <pt x="402" y="68" on="1"/>
      </contour>
      <contour>
        <pt x="289" y="932" on="1"/>
        <pt x="360" y="932" on="1"/>
        <pt x="255" y="809" on="1"/>
        <pt x="182" y="809" on="1"/>
      </contour>
    </TTGlyph>
    <TTGlyph name="Otilde" xMin="60" yMin="0" xMax="482" yMax="922">
      <contour>
        <pt x="366" y="750" on="1"/>
        <pt x="427" y="750" on="0"/>
        <pt x="482" y="683" on="0"/>
        <pt x="482" y="617" on="1"/>
        <pt x="482" y="136" on="1"/>
        <pt x="482" y="64" on="0"/>
        <pt x="434" y="0" on="0"/>
        <pt x="371" y="0" on="1"/>
        <pt x="179" y="0" on="1"/>
        <pt x="83" y="0" on="0"/>
        <pt x="66" y="72" on="1"/>
        <pt x="60" y="94" on="0"/>
        <pt x="60" y="121" on="1"/>
        <pt x="60" y="617" on="1"/>
        <pt x="60" y="684" on="0"/>
        <pt x="82" y="714" on="1"/>
        <pt x="107" y="750" on="0"/>
        <pt x="171" y="750" on="1"/>
      </contour>
      <contour>
        <pt x="140" y="68" on="1"/>
        <pt x="402" y="68" on="1"/>
        <pt x="402" y="682" on="1"/>
        <pt x="140" y="682" on="1"/>
      </contour>
      <contour>
        <pt x="436" y="888" on="1"/>
        <pt x="428" y="865" on="0"/>
        <pt x="408" y="846" on="1"/>
        <pt x="368" y="811" on="0"/>
        <pt x="336" y="811" on="1"/>
        <pt x="312" y="811" on="0"/>
        <pt x="249" y="848" on="0"/>
        <pt x="216" y="865" on="0"/>
        <pt x="183" y="865" on="0"/>
        <pt x="161" y="845" on="0"/>
        <pt x="147" y="816" on="1"/>
        <pt x="106" y="846" on="1"/>
        <pt x="113" y="868" on="0"/>
        <pt x="133" y="886" on="1"/>
        <pt x="170" y="922" on="0"/>
        <pt x="218" y="922" on="0"/>
        <pt x="259" y="905" on="0"/>
        <pt x="296" y="884" on="0"/>
        <pt x="326" y="867" on="0"/>
        <pt x="355" y="867" on="0"/>
        <pt x="390" y="897" on="0"/>
        <pt x="398" y="916" on="1"/>
      </contour>
    </TTGlyph>
    <TTGlyph name="P" xMin="65" yMin="0" xMax="534" yMax="750">
      <contour>
        <pt x="422" y="750" on="1"/>
        <pt x="488" y="750" on="0"/>
        <pt x="511" y="725" on="1"/>
        <pt x="534" y="700" on="0"/>
        <pt x="534" y="626" on="1"/>
        <pt x="534" y="553" on="1"/>
        <pt x="534" y="496" on="0"/>
        <pt x="510" y="470" on="1"/>
        <pt x="498" y="457" on="0"/>
        <pt x="459" y="433" on="0"/>
        <pt x="431" y="416" on="1"/>
        <pt x="210" y="278" on="1"/>
        <pt x="210" y="68" on="1"/>
        <pt x="275" y="68" on="1"/>
        <pt x="275" y="0" on="1"/>
        <pt x="65" y="0" on="1"/>
        <pt x="65" y="68" on="1"/>
        <pt x="128" y="68" on="1"/>
        <pt x="128" y="681" on="1"/>
        <pt x="65" y="681" on="1"/>
        <pt x="65" y="750" on="1"/>
      </contour>
      <contour>
        <pt x="461" y="681" on="1"/>
        <pt x="210" y="681" on="1"/>
        <pt x="210" y="358" on="1"/>
        <pt x="461" y="513" on="1"/>
      </contour>
    </TTGlyph>
    <TTGlyph name="Q" xMin="60" yMin="-60" xMax="482" yMax="750">
      <contour>
        <pt x="366" y="750" on="1"/>
        <pt x="427" y="750" on="0"/>
        <pt x="482" y="683" on="0"/>
        <pt x="482" y="617" on="1"/>
        <pt x="482" y="136" on="1"/>
        <pt x="482" y="64" on="0"/>
        <pt x="434" y="0" on="0"/>
        <pt x="371" y="0" on="1"/>
        <pt x="311" y="0" on="1"/>
        <pt x="311" y="-60" on="1"/>
        <pt x="231" y="-60" on="1"/>
        <pt x="231" y="0" on="1"/>
        <pt x="179" y="0" on="1"/>
        <pt x="83" y="0" on="0"/>
        <pt x="66" y="72" on="1"/>
        <pt x="60" y="94" on="0"/>
        <pt x="60" y="121" on="1"/>
        <pt x="60" y="617" on="1"/>
        <pt x="60" y="684" on="0"/>
        <pt x="82" y="714" on="1"/>
        <pt x="107" y="750" on="0"/>
        <pt x="171" y="750" on="1"/>
      </contour>
      <contour>
        <pt x="231" y="118" on="1"/>
        <pt x="311" y="118" on="1"/>
        <pt x="311" y="68" on="1"/>
        <pt x="402" y="68" on="1"/>
        <pt x="402" y="682" on="1"/>
        <pt x="140" y="682" on="1"/>
        <pt x="140" y="68" on="1"/>
        <pt x="231" y="68" on="1"/>
      </contour>
    </TTGlyph>
    <TTGlyph name="R" xMin="65" yMin="0" xMax="631" yMax="750">
      <contour>
        <pt x="631" y="68" on="1"/>
        <pt x="631" y="0" on="1"/>
        <pt x="433" y="0" on="1"/>
        <pt x="433" y="68" on="1"/>
        <pt x="487" y="68" on="1"/>
        <pt x="316" y="343" on="1"/>
        <pt x="210" y="278" on="1"/>
        <pt x="210" y="68" on="1"/>
        <pt x="275" y="68" on="1"/>
        <pt x="275" y="0" on="1"/>
        <pt x="65" y="0" on="1"/>
        <pt x="65" y="68" on="1"/>
        <pt x="128" y="68" on="1"/>
        <pt x="128" y="682" on="1"/>
        <pt x="65" y="682" on="1"/>
        <pt x="65" y="750" on="1"/>
        <pt x="422" y="750" on="1"/>
        <pt x="488" y="750" on="0"/>
        <pt x="534" y="699" on="0"/>
        <pt x="534" y="625" on="1"/>
        <pt x="534" y="563" on="1"/>
        <pt x="534" y="525" on="0"/>
        <pt x="520" y="481" on="0"/>
        <pt x="484" y="446" on="0"/>
        <pt x="424" y="410" on="0"/>
        <pt x="378" y="382" on="1"/>
        <pt x="575" y="68" on="1"/>
      </contour>
      <contour>
        <pt x="210" y="358" on="1"/>
        <pt x="461" y="513" on="1"/>
        <pt x="461" y="682" on="1"/>
        <pt x="210" y="682" on="1"/>
      </contour>
    </TTGlyph>
    <TTGlyph name="Racute" xMin="65" yMin="0" xMax="631" yMax="932">
      <contour>
        <pt x="575" y="68" on="1"/>
        <pt x="378" y="382" on="1"/>
        <pt x="424" y="410" on="0"/>
        <pt x="484" y="446" on="0"/>
        <pt x="520" y="481" on="0"/>
        <pt x="534" y="525" on="0"/>
        <pt x="534" y="563" on="1"/>
        <pt x="534" y="625" on="1"/>
        <pt x="534" y="699" on="0"/>
        <pt x="488" y="750" on="0"/>
        <pt x="422" y="750" on="1"/>
        <pt x="65" y="750" on="1"/>
        <pt x="65" y="682" on="1"/>
        <pt x="128" y="682" on="1"/>
        <pt x="128" y="68" on="1"/>
        <pt x="65" y="68" on="1"/>
        <pt x="65" y="0" on="1"/>
        <pt x="275" y="0" on="1"/>
        <pt x="275" y="68" on="1"/>
        <pt x="210" y="68" on="1"/>
        <pt x="210" y="278" on="1"/>
        <pt x="316" y="343" on="1"/>
        <pt x="487" y="68" on="1"/>
        <pt x="433" y="68" on="1"/>
        <pt x="433" y="0" on="1"/>
        <pt x="631" y="0" on="1"/>
        <pt x="631" y="68" on="1"/>
      </contour>
      <contour>
        <pt x="210" y="682" on="1"/>
        <pt x="461" y="682" on="1"/>
        <pt x="461" y="513" on="1"/>
        <pt x="210" y="358" on="1"/>
      </contour>
      <contour>
        <pt x="341" y="932" on="1"/>
        <pt x="412" y="932" on="1"/>
        <pt x="307" y="809" on="1"/>
        <pt x="234" y="809" on="1"/>
      </contour>
    </TTGlyph>
    <TTGlyph name="Rcaron" xMin="65" yMin="0" xMax="631" yMax="932">
      <contour>
        <pt x="631" y="68" on="1"/>
        <pt x="631" y="0" on="1"/>
        <pt x="433" y="0" on="1"/>
        <pt x="433" y="68" on="1"/>
        <pt x="487" y="68" on="1"/>
        <pt x="316" y="343" on="1"/>
        <pt x="210" y="278" on="1"/>
        <pt x="210" y="68" on="1"/>
        <pt x="275" y="68" on="1"/>
        <pt x="275" y="0" on="1"/>
        <pt x="65" y="0" on="1"/>
        <pt x="65" y="68" on="1"/>
        <pt x="128" y="68" on="1"/>
        <pt x="128" y="682" on="1"/>
        <pt x="65" y="682" on="1"/>
        <pt x="65" y="750" on="1"/>
        <pt x="422" y="750" on="1"/>
        <pt x="488" y="750" on="0"/>
        <pt x="534" y="699" on="0"/>
        <pt x="534" y="625" on="1"/>
        <pt x="534" y="563" on="1"/>
        <pt x="534" y="525" on="0"/>
        <pt x="520" y="481" on="0"/>
        <pt x="484" y="446" on="0"/>
        <pt x="424" y="410" on="0"/>
        <pt x="378" y="382" on="1"/>
        <pt x="575" y="68" on="1"/>
      </contour>
      <contour>
        <pt x="210" y="358" on="1"/>
        <pt x="461" y="513" on="1"/>
        <pt x="461" y="682" on="1"/>
        <pt x="210" y="682" on="1"/>
      </contour>
      <contour>
        <pt x="359" y="809" on="1"/>
        <pt x="292" y="809" on="1"/>
        <pt x="180" y="932" on="1"/>
        <pt x="254" y="932" on="1"/>
        <pt x="324" y="852" on="1"/>
        <pt x="393" y="932" on="1"/>
        <pt x="466" y="932" on="1"/>
      </contour>
    </TTGlyph>
    <TTGlyph name="S" xMin="60" yMin="0" xMax="482" yMax="750">
      <contour>
        <pt x="388" y="367" on="1"/>
        <pt x="408" y="353" on="0"/>
        <pt x="443" y="332" on="0"/>
        <pt x="456" y="320" on="1"/>
        <pt x="482" y="296" on="0"/>
        <pt x="482" y="261" on="1"/>
        <pt x="482" y="91" on="1"/>
        <pt x="482" y="46" on="0"/>
        <pt x="450" y="22" on="1"/>
        <pt x="423" y="0" on="0"/>
        <pt x="379" y="0" on="1"/>
        <pt x="60" y="0" on="1"/>
        <pt x="60" y="185" on="1"/>
        <pt x="132" y="185" on="1"/>
        <pt x="132" y="68" on="1"/>
        <pt x="402" y="68" on="1"/>
        <pt x="402" y="263" on="1"/>
        <pt x="140" y="424" on="1"/>
        <pt x="105" y="444" on="0"/>
        <pt x="60" y="487" on="0"/>
        <pt x="60" y="524" on="1"/>
        <pt x="60" y="650" on="1"/>
        <pt x="60" y="709" on="0"/>
        <pt x="88" y="731" on="1"/>
        <pt x="112" y="750" on="0"/>
        <pt x="171" y="750" on="1"/>
        <pt x="473" y="750" on="1"/>
        <pt x="473" y="565" on="1"/>
        <pt x="401" y="565" on="1"/>
        <pt x="401" y="682" on="1"/>
        <pt x="140" y="682" on="1"/>
        <pt x="140" y="522" on="1"/>
      </contour>
    </TTGlyph>
    <TTGlyph name="Sacute" xMin="60" yMin="0" xMax="482" yMax="932">
      <contour>
        <pt x="140" y="522" on="1"/>
        <pt x="140" y="682" on="1"/>
        <pt x="401" y="682" on="1"/>
        <pt x="401" y="565" on="1"/>
        <pt x="473" y="565" on="1"/>
        <pt x="473" y="750" on="1"/>
        <pt x="171" y="750" on="1"/>
        <pt x="112" y="750" on="0"/>
        <pt x="88" y="731" on="1"/>
        <pt x="60" y="709" on="0"/>
        <pt x="60" y="650" on="1"/>
        <pt x="60" y="524" on="1"/>
        <pt x="60" y="487" on="0"/>
        <pt x="105" y="444" on="0"/>
        <pt x="140" y="424" on="1"/>
        <pt x="402" y="263" on="1"/>
        <pt x="402" y="68" on="1"/>
        <pt x="132" y="68" on="1"/>
        <pt x="132" y="185" on="1"/>
        <pt x="60" y="185" on="1"/>
        <pt x="60" y="0" on="1"/>
        <pt x="379" y="0" on="1"/>
        <pt x="448" y="0" on="0"/>
        <pt x="474" y="50" on="1"/>
        <pt x="482" y="67" on="0"/>
        <pt x="482" y="91" on="1"/>
        <pt x="482" y="261" on="1"/>
        <pt x="482" y="309" on="0"/>
        <pt x="426" y="342" on="1"/>
        <pt x="408" y="353" on="0"/>
        <pt x="388" y="367" on="1"/>
      </contour>
      <contour>
        <pt x="289" y="932" on="1"/>
        <pt x="360" y="932" on="1"/>
        <pt x="255" y="809" on="1"/>
        <pt x="182" y="809" on="1"/>
      </contour>
    </TTGlyph>
    <TTGlyph name="Scaron" xMin="60" yMin="0" xMax="482" yMax="932">
      <contour>
        <pt x="388" y="367" on="1"/>
        <pt x="408" y="353" on="0"/>
        <pt x="443" y="332" on="0"/>
        <pt x="456" y="320" on="1"/>
        <pt x="482" y="296" on="0"/>
        <pt x="482" y="261" on="1"/>
        <pt x="482" y="91" on="1"/>
        <pt x="482" y="46" on="0"/>
        <pt x="450" y="22" on="1"/>
        <pt x="423" y="0" on="0"/>
        <pt x="379" y="0" on="1"/>
        <pt x="60" y="0" on="1"/>
        <pt x="60" y="185" on="1"/>
        <pt x="132" y="185" on="1"/>
        <pt x="132" y="68" on="1"/>
        <pt x="402" y="68" on="1"/>
        <pt x="402" y="263" on="1"/>
        <pt x="140" y="424" on="1"/>
        <pt x="105" y="444" on="0"/>
        <pt x="60" y="487" on="0"/>
        <pt x="60" y="524" on="1"/>
        <pt x="60" y="650" on="1"/>
        <pt x="60" y="709" on="0"/>
        <pt x="88" y="731" on="1"/>
        <pt x="112" y="750" on="0"/>
        <pt x="171" y="750" on="1"/>
        <pt x="473" y="750" on="1"/>
        <pt x="473" y="565" on="1"/>
        <pt x="401" y="565" on="1"/>
        <pt x="401" y="682" on="1"/>
        <pt x="140" y="682" on="1"/>
        <pt x="140" y="522" on="1"/>
      </contour>
      <contour>
        <pt x="307" y="809" on="1"/>
        <pt x="240" y="809" on="1"/>
        <pt x="128" y="932" on="1"/>
        <pt x="202" y="932" on="1"/>
        <pt x="272" y="852" on="1"/>
        <pt x="341" y="932" on="1"/>
        <pt x="414" y="932" on="1"/>
      </contour>
    </TTGlyph>
    <TTGlyph name="Scedilla" xMin="60" yMin="-217" xMax="482" yMax="750">
      <contour>
        <pt x="186" y="0" on="1"/>
        <pt x="60" y="0" on="1"/>
        <pt x="60" y="185" on="1"/>
        <pt x="132" y="185" on="1"/>
        <pt x="132" y="68" on="1"/>
        <pt x="402" y="68" on="1"/>
        <pt x="402" y="263" on="1"/>
        <pt x="140" y="424" on="1"/>
        <pt x="105" y="444" on="0"/>
        <pt x="60" y="487" on="0"/>
        <pt x="60" y="524" on="1"/>
        <pt x="60" y="650" on="1"/>
        <pt x="60" y="709" on="0"/>
        <pt x="88" y="731" on="1"/>
        <pt x="112" y="750" on="0"/>
        <pt x="171" y="750" on="1"/>
        <pt x="473" y="750" on="1"/>
        <pt x="473" y="565" on="1"/>
        <pt x="401" y="565" on="1"/>
        <pt x="401" y="682" on="1"/>
        <pt x="140" y="682" on="1"/>
        <pt x="140" y="522" on="1"/>
        <pt x="388" y="367" on="1"/>
        <pt x="408" y="353" on="0"/>
        <pt x="443" y="332" on="0"/>
        <pt x="456" y="320" on="1"/>
        <pt x="482" y="296" on="0"/>
        <pt x="482" y="261" on="1"/>
        <pt x="482" y="91" on="1"/>
        <pt x="482" y="46" on="0"/>
        <pt x="450" y="22" on="1"/>
        <pt x="423" y="0" on="0"/>
        <pt x="379" y="0" on="1"/>
        <pt x="245" y="0" on="1"/>
        <pt x="245" y="-42" on="1"/>
        <pt x="282" y="-42" on="1"/>
        <pt x="320" y="-42" on="0"/>
        <pt x="356" y="-80" on="0"/>
        <pt x="356" y="-112" on="1"/>
        <pt x="356" y="-149" on="1"/>
        <pt x="356" y="-177" on="0"/>
        <pt x="330" y="-217" on="0"/>
        <pt x="288" y="-217" on="1"/>
        <pt x="186" y="-217" on="1"/>
        <pt x="186" y="-164" on="1"/>
        <pt x="294" y="-164" on="1"/>
        <pt x="294" y="-97" on="1"/>
        <pt x="186" y="-97" on="1"/>
      </contour>
    </TTGlyph>
    <TTGlyph name="Scircumflex" xMin="60" yMin="0" xMax="482" yMax="932">
      <contour>
        <pt x="388" y="367" on="1"/>
        <pt x="408" y="353" on="0"/>
        <pt x="443" y="332" on="0"/>
        <pt x="456" y="320" on="1"/>
        <pt x="482" y="296" on="0"/>
        <pt x="482" y="261" on="1"/>
        <pt x="482" y="91" on="1"/>
        <pt x="482" y="46" on="0"/>
        <pt x="450" y="22" on="1"/>
        <pt x="423" y="0" on="0"/>
        <pt x="379" y="0" on="1"/>
        <pt x="60" y="0" on="1"/>
        <pt x="60" y="185" on="1"/>
        <pt x="132" y="185" on="1"/>
        <pt x="132" y="68" on="1"/>
        <pt x="402" y="68" on="1"/>
        <pt x="402" y="263" on="1"/>
        <pt x="140" y="424" on="1"/>
        <pt x="105" y="444" on="0"/>
        <pt x="60" y="487" on="0"/>
        <pt x="60" y="524" on="1"/>
        <pt x="60" y="650" on="1"/>
        <pt x="60" y="709" on="0"/>
        <pt x="88" y="731" on="1"/>
        <pt x="112" y="750" on="0"/>
        <pt x="171" y="750" on="1"/>
        <pt x="473" y="750" on="1"/>
        <pt x="473" y="565" on="1"/>
        <pt x="401" y="565" on="1"/>
        <pt x="401" y="682" on="1"/>
        <pt x="140" y="682" on="1"/>
        <pt x="140" y="522" on="1"/>
      </contour>
      <contour>
        <pt x="414" y="809" on="1"/>
        <pt x="341" y="809" on="1"/>
        <pt x="272" y="889" on="1"/>
        <pt x="202" y="809" on="1"/>
        <pt x="128" y="809" on="1"/>
        <pt x="240" y="932" on="1"/>
        <pt x="307" y="932" on="1"/>
      </contour>
    </TTGlyph>
    <TTGlyph name="T" xMin="25" yMin="0" xMax="504" yMax="750">
      <contour>
        <pt x="160" y="68" on="1"/>
        <pt x="223" y="68" on="1"/>
        <pt x="223" y="682" on="1"/>
        <pt x="97" y="682" on="1"/>
        <pt x="97" y="564" on="1"/>
        <pt x="25" y="564" on="1"/>
        <pt x="25" y="750" on="1"/>
        <pt x="504" y="750" on="1"/>
        <pt x="504" y="564" on="1"/>
        <pt x="431" y="564" on="1"/>
        <pt x="431" y="682" on="1"/>
        <pt x="305" y="682" on="1"/>
        <pt x="305" y="68" on="1"/>
        <pt x="370" y="68" on="1"/>
        <pt x="370" y="0" on="1"/>
        <pt x="160" y="0" on="1"/>
      </contour>
    </TTGlyph>
    <TTGlyph name="Tbar" xMin="25" yMin="0" xMax="504" yMax="750">
      <contour>
        <pt x="137" y="419" on="1"/>
        <pt x="223" y="419" on="1"/>
        <pt x="223" y="682" on="1"/>
        <pt x="97" y="682" on="1"/>
        <pt x="97" y="564" on="1"/>
        <pt x="25" y="564" on="1"/>
        <pt x="25" y="750" on="1"/>
        <pt x="504" y="750" on="1"/>
        <pt x="504" y="564" on="1"/>
        <pt x="431" y="564" on="1"/>
        <pt x="431" y="682" on="1"/>
        <pt x="305" y="682" on="1"/>
        <pt x="305" y="419" on="1"/>
        <pt x="392" y="419" on="1"/>
        <pt x="392" y="356" on="1"/>
        <pt x="305" y="356" on="1"/>
        <pt x="305" y="68" on="1"/>
        <pt x="370" y="68" on="1"/>
        <pt x="370" y="0" on="1"/>
        <pt x="160" y="0" on="1"/>
        <pt x="160" y="68" on="1"/>
        <pt x="223" y="68" on="1"/>
        <pt x="223" y="356" on="1"/>
        <pt x="137" y="356" on="1"/>
      </contour>
    </TTGlyph>
    <TTGlyph name="Tcaron" xMin="25" yMin="0" xMax="504" yMax="932">
      <contour>
        <pt x="160" y="68" on="1"/>
        <pt x="223" y="68" on="1"/>
        <pt x="223" y="682" on="1"/>
        <pt x="97" y="682" on="1"/>
        <pt x="97" y="564" on="1"/>
        <pt x="25" y="564" on="1"/>
        <pt x="25" y="750" on="1"/>
        <pt x="504" y="750" on="1"/>
        <pt x="504" y="564" on="1"/>
        <pt x="431" y="564" on="1"/>
        <pt x="431" y="682" on="1"/>
        <pt x="305" y="682" on="1"/>
        <pt x="305" y="68" on="1"/>
        <pt x="370" y="68" on="1"/>
        <pt x="370" y="0" on="1"/>
        <pt x="160" y="0" on="1"/>
      </contour>
      <contour>
        <pt x="300" y="809" on="1"/>
        <pt x="233" y="809" on="1"/>
        <pt x="121" y="932" on="1"/>
        <pt x="195" y="932" on="1"/>
        <pt x="265" y="852" on="1"/>
        <pt x="334" y="932" on="1"/>
        <pt x="407" y="932" on="1"/>
      </contour>
    </TTGlyph>
    <TTGlyph name="Thorn" xMin="65" yMin="0" xMax="534" yMax="750">
      <contour>
        <pt x="422" y="619" on="1"/>
        <pt x="488" y="619" on="0"/>
        <pt x="511" y="594" on="1"/>
        <pt x="534" y="569" on="0"/>
        <pt x="534" y="495" on="1"/>
        <pt x="534" y="422" on="1"/>
        <pt x="534" y="365" on="0"/>
        <pt x="510" y="340" on="1"/>
        <pt x="498" y="326" on="0"/>
        <pt x="459" y="302" on="0"/>
        <pt x="431" y="285" on="1"/>
        <pt x="210" y="147" on="1"/>
        <pt x="210" y="68" on="1"/>
        <pt x="275" y="68" on="1"/>
        <pt x="275" y="0" on="1"/>
        <pt x="65" y="0" on="1"/>
        <pt x="65" y="68" on="1"/>
        <pt x="128" y="68" on="1"/>
        <pt x="128" y="681" on="1"/>
        <pt x="65" y="681" on="1"/>
        <pt x="65" y="750" on="1"/>
        <pt x="275" y="750" on="1"/>
        <pt x="275" y="681" on="1"/>
        <pt x="211" y="681" on="1"/>
        <pt x="211" y="619" on="1"/>
      </contour>
      <contour>
        <pt x="461" y="550" on="1"/>
        <pt x="210" y="550" on="1"/>
        <pt x="210" y="227" on="1"/>
        <pt x="461" y="382" on="1"/>
      </contour>
    </TTGlyph>
    <TTGlyph name="U" xMin="60" yMin="0" xMax="622" yMax="750">
      <contour>
        <pt x="212" y="0" on="1"/>
        <pt x="123" y="0" on="0"/>
        <pt x="123" y="99" on="1"/>
        <pt x="123" y="682" on="1"/>
        <pt x="60" y="682" on="1"/>
        <pt x="60" y="750" on="1"/>
        <pt x="270" y="750" on="1"/>
        <pt x="270" y="682" on="1"/>
        <pt x="205" y="682" on="1"/>
        <pt x="205" y="68" on="1"/>
        <pt x="477" y="68" on="1"/>
        <pt x="477" y="682" on="1"/>
        <pt x="412" y="682" on="1"/>
        <pt x="412" y="750" on="1"/>
        <pt x="622" y="750" on="1"/>
        <pt x="622" y="682" on="1"/>
        <pt x="559" y="682" on="1"/>
        <pt x="559" y="104" on="1"/>
        <pt x="559" y="0" on="0"/>
        <pt x="469" y="0" on="1"/>
      </contour>
    </TTGlyph>
    <TTGlyph name="Uacute" xMin="60" yMin="0" xMax="622" yMax="932">
      <contour>
        <pt x="469" y="0" on="1"/>
        <pt x="559" y="0" on="0"/>
        <pt x="559" y="104" on="1"/>
        <pt x="559" y="682" on="1"/>
        <pt x="622" y="682" on="1"/>
        <pt x="622" y="750" on="1"/>
        <pt x="412" y="750" on="1"/>
        <pt x="412" y="682" on="1"/>
        <pt x="477" y="682" on="1"/>
        <pt x="477" y="68" on="1"/>
        <pt x="205" y="68" on="1"/>
        <pt x="205" y="682" on="1"/>
        <pt x="270" y="682" on="1"/>
        <pt x="270" y="750" on="1"/>
        <pt x="60" y="750" on="1"/>
        <pt x="60" y="682" on="1"/>
        <pt x="123" y="682" on="1"/>
        <pt x="123" y="99" on="1"/>
        <pt x="123" y="0" on="0"/>
        <pt x="212" y="0" on="1"/>
      </contour>
      <contour>
        <pt x="359" y="932" on="1"/>
        <pt x="430" y="932" on="1"/>
        <pt x="325" y="809" on="1"/>
        <pt x="252" y="809" on="1"/>
      </contour>
    </TTGlyph>
    <TTGlyph name="Ubreve" xMin="60" yMin="0" xMax="622" yMax="947">
      <contour>
        <pt x="212" y="0" on="1"/>
        <pt x="123" y="0" on="0"/>
        <pt x="123" y="99" on="1"/>
        <pt x="123" y="682" on="1"/>
        <pt x="60" y="682" on="1"/>
        <pt x="60" y="750" on="1"/>
        <pt x="270" y="750" on="1"/>
        <pt x="270" y="682" on="1"/>
        <pt x="205" y="682" on="1"/>
        <pt x="205" y="68" on="1"/>
        <pt x="477" y="68" on="1"/>
        <pt x="477" y="682" on="1"/>
        <pt x="412" y="682" on="1"/>
        <pt x="412" y="750" on="1"/>
        <pt x="622" y="750" on="1"/>
        <pt x="622" y="682" on="1"/>
        <pt x="559" y="682" on="1"/>
        <pt x="559" y="104" on="1"/>
        <pt x="559" y="0" on="0"/>
        <pt x="469" y="0" on="1"/>
      </contour>
      <contour>
        <pt x="494" y="947" on="1"/>
        <pt x="494" y="882" on="0"/>
        <pt x="449" y="838" on="1"/>
        <pt x="403" y="794" on="0"/>
        <pt x="341" y="794" on="1"/>
        <pt x="277" y="794" on="0"/>
        <pt x="187" y="884" on="0"/>
        <pt x="187" y="947" on="1"/>
        <pt x="240" y="947" on="1"/>
        <pt x="240" y="907" on="0"/>
        <pt x="299" y="848" on="0"/>
        <pt x="341" y="848" on="1"/>
        <pt x="382" y="848" on="0"/>
        <pt x="441" y="907" on="0"/>
        <pt x="441" y="947" on="1"/>
      </contour>
    </TTGlyph>
    <TTGlyph name="Ucircumflex" xMin="60" yMin="0" xMax="622" yMax="932">
      <contour>
        <pt x="212" y="0" on="1"/>
        <pt x="123" y="0" on="0"/>
        <pt x="123" y="99" on="1"/>
        <pt x="123" y="682" on="1"/>
        <pt x="60" y="682" on="1"/>
        <pt x="60" y="750" on="1"/>
        <pt x="270" y="750" on="1"/>
        <pt x="270" y="682" on="1"/>
        <pt x="205" y="682" on="1"/>
        <pt x="205" y="68" on="1"/>
        <pt x="477" y="68" on="1"/>
        <pt x="477" y="682" on="1"/>
        <pt x="412" y="682" on="1"/>
        <pt x="412" y="750" on="1"/>
        <pt x="622" y="750" on="1"/>
        <pt x="622" y="682" on="1"/>
        <pt x="559" y="682" on="1"/>
        <pt x="559" y="104" on="1"/>
        <pt x="559" y="0" on="0"/>
        <pt x="469" y="0" on="1"/>
      </contour>
      <contour>
        <pt x="484" y="809" on="1"/>
        <pt x="411" y="809" on="1"/>
        <pt x="342" y="889" on="1"/>
        <pt x="272" y="809" on="1"/>
        <pt x="198" y="809" on="1"/>
        <pt x="310" y="932" on="1"/>
        <pt x="377" y="932" on="1"/>
      </contour>
    </TTGlyph>
    <TTGlyph name="Udieresis" xMin="60" yMin="0" xMax="622" yMax="896">
      <contour>
        <pt x="212" y="0" on="1"/>
        <pt x="123" y="0" on="0"/>
        <pt x="123" y="99" on="1"/>
        <pt x="123" y="682" on="1"/>
        <pt x="60" y="682" on="1"/>
        <pt x="60" y="750" on="1"/>
        <pt x="270" y="750" on="1"/>
        <pt x="270" y="682" on="1"/>
        <pt x="205" y="682" on="1"/>
        <pt x="205" y="68" on="1"/>
        <pt x="477" y="68" on="1"/>
        <pt x="477" y="682" on="1"/>
        <pt x="412" y="682" on="1"/>
        <pt x="412" y="750" on="1"/>
        <pt x="622" y="750" on="1"/>
        <pt x="622" y="682" on="1"/>
        <pt x="559" y="682" on="1"/>
        <pt x="559" y="104" on="1"/>
        <pt x="559" y="0" on="0"/>
        <pt x="469" y="0" on="1"/>
      </contour>
      <contour>
        <pt x="285" y="896" on="0"/>
        <pt x="310" y="869" on="0"/>
        <pt x="310" y="833" on="0"/>
        <pt x="285" y="808" on="0"/>
        <pt x="249" y="808" on="0"/>
        <pt x="224" y="833" on="0"/>
        <pt x="224" y="869" on="0"/>
        <pt x="250" y="896" on="0"/>
      </contour>
      <contour>
        <pt x="433" y="896" on="0"/>
        <pt x="458" y="869" on="0"/>
        <pt x="458" y="833" on="0"/>
        <pt x="433" y="808" on="0"/>
        <pt x="397" y="808" on="0"/>
        <pt x="372" y="833" on="0"/>
        <pt x="372" y="869" on="0"/>
        <pt x="398" y="896" on="0"/>
      </contour>
    </TTGlyph>
    <TTGlyph name="Ugrave" xMin="60" yMin="0" xMax="622" yMax="932">
      <contour>
        <pt x="212" y="0" on="1"/>
        <pt x="123" y="0" on="0"/>
        <pt x="123" y="99" on="1"/>
        <pt x="123" y="682" on="1"/>
        <pt x="60" y="682" on="1"/>
        <pt x="60" y="750" on="1"/>
        <pt x="270" y="750" on="1"/>
        <pt x="270" y="682" on="1"/>
        <pt x="205" y="682" on="1"/>
        <pt x="205" y="68" on="1"/>
        <pt x="477" y="68" on="1"/>
        <pt x="477" y="682" on="1"/>
        <pt x="412" y="682" on="1"/>
        <pt x="412" y="750" on="1"/>
        <pt x="622" y="750" on="1"/>
        <pt x="622" y="682" on="1"/>
        <pt x="559" y="682" on="1"/>
        <pt x="559" y="104" on="1"/>
        <pt x="559" y="0" on="0"/>
        <pt x="469" y="0" on="1"/>
      </contour>
      <contour>
        <pt x="430" y="809" on="1"/>
        <pt x="357" y="809" on="1"/>
        <pt x="252" y="932" on="1"/>
        <pt x="323" y="932" on="1"/>
      </contour>
    </TTGlyph>
    <TTGlyph name="Uhungarumlaut" xMin="60" yMin="0" xMax="622" yMax="932">
      <contour>
        <pt x="469" y="0" on="1"/>
        <pt x="559" y="0" on="0"/>
        <pt x="559" y="104" on="1"/>
        <pt x="559" y="682" on="1"/>
        <pt x="622" y="682" on="1"/>
        <pt x="622" y="750" on="1"/>
        <pt x="412" y="750" on="1"/>
        <pt x="412" y="682" on="1"/>
        <pt x="477" y="682" on="1"/>
        <pt x="477" y="68" on="1"/>
        <pt x="205" y="68" on="1"/>
        <pt x="205" y="682" on="1"/>
        <pt x="270" y="682" on="1"/>
        <pt x="270" y="750" on="1"/>
        <pt x="60" y="750" on="1"/>
        <pt x="60" y="682" on="1"/>
        <pt x="123" y="682" on="1"/>
        <pt x="123" y="99" on="1"/>
        <pt x="123" y="0" on="0"/>
        <pt x="212" y="0" on="1"/>
      </contour>
      <contour>
        <pt x="284" y="932" on="1"/>
        <pt x="355" y="932" on="1"/>
        <pt x="250" y="809" on="1"/>
        <pt x="177" y="809" on="1"/>
      </contour>
      <contour>
        <pt x="433" y="932" on="1"/>
        <pt x="504" y="932" on="1"/>
        <pt x="399" y="809" on="1"/>
        <pt x="326" y="809" on="1"/>
      </contour>
    </TTGlyph>
    <TTGlyph name="Umacron" xMin="60" yMin="0" xMax="622" yMax="888">
      <contour>
        <pt x="212" y="0" on="1"/>
        <pt x="123" y="0" on="0"/>
        <pt x="123" y="99" on="1"/>
        <pt x="123" y="682" on="1"/>
        <pt x="60" y="682" on="1"/>
        <pt x="60" y="750" on="1"/>
        <pt x="270" y="750" on="1"/>
        <pt x="270" y="682" on="1"/>
        <pt x="205" y="682" on="1"/>
        <pt x="205" y="68" on="1"/>
        <pt x="477" y="68" on="1"/>
        <pt x="477" y="682" on="1"/>
        <pt x="412" y="682" on="1"/>
        <pt x="412" y="750" on="1"/>
        <pt x="622" y="750" on="1"/>
        <pt x="622" y="682" on="1"/>
        <pt x="559" y="682" on="1"/>
        <pt x="559" y="104" on="1"/>
        <pt x="559" y="0" on="0"/>
        <pt x="469" y="0" on="1"/>
      </contour>
      <contour>
        <pt x="213" y="888" on="1"/>
        <pt x="468" y="888" on="1"/>
        <pt x="468" y="825" on="1"/>
        <pt x="213" y="825" on="1"/>
      </contour>
    </TTGlyph>
    <TTGlyph name="Uogonek" xMin="60" yMin="-217" xMax="622" yMax="750">
      <contour>
        <pt x="212" y="0" on="1"/>
        <pt x="123" y="0" on="0"/>
        <pt x="123" y="99" on="1"/>
        <pt x="123" y="682" on="1"/>
        <pt x="60" y="682" on="1"/>
        <pt x="60" y="750" on="1"/>
        <pt x="270" y="750" on="1"/>
        <pt x="270" y="682" on="1"/>
        <pt x="205" y="682" on="1"/>
        <pt x="205" y="68" on="1"/>
        <pt x="477" y="68" on="1"/>
        <pt x="477" y="682" on="1"/>
        <pt x="412" y="682" on="1"/>
        <pt x="412" y="750" on="1"/>
        <pt x="622" y="750" on="1"/>
        <pt x="622" y="682" on="1"/>
        <pt x="559" y="682" on="1"/>
        <pt x="559" y="104" on="1"/>
        <pt x="559" y="0" on="0"/>
        <pt x="469" y="0" on="1"/>
      </contour>
      <contour>
        <pt x="411" y="0" on="1"/>
        <pt x="303" y="-89" on="1"/>
        <pt x="303" y="-164" on="1"/>
        <pt x="391" y="-164" on="1"/>
        <pt x="391" y="-217" on="1"/>
        <pt x="309" y="-217" on="1"/>
        <pt x="267" y="-217" on="0"/>
        <pt x="241" y="-177" on="0"/>
        <pt x="241" y="-149" on="1"/>
        <pt x="241" y="-118" on="1"/>
        <pt x="241" y="-89" on="0"/>
        <pt x="259" y="-62" on="0"/>
        <pt x="280" y="-45" on="0"/>
        <pt x="295" y="-34" on="1"/>
        <pt x="339" y="0" on="1"/>
      </contour>
    </TTGlyph>
    <TTGlyph name="Uring" xMin="60" yMin="0" xMax="622" yMax="962">
      <contour>
        <pt x="212" y="0" on="1"/>
        <pt x="123" y="0" on="0"/>
        <pt x="123" y="99" on="1"/>
        <pt x="123" y="682" on="1"/>
        <pt x="60" y="682" on="1"/>
        <pt x="60" y="750" on="1"/>
        <pt x="270" y="750" on="1"/>
        <pt x="270" y="682" on="1"/>
        <pt x="205" y="682" on="1"/>
        <pt x="205" y="68" on="1"/>
        <pt x="477" y="68" on="1"/>
        <pt x="477" y="682" on="1"/>
        <pt x="412" y="682" on="1"/>
        <pt x="412" y="750" on="1"/>
        <pt x="622" y="750" on="1"/>
        <pt x="622" y="682" on="1"/>
        <pt x="559" y="682" on="1"/>
        <pt x="559" y="104" on="1"/>
        <pt x="559" y="0" on="0"/>
        <pt x="469" y="0" on="1"/>
      </contour>
      <contour>
        <pt x="252" y="910" on="0"/>
        <pt x="304" y="962" on="0"/>
        <pt x="342" y="962" on="1"/>
        <pt x="378" y="962" on="0"/>
        <pt x="430" y="910" on="0"/>
        <pt x="430" y="836" on="0"/>
        <pt x="378" y="784" on="0"/>
        <pt x="341" y="784" on="1"/>
        <pt x="303" y="784" on="0"/>
        <pt x="278" y="810" on="1"/>
        <pt x="252" y="838" on="0"/>
      </contour>
      <contour>
        <pt x="301" y="874" on="1"/>
        <pt x="301" y="857" on="0"/>
        <pt x="324" y="833" on="0"/>
        <pt x="341" y="833" on="1"/>
        <pt x="358" y="833" on="0"/>
        <pt x="382" y="857" on="0"/>
        <pt x="382" y="890" on="0"/>
        <pt x="358" y="914" on="0"/>
        <pt x="325" y="914" on="0"/>
        <pt x="301" y="891" on="0"/>
      </contour>
    </TTGlyph>
    <TTGlyph name="Utilde" xMin="60" yMin="0" xMax="622" yMax="922">
      <contour>
        <pt x="212" y="0" on="1"/>
        <pt x="123" y="0" on="0"/>
        <pt x="123" y="99" on="1"/>
        <pt x="123" y="682" on="1"/>
        <pt x="60" y="682" on="1"/>
        <pt x="60" y="750" on="1"/>
        <pt x="270" y="750" on="1"/>
        <pt x="270" y="682" on="1"/>
        <pt x="205" y="682" on="1"/>
        <pt x="205" y="68" on="1"/>
        <pt x="477" y="68" on="1"/>
        <pt x="477" y="682" on="1"/>
        <pt x="412" y="682" on="1"/>
        <pt x="412" y="750" on="1"/>
        <pt x="622" y="750" on="1"/>
        <pt x="622" y="682" on="1"/>
        <pt x="559" y="682" on="1"/>
        <pt x="559" y="104" on="1"/>
        <pt x="559" y="0" on="0"/>
        <pt x="469" y="0" on="1"/>
      </contour>
      <contour>
        <pt x="506" y="888" on="1"/>
        <pt x="498" y="865" on="0"/>
        <pt x="478" y="846" on="1"/>
        <pt x="438" y="811" on="0"/>
        <pt x="406" y="811" on="1"/>
        <pt x="382" y="811" on="0"/>
        <pt x="319" y="848" on="0"/>
        <pt x="286" y="865" on="0"/>
        <pt x="253" y="865" on="0"/>
        <pt x="231" y="845" on="0"/>
        <pt x="217" y="816" on="1"/>
        <pt x="176" y="846" on="1"/>
        <pt x="183" y="868" on="0"/>
        <pt x="203" y="886" on="1"/>
        <pt x="240" y="922" on="0"/>
        <pt x="288" y="922" on="0"/>
        <pt x="329" y="905" on="0"/>
        <pt x="366" y="884" on="0"/>
        <pt x="396" y="867" on="0"/>
        <pt x="425" y="867" on="0"/>
        <pt x="460" y="897" on="0"/>
        <pt x="468" y="916" on="1"/>
      </contour>
    </TTGlyph>
    <TTGlyph name="V" xMin="25" yMin="0" xMax="615" yMax="750">
      <contour>
        <pt x="25" y="750" on="1"/>
        <pt x="208" y="750" on="1"/>
        <pt x="208" y="682" on="1"/>
        <pt x="156" y="682" on="1"/>
        <pt x="321" y="68" on="1"/>
        <pt x="485" y="682" on="1"/>
        <pt x="422" y="682" on="1"/>
        <pt x="422" y="750" on="1"/>
        <pt x="615" y="750" on="1"/>
        <pt x="615" y="682" on="1"/>
        <pt x="561" y="682" on="1"/>
        <pt x="378" y="0" on="1"/>
        <pt x="263" y="0" on="1"/>
        <pt x="81" y="682" on="1"/>
        <pt x="25" y="682" on="1"/>
      </contour>
    </TTGlyph>
    <TTGlyph name="W" xMin="25" yMin="0" xMax="811" yMax="750">
      <contour>
        <pt x="811" y="750" on="1"/>
        <pt x="811" y="682" on="1"/>
        <pt x="763" y="682" on="1"/>
        <pt x="656" y="0" on="1"/>
        <pt x="526" y="0" on="1"/>
        <pt x="418" y="681" on="1"/>
        <pt x="310" y="0" on="1"/>
        <pt x="180" y="0" on="1"/>
        <pt x="73" y="682" on="1"/>
        <pt x="25" y="682" on="1"/>
        <pt x="25" y="750" on="1"/>
        <pt x="190" y="750" on="1"/>
        <pt x="190" y="682" on="1"/>
        <pt x="150" y="682" on="1"/>
        <pt x="245" y="68" on="1"/>
        <pt x="350" y="750" on="1"/>
        <pt x="486" y="750" on="1"/>
        <pt x="591" y="68" on="1"/>
        <pt x="686" y="682" on="1"/>
        <pt x="646" y="682" on="1"/>
        <pt x="646" y="750" on="1"/>
      </contour>
    </TTGlyph>
    <TTGlyph name="Wacute" xMin="25" yMin="0" xMax="811" yMax="932">
      <contour>
        <pt x="646" y="750" on="1"/>
        <pt x="646" y="682" on="1"/>
        <pt x="686" y="682" on="1"/>
        <pt x="591" y="68" on="1"/>
        <pt x="486" y="750" on="1"/>
        <pt x="350" y="750" on="1"/>
        <pt x="245" y="68" on="1"/>
        <pt x="150" y="682" on="1"/>
        <pt x="190" y="682" on="1"/>
        <pt x="190" y="750" on="1"/>
        <pt x="25" y="750" on="1"/>
        <pt x="25" y="682" on="1"/>
        <pt x="73" y="682" on="1"/>
        <pt x="180" y="0" on="1"/>
        <pt x="310" y="0" on="1"/>
        <pt x="418" y="681" on="1"/>
        <pt x="526" y="0" on="1"/>
        <pt x="656" y="0" on="1"/>
        <pt x="763" y="682" on="1"/>
        <pt x="811" y="682" on="1"/>
        <pt x="811" y="750" on="1"/>
      </contour>
      <contour>
        <pt x="436" y="932" on="1"/>
        <pt x="507" y="932" on="1"/>
        <pt x="402" y="809" on="1"/>
        <pt x="329" y="809" on="1"/>
      </contour>
    </TTGlyph>
    <TTGlyph name="Wcircumflex" xMin="25" yMin="0" xMax="811" yMax="932">
      <contour>
        <pt x="811" y="750" on="1"/>
        <pt x="811" y="682" on="1"/>
        <pt x="763" y="682" on="1"/>
        <pt x="656" y="0" on="1"/>
        <pt x="526" y="0" on="1"/>
        <pt x="418" y="681" on="1"/>
        <pt x="310" y="0" on="1"/>
        <pt x="180" y="0" on="1"/>
        <pt x="73" y="682" on="1"/>
        <pt x="25" y="682" on="1"/>
        <pt x="25" y="750" on="1"/>
        <pt x="190" y="750" on="1"/>
        <pt x="190" y="682" on="1"/>
        <pt x="150" y="682" on="1"/>
        <pt x="245" y="68" on="1"/>
        <pt x="350" y="750" on="1"/>
        <pt x="486" y="750" on="1"/>
        <pt x="591" y="68" on="1"/>
        <pt x="686" y="682" on="1"/>
        <pt x="646" y="682" on="1"/>
        <pt x="646" y="750" on="1"/>
      </contour>
      <contour>
        <pt x="561" y="809" on="1"/>
        <pt x="488" y="809" on="1"/>
        <pt x="419" y="889" on="1"/>
        <pt x="349" y="809" on="1"/>
        <pt x="275" y="809" on="1"/>
        <pt x="387" y="932" on="1"/>
        <pt x="454" y="932" on="1"/>
      </contour>
    </TTGlyph>
    <TTGlyph name="Wdieresis" xMin="25" yMin="0" xMax="811" yMax="896">
      <contour>
        <pt x="811" y="750" on="1"/>
        <pt x="811" y="682" on="1"/>
        <pt x="763" y="682" on="1"/>
        <pt x="656" y="0" on="1"/>
        <pt x="526" y="0" on="1"/>
        <pt x="418" y="681" on="1"/>
        <pt x="310" y="0" on="1"/>
        <pt x="180" y="0" on="1"/>
        <pt x="73" y="682" on="1"/>
        <pt x="25" y="682" on="1"/>
        <pt x="25" y="750" on="1"/>
        <pt x="190" y="750" on="1"/>
        <pt x="190" y="682" on="1"/>
        <pt x="150" y="682" on="1"/>
        <pt x="245" y="68" on="1"/>
        <pt x="350" y="750" on="1"/>
        <pt x="486" y="750" on="1"/>
        <pt x="591" y="68" on="1"/>
        <pt x="686" y="682" on="1"/>
        <pt x="646" y="682" on="1"/>
        <pt x="646" y="750" on="1"/>
      </contour>
      <contour>
        <pt x="362" y="896" on="0"/>
        <pt x="387" y="869" on="0"/>
        <pt x="387" y="833" on="0"/>
        <pt x="362" y="808" on="0"/>
        <pt x="326" y="808" on="0"/>
        <pt x="301" y="833" on="0"/>
        <pt x="301" y="869" on="0"/>
        <pt x="327" y="896" on="0"/>
      </contour>
      <contour>
        <pt x="510" y="896" on="0"/>
        <pt x="535" y="869" on="0"/>
        <pt x="535" y="833" on="0"/>
        <pt x="510" y="808" on="0"/>
        <pt x="474" y="808" on="0"/>
        <pt x="449" y="833" on="0"/>
        <pt x="449" y="869" on="0"/>
        <pt x="475" y="896" on="0"/>
      </contour>
    </TTGlyph>
    <TTGlyph name="Wgrave" xMin="25" yMin="0" xMax="811" yMax="932">
      <contour>
        <pt x="811" y="750" on="1"/>
        <pt x="811" y="682" on="1"/>
        <pt x="763" y="682" on="1"/>
        <pt x="656" y="0" on="1"/>
        <pt x="526" y="0" on="1"/>
        <pt x="418" y="681" on="1"/>
        <pt x="310" y="0" on="1"/>
        <pt x="180" y="0" on="1"/>
        <pt x="73" y="682" on="1"/>
        <pt x="25" y="682" on="1"/>
        <pt x="25" y="750" on="1"/>
        <pt x="190" y="750" on="1"/>
        <pt x="190" y="682" on="1"/>
        <pt x="150" y="682" on="1"/>
        <pt x="245" y="68" on="1"/>
        <pt x="350" y="750" on="1"/>
        <pt x="486" y="750" on="1"/>
        <pt x="591" y="68" on="1"/>
        <pt x="686" y="682" on="1"/>
        <pt x="646" y="682" on="1"/>
        <pt x="646" y="750" on="1"/>
      </contour>
      <contour>
        <pt x="507" y="809" on="1"/>
        <pt x="434" y="809" on="1"/>
        <pt x="329" y="932" on="1"/>
        <pt x="400" y="932" on="1"/>
      </contour>
    </TTGlyph>
    <TTGlyph name="X" xMin="25" yMin="0" xMax="565" yMax="750">
      <contour>
        <pt x="565" y="68" on="1"/>
        <pt x="565" y="0" on="1"/>
        <pt x="461" y="0" on="1"/>
        <pt x="296" y="312" on="1"/>
        <pt x="131" y="0" on="1"/>
        <pt x="25" y="0" on="1"/>
        <pt x="25" y="68" on="1"/>
        <pt x="82" y="68" on="1"/>
        <pt x="253" y="394" on="1"/>
        <pt x="102" y="682" on="1"/>
        <pt x="42" y="682" on="1"/>
        <pt x="42" y="750" on="1"/>
        <pt x="152" y="750" on="1"/>
        <pt x="295" y="474" on="1"/>
        <pt x="440" y="750" on="1"/>
        <pt x="548" y="750" on="1"/>
        <pt x="548" y="682" on="1"/>
        <pt x="489" y="682" on="1"/>
        <pt x="337" y="394" on="1"/>
        <pt x="510" y="68" on="1"/>
      </contour>
    </TTGlyph>
    <TTGlyph name="Y" xMin="25" yMin="0" xMax="531" yMax="750">
      <contour>
        <pt x="531" y="750" on="1"/>
        <pt x="531" y="682" on="1"/>
        <pt x="493" y="682" on="1"/>
        <pt x="318" y="369" on="1"/>
        <pt x="318" y="68" on="1"/>
        <pt x="383" y="68" on="1"/>
        <pt x="383" y="0" on="1"/>
        <pt x="173" y="0" on="1"/>
        <pt x="173" y="68" on="1"/>
        <pt x="236" y="68" on="1"/>
        <pt x="236" y="369" on="1"/>
        <pt x="70" y="682" on="1"/>
        <pt x="25" y="682" on="1"/>
        <pt x="25" y="750" on="1"/>
        <pt x="187" y="750" on="1"/>
        <pt x="187" y="682" on="1"/>
        <pt x="151" y="682" on="1"/>
        <pt x="278" y="438" on="1"/>
        <pt x="408" y="682" on="1"/>
        <pt x="372" y="682" on="1"/>
        <pt x="372" y="750" on="1"/>
      </contour>
    </TTGlyph>
    <TTGlyph name="Yacute" xMin="25" yMin="0" xMax="531" yMax="932">
      <contour>
        <pt x="372" y="750" on="1"/>
        <pt x="372" y="682" on="1"/>
        <pt x="408" y="682" on="1"/>
        <pt x="278" y="438" on="1"/>
        <pt x="151" y="682" on="1"/>
        <pt x="187" y="682" on="1"/>
        <pt x="187" y="750" on="1"/>
        <pt x="25" y="750" on="1"/>
        <pt x="25" y="682" on="1"/>
        <pt x="70" y="682" on="1"/>
        <pt x="236" y="369" on="1"/>
        <pt x="236" y="68" on="1"/>
        <pt x="173" y="68" on="1"/>
        <pt x="173" y="0" on="1"/>
        <pt x="383" y="0" on="1"/>
        <pt x="383" y="68" on="1"/>
        <pt x="318" y="68" on="1"/>
        <pt x="318" y="369" on="1"/>
        <pt x="493" y="682" on="1"/>
        <pt x="531" y="682" on="1"/>
        <pt x="531" y="750" on="1"/>
      </contour>
      <contour>
        <pt x="296" y="932" on="1"/>
        <pt x="367" y="932" on="1"/>
        <pt x="262" y="809" on="1"/>
        <pt x="189" y="809" on="1"/>
      </contour>
    </TTGlyph>
    <TTGlyph name="Ycircumflex" xMin="25" yMin="0" xMax="531" yMax="932">
      <contour>
        <pt x="531" y="750" on="1"/>
        <pt x="531" y="682" on="1"/>
        <pt x="493" y="682" on="1"/>
        <pt x="318" y="369" on="1"/>
        <pt x="318" y="68" on="1"/>
        <pt x="383" y="68" on="1"/>
        <pt x="383" y="0" on="1"/>
        <pt x="173" y="0" on="1"/>
        <pt x="173" y="68" on="1"/>
        <pt x="236" y="68" on="1"/>
        <pt x="236" y="369" on="1"/>
        <pt x="70" y="682" on="1"/>
        <pt x="25" y="682" on="1"/>
        <pt x="25" y="750" on="1"/>
        <pt x="187" y="750" on="1"/>
        <pt x="187" y="682" on="1"/>
        <pt x="151" y="682" on="1"/>
        <pt x="278" y="438" on="1"/>
        <pt x="408" y="682" on="1"/>
        <pt x="372" y="682" on="1"/>
        <pt x="372" y="750" on="1"/>
      </contour>
      <contour>
        <pt x="421" y="809" on="1"/>
        <pt x="348" y="809" on="1"/>
        <pt x="279" y="889" on="1"/>
        <pt x="209" y="809" on="1"/>
        <pt x="135" y="809" on="1"/>
        <pt x="247" y="932" on="1"/>
        <pt x="314" y="932" on="1"/>
      </contour>
    </TTGlyph>
    <TTGlyph name="Ydieresis" xMin="25" yMin="0" xMax="531" yMax="896">
      <contour>
        <pt x="531" y="750" on="1"/>
        <pt x="531" y="682" on="1"/>
        <pt x="493" y="682" on="1"/>
        <pt x="318" y="369" on="1"/>
        <pt x="318" y="68" on="1"/>
        <pt x="383" y="68" on="1"/>
        <pt x="383" y="0" on="1"/>
        <pt x="173" y="0" on="1"/>
        <pt x="173" y="68" on="1"/>
        <pt x="236" y="68" on="1"/>
        <pt x="236" y="369" on="1"/>
        <pt x="70" y="682" on="1"/>
        <pt x="25" y="682" on="1"/>
        <pt x="25" y="750" on="1"/>
        <pt x="187" y="750" on="1"/>
        <pt x="187" y="682" on="1"/>
        <pt x="151" y="682" on="1"/>
        <pt x="278" y="438" on="1"/>
        <pt x="408" y="682" on="1"/>
        <pt x="372" y="682" on="1"/>
        <pt x="372" y="750" on="1"/>
      </contour>
      <contour>
        <pt x="222" y="896" on="0"/>
        <pt x="247" y="869" on="0"/>
        <pt x="247" y="833" on="0"/>
        <pt x="222" y="808" on="0"/>
        <pt x="186" y="808" on="0"/>
        <pt x="161" y="833" on="0"/>
        <pt x="161" y="869" on="0"/>
        <pt x="187" y="896" on="0"/>
      </contour>
      <contour>
        <pt x="370" y="896" on="0"/>
        <pt x="395" y="869" on="0"/>
        <pt x="395" y="833" on="0"/>
        <pt x="370" y="808" on="0"/>
        <pt x="334" y="808" on="0"/>
        <pt x="309" y="833" on="0"/>
        <pt x="309" y="869" on="0"/>
        <pt x="335" y="896" on="0"/>
      </contour>
    </TTGlyph>
    <TTGlyph name="Ygrave" xMin="25" yMin="0" xMax="531" yMax="932">
      <contour>
        <pt x="531" y="750" on="1"/>
        <pt x="531" y="682" on="1"/>
        <pt x="493" y="682" on="1"/>
        <pt x="318" y="369" on="1"/>
        <pt x="318" y="68" on="1"/>
        <pt x="383" y="68" on="1"/>
        <pt x="383" y="0" on="1"/>
        <pt x="173" y="0" on="1"/>
        <pt x="173" y="68" on="1"/>
        <pt x="236" y="68" on="1"/>
        <pt x="236" y="369" on="1"/>
        <pt x="70" y="682" on="1"/>
        <pt x="25" y="682" on="1"/>
        <pt x="25" y="750" on="1"/>
        <pt x="187" y="750" on="1"/>
        <pt x="187" y="682" on="1"/>
        <pt x="151" y="682" on="1"/>
        <pt x="278" y="438" on="1"/>
        <pt x="408" y="682" on="1"/>
        <pt x="372" y="682" on="1"/>
        <pt x="372" y="750" on="1"/>
      </contour>
      <contour>
        <pt x="367" y="809" on="1"/>
        <pt x="294" y="809" on="1"/>
        <pt x="189" y="932" on="1"/>
        <pt x="260" y="932" on="1"/>
      </contour>
    </TTGlyph>
    <TTGlyph name="Z" xMin="30" yMin="0" xMax="491" yMax="750">
      <contour>
        <pt x="116" y="68" on="1"/>
        <pt x="411" y="68" on="1"/>
        <pt x="411" y="182" on="1"/>
        <pt x="481" y="182" on="1"/>
        <pt x="481" y="0" on="1"/>
        <pt x="30" y="0" on="1"/>
        <pt x="30" y="72" on="1"/>
        <pt x="407" y="682" on="1"/>
        <pt x="128" y="682" on="1"/>
        <pt x="128" y="570" on="1"/>
        <pt x="57" y="570" on="1"/>
        <pt x="57" y="750" on="1"/>
        <pt x="491" y="750" on="1"/>
        <pt x="491" y="678" on="1"/>
      </contour>
    </TTGlyph>
    <TTGlyph name="Zacute" xMin="30" yMin="0" xMax="491" yMax="932">
      <contour>
        <pt x="491" y="678" on="1"/>
        <pt x="491" y="750" on="1"/>
        <pt x="57" y="750" on="1"/>
        <pt x="57" y="570" on="1"/>
        <pt x="128" y="570" on="1"/>
        <pt x="128" y="682" on="1"/>
        <pt x="407" y="682" on="1"/>
        <pt x="30" y="72" on="1"/>
        <pt x="30" y="0" on="1"/>
        <pt x="481" y="0" on="1"/>
        <pt x="481" y="182" on="1"/>
        <pt x="411" y="182" on="1"/>
        <pt x="411" y="68" on="1"/>
        <pt x="116" y="68" on="1"/>
      </contour>
      <contour>
        <pt x="278" y="932" on="1"/>
        <pt x="349" y="932" on="1"/>
        <pt x="244" y="809" on="1"/>
        <pt x="171" y="809" on="1"/>
      </contour>
    </TTGlyph>
    <TTGlyph name="Zcaron" xMin="30" yMin="0" xMax="491" yMax="932">
      <contour>
        <pt x="116" y="68" on="1"/>
        <pt x="411" y="68" on="1"/>
        <pt x="411" y="182" on="1"/>
        <pt x="481" y="182" on="1"/>
        <pt x="481" y="0" on="1"/>
        <pt x="30" y="0" on="1"/>
        <pt x="30" y="72" on="1"/>
        <pt x="407" y="682" on="1"/>
        <pt x="128" y="682" on="1"/>
        <pt x="128" y="570" on="1"/>
        <pt x="57" y="570" on="1"/>
        <pt x="57" y="750" on="1"/>
        <pt x="491" y="750" on="1"/>
        <pt x="491" y="678" on="1"/>
      </contour>
      <contour>
        <pt x="296" y="809" on="1"/>
        <pt x="229" y="809" on="1"/>
        <pt x="117" y="932" on="1"/>
        <pt x="191" y="932" on="1"/>
        <pt x="261" y="852" on="1"/>
        <pt x="330" y="932" on="1"/>
        <pt x="403" y="932" on="1"/>
      </contour>
    </TTGlyph>
    <TTGlyph name="Zdotaccent" xMin="30" yMin="0" xMax="491" yMax="918">
      <contour>
        <pt x="116" y="68" on="1"/>
        <pt x="411" y="68" on="1"/>
        <pt x="411" y="182" on="1"/>
        <pt x="481" y="182" on="1"/>
        <pt x="481" y="0" on="1"/>
        <pt x="30" y="0" on="1"/>
        <pt x="30" y="72" on="1"/>
        <pt x="407" y="682" on="1"/>
        <pt x="128" y="682" on="1"/>
        <pt x="128" y="570" on="1"/>
        <pt x="57" y="570" on="1"/>
        <pt x="57" y="750" on="1"/>
        <pt x="491" y="750" on="1"/>
        <pt x="491" y="678" on="1"/>
      </contour>
      <contour>
        <pt x="278" y="918" on="0"/>
        <pt x="303" y="891" on="0"/>
        <pt x="303" y="855" on="0"/>
        <pt x="278" y="830" on="0"/>
        <pt x="242" y="830" on="0"/>
        <pt x="217" y="855" on="0"/>
        <pt x="217" y="891" on="0"/>
        <pt x="243" y="918" on="0"/>
      </contour>
    </TTGlyph>
    <TTGlyph name="a" xMin="20" yMin="0" xMax="453" yMax="500">
      <contour>
        <pt x="453" y="68" on="1"/>
        <pt x="453" y="0" on="1"/>
        <pt x="105" y="0" on="1"/>
        <pt x="54" y="0" on="0"/>
        <pt x="36" y="20" on="1"/>
        <pt x="20" y="38" on="0"/>
        <pt x="20" y="88" on="1"/>
        <pt x="20" y="125" on="1"/>
        <pt x="20" y="161" on="0"/>
        <pt x="29" y="174" on="1"/>
        <pt x="42" y="193" on="0"/>
        <pt x="88" y="221" on="1"/>
        <pt x="308" y="358" on="1"/>
        <pt x="308" y="432" on="1"/>
        <pt x="112" y="432" on="1"/>
        <pt x="112" y="374" on="1"/>
        <pt x="48" y="374" on="1"/>
        <pt x="48" y="500" on="1"/>
        <pt x="298" y="500" on="1"/>
        <pt x="349" y="500" on="0"/>
        <pt x="390" y="456" on="0"/>
        <pt x="390" y="414" on="1"/>
        <pt x="390" y="68" on="1"/>
      </contour>
      <contour>
        <pt x="308" y="278" on="1"/>
        <pt x="100" y="148" on="1"/>
        <pt x="100" y="68" on="1"/>
        <pt x="308" y="68" on="1"/>
      </contour>
    </TTGlyph>
    <TTGlyph name="aacute" xMin="20" yMin="0" xMax="453" yMax="682">
      <contour>
        <pt x="390" y="68" on="1"/>
        <pt x="390" y="414" on="1"/>
        <pt x="390" y="456" on="0"/>
        <pt x="349" y="500" on="0"/>
        <pt x="298" y="500" on="1"/>
        <pt x="48" y="500" on="1"/>
        <pt x="48" y="374" on="1"/>
        <pt x="112" y="374" on="1"/>
        <pt x="112" y="432" on="1"/>
        <pt x="308" y="432" on="1"/>
        <pt x="308" y="358" on="1"/>
        <pt x="88" y="221" on="1"/>
        <pt x="42" y="193" on="0"/>
        <pt x="33" y="180" on="1"/>
        <pt x="20" y="161" on="0"/>
        <pt x="20" y="125" on="1"/>
        <pt x="20" y="88" on="1"/>
        <pt x="20" y="38" on="0"/>
        <pt x="46" y="9" on="0"/>
        <pt x="79" y="0" on="0"/>
        <pt x="105" y="0" on="1"/>
        <pt x="453" y="0" on="1"/>
        <pt x="453" y="68" on="1"/>
      </contour>
      <contour>
        <pt x="308" y="68" on="1"/>
        <pt x="100" y="68" on="1"/>
        <pt x="100" y="148" on="1"/>
        <pt x="308" y="278" on="1"/>
      </contour>
      <contour>
        <pt x="264" y="682" on="1"/>
        <pt x="335" y="682" on="1"/>
        <pt x="230" y="559" on="1"/>
        <pt x="157" y="559" on="1"/>
      </contour>
    </TTGlyph>
    <TTGlyph name="abreve" xMin="20" yMin="0" xMax="453" yMax="697">
      <contour>
        <pt x="453" y="68" on="1"/>
        <pt x="453" y="0" on="1"/>
        <pt x="105" y="0" on="1"/>
        <pt x="54" y="0" on="0"/>
        <pt x="36" y="20" on="1"/>
        <pt x="20" y="38" on="0"/>
        <pt x="20" y="88" on="1"/>
        <pt x="20" y="125" on="1"/>
        <pt x="20" y="161" on="0"/>
        <pt x="29" y="174" on="1"/>
        <pt x="42" y="193" on="0"/>
        <pt x="88" y="221" on="1"/>
        <pt x="308" y="358" on="1"/>
        <pt x="308" y="432" on="1"/>
        <pt x="112" y="432" on="1"/>
        <pt x="112" y="374" on="1"/>
        <pt x="48" y="374" on="1"/>
        <pt x="48" y="500" on="1"/>
        <pt x="298" y="500" on="1"/>
        <pt x="349" y="500" on="0"/>
        <pt x="390" y="456" on="0"/>
        <pt x="390" y="414" on="1"/>
        <pt x="390" y="68" on="1"/>
      </contour>
      <contour>
        <pt x="308" y="278" on="1"/>
        <pt x="100" y="148" on="1"/>
        <pt x="100" y="68" on="1"/>
        <pt x="308" y="68" on="1"/>
      </contour>
      <contour>
        <pt x="366" y="697" on="1"/>
        <pt x="366" y="632" on="0"/>
        <pt x="321" y="588" on="1"/>
        <pt x="275" y="544" on="0"/>
        <pt x="213" y="544" on="1"/>
        <pt x="149" y="544" on="0"/>
        <pt x="59" y="634" on="0"/>
        <pt x="59" y="697" on="1"/>
        <pt x="112" y="697" on="1"/>
        <pt x="112" y="657" on="0"/>
        <pt x="171" y="598" on="0"/>
        <pt x="213" y="598" on="1"/>
        <pt x="254" y="598" on="0"/>
        <pt x="313" y="657" on="0"/>
        <pt x="313" y="697" on="1"/>
      </contour>
    </TTGlyph>
    <TTGlyph name="acircumflex" xMin="20" yMin="0" xMax="453" yMax="682">
      <contour>
        <pt x="453" y="68" on="1"/>
        <pt x="453" y="0" on="1"/>
        <pt x="105" y="0" on="1"/>
        <pt x="54" y="0" on="0"/>
        <pt x="36" y="20" on="1"/>
        <pt x="20" y="38" on="0"/>
        <pt x="20" y="88" on="1"/>
        <pt x="20" y="125" on="1"/>
        <pt x="20" y="161" on="0"/>
        <pt x="29" y="174" on="1"/>
        <pt x="42" y="193" on="0"/>
        <pt x="88" y="221" on="1"/>
        <pt x="308" y="358" on="1"/>
        <pt x="308" y="432" on="1"/>
        <pt x="112" y="432" on="1"/>
        <pt x="112" y="374" on="1"/>
        <pt x="48" y="374" on="1"/>
        <pt x="48" y="500" on="1"/>
        <pt x="298" y="500" on="1"/>
        <pt x="349" y="500" on="0"/>
        <pt x="390" y="456" on="0"/>
        <pt x="390" y="414" on="1"/>
        <pt x="390" y="68" on="1"/>
      </contour>
      <contour>
        <pt x="308" y="278" on="1"/>
        <pt x="100" y="148" on="1"/>
        <pt x="100" y="68" on="1"/>
        <pt x="308" y="68" on="1"/>
      </contour>
      <contour>
        <pt x="350" y="559" on="1"/>
        <pt x="277" y="559" on="1"/>
        <pt x="208" y="639" on="1"/>
        <pt x="138" y="559" on="1"/>
        <pt x="64" y="559" on="1"/>
        <pt x="176" y="682" on="1"/>
        <pt x="243" y="682" on="1"/>
      </contour>
    </TTGlyph>
    <TTGlyph name="acute" xMin="1" yMin="559" xMax="179" yMax="682">
      <contour>
        <pt x="108" y="682" on="1"/>
        <pt x="179" y="682" on="1"/>
        <pt x="74" y="559" on="1"/>
        <pt x="1" y="559" on="1"/>
      </contour>
    </TTGlyph>
    <TTGlyph name="adieresis" xMin="20" yMin="0" xMax="453" yMax="646">
      <contour>
        <pt x="453" y="68" on="1"/>
        <pt x="453" y="0" on="1"/>
        <pt x="105" y="0" on="1"/>
        <pt x="54" y="0" on="0"/>
        <pt x="36" y="20" on="1"/>
        <pt x="20" y="38" on="0"/>
        <pt x="20" y="88" on="1"/>
        <pt x="20" y="125" on="1"/>
        <pt x="20" y="161" on="0"/>
        <pt x="29" y="174" on="1"/>
        <pt x="42" y="193" on="0"/>
        <pt x="88" y="221" on="1"/>
        <pt x="308" y="358" on="1"/>
        <pt x="308" y="432" on="1"/>
        <pt x="112" y="432" on="1"/>
        <pt x="112" y="374" on="1"/>
        <pt x="48" y="374" on="1"/>
        <pt x="48" y="500" on="1"/>
        <pt x="298" y="500" on="1"/>
        <pt x="349" y="500" on="0"/>
        <pt x="390" y="456" on="0"/>
        <pt x="390" y="414" on="1"/>
        <pt x="390" y="68" on="1"/>
      </contour>
      <contour>
        <pt x="308" y="278" on="1"/>
        <pt x="100" y="148" on="1"/>
        <pt x="100" y="68" on="1"/>
        <pt x="308" y="68" on="1"/>
      </contour>
      <contour>
        <pt x="147" y="646" on="0"/>
        <pt x="172" y="619" on="0"/>
        <pt x="172" y="583" on="0"/>
        <pt x="147" y="558" on="0"/>
        <pt x="111" y="558" on="0"/>
        <pt x="86" y="583" on="0"/>
        <pt x="86" y="619" on="0"/>
        <pt x="112" y="646" on="0"/>
      </contour>
      <contour>
        <pt x="295" y="646" on="0"/>
        <pt x="320" y="619" on="0"/>
        <pt x="320" y="583" on="0"/>
        <pt x="295" y="558" on="0"/>
        <pt x="259" y="558" on="0"/>
        <pt x="234" y="583" on="0"/>
        <pt x="234" y="619" on="0"/>
        <pt x="260" y="646" on="0"/>
      </contour>
    </TTGlyph>
    <TTGlyph name="ae" xMin="50" yMin="0" xMax="660" yMax="500">
      <contour>
        <pt x="142" y="374" on="1"/>
        <pt x="78" y="374" on="1"/>
        <pt x="78" y="500" on="1"/>
        <pt x="567" y="500" on="1"/>
        <pt x="616" y="500" on="0"/>
        <pt x="660" y="463" on="0"/>
        <pt x="660" y="412" on="1"/>
        <pt x="660" y="319" on="1"/>
        <pt x="396" y="155" on="1"/>
        <pt x="396" y="68" on="1"/>
        <pt x="581" y="68" on="1"/>
        <pt x="581" y="126" on="1"/>
        <pt x="660" y="126" on="1"/>
        <pt x="660" y="73" on="1"/>
        <pt x="660" y="43" on="0"/>
        <pt x="623" y="0" on="0"/>
        <pt x="580" y="0" on="1"/>
        <pt x="135" y="0" on="1"/>
        <pt x="84" y="0" on="0"/>
        <pt x="66" y="20" on="1"/>
        <pt x="50" y="38" on="0"/>
        <pt x="50" y="88" on="1"/>
        <pt x="50" y="123" on="1"/>
        <pt x="50" y="160" on="0"/>
        <pt x="68" y="187" on="0"/>
        <pt x="95" y="207" on="0"/>
        <pt x="118" y="221" on="1"/>
        <pt x="318" y="339" on="1"/>
        <pt x="318" y="432" on="1"/>
        <pt x="142" y="432" on="1"/>
      </contour>
      <contour>
        <pt x="396" y="236" on="1"/>
        <pt x="580" y="349" on="1"/>
        <pt x="580" y="432" on="1"/>
        <pt x="396" y="432" on="1"/>
      </contour>
      <contour>
        <pt x="318" y="259" on="1"/>
        <pt x="130" y="148" on="1"/>
        <pt x="130" y="68" on="1"/>
        <pt x="318" y="68" on="1"/>
      </contour>
    </TTGlyph>
    <TTGlyph name="aeacute" xMin="50" yMin="0" xMax="660" yMax="682">
      <contour>
        <pt x="142" y="432" on="1"/>
        <pt x="318" y="432" on="1"/>
        <pt x="318" y="339" on="1"/>
        <pt x="118" y="221" on="1"/>
        <pt x="72" y="193" on="0"/>
        <pt x="63" y="180" on="1"/>
        <pt x="50" y="160" on="0"/>
        <pt x="50" y="123" on="1"/>
        <pt x="50" y="88" on="1"/>
        <pt x="50" y="38" on="0"/>
        <pt x="76" y="9" on="0"/>
        <pt x="109" y="0" on="0"/>
        <pt x="135" y="0" on="1"/>
        <pt x="580" y="0" on="1"/>
        <pt x="623" y="0" on="0"/>
        <pt x="660" y="43" on="0"/>
        <pt x="660" y="73" on="1"/>
        <pt x="660" y="126" on="1"/>
        <pt x="581" y="126" on="1"/>
        <pt x="581" y="68" on="1"/>
        <pt x="396" y="68" on="1"/>
        <pt x="396" y="155" on="1"/>
        <pt x="660" y="319" on="1"/>
        <pt x="660" y="412" on="1"/>
        <pt x="660" y="463" on="0"/>
        <pt x="616" y="500" on="0"/>
        <pt x="567" y="500" on="1"/>
        <pt x="78" y="500" on="1"/>
        <pt x="78" y="374" on="1"/>
        <pt x="142" y="374" on="1"/>
      </contour>
      <contour>
        <pt x="396" y="432" on="1"/>
        <pt x="580" y="432" on="1"/>
        <pt x="580" y="349" on="1"/>
        <pt x="396" y="236" on="1"/>
      </contour>
      <contour>
        <pt x="318" y="68" on="1"/>
        <pt x="130" y="68" on="1"/>
        <pt x="130" y="148" on="1"/>
        <pt x="318" y="259" on="1"/>
      </contour>
      <contour>
        <pt x="373" y="682" on="1"/>
        <pt x="444" y="682" on="1"/>
        <pt x="339" y="559" on="1"/>
        <pt x="266" y="559" on="1"/>
      </contour>
    </TTGlyph>
    <TTGlyph name="agrave" xMin="20" yMin="0" xMax="453" yMax="682">
      <contour>
        <pt x="453" y="68" on="1"/>
        <pt x="453" y="0" on="1"/>
        <pt x="105" y="0" on="1"/>
        <pt x="54" y="0" on="0"/>
        <pt x="36" y="20" on="1"/>
        <pt x="20" y="38" on="0"/>
        <pt x="20" y="88" on="1"/>
        <pt x="20" y="125" on="1"/>
        <pt x="20" y="161" on="0"/>
        <pt x="29" y="174" on="1"/>
        <pt x="42" y="193" on="0"/>
        <pt x="88" y="221" on="1"/>
        <pt x="308" y="358" on="1"/>
        <pt x="308" y="432" on="1"/>
        <pt x="112" y="432" on="1"/>
        <pt x="112" y="374" on="1"/>
        <pt x="48" y="374" on="1"/>
        <pt x="48" y="500" on="1"/>
        <pt x="298" y="500" on="1"/>
        <pt x="349" y="500" on="0"/>
        <pt x="390" y="456" on="0"/>
        <pt x="390" y="414" on="1"/>
        <pt x="390" y="68" on="1"/>
      </contour>
      <contour>
        <pt x="308" y="278" on="1"/>
        <pt x="100" y="148" on="1"/>
        <pt x="100" y="68" on="1"/>
        <pt x="308" y="68" on="1"/>
      </contour>
      <contour>
        <pt x="335" y="559" on="1"/>
        <pt x="262" y="559" on="1"/>
        <pt x="157" y="682" on="1"/>
        <pt x="228" y="682" on="1"/>
      </contour>
    </TTGlyph>
    <TTGlyph name="amacron" xMin="20" yMin="0" xMax="453" yMax="638">
      <contour>
        <pt x="453" y="68" on="1"/>
        <pt x="453" y="0" on="1"/>
        <pt x="105" y="0" on="1"/>
        <pt x="54" y="0" on="0"/>
        <pt x="36" y="20" on="1"/>
        <pt x="20" y="38" on="0"/>
        <pt x="20" y="88" on="1"/>
        <pt x="20" y="125" on="1"/>
        <pt x="20" y="161" on="0"/>
        <pt x="29" y="174" on="1"/>
        <pt x="42" y="193" on="0"/>
        <pt x="88" y="221" on="1"/>
        <pt x="308" y="358" on="1"/>
        <pt x="308" y="432" on="1"/>
        <pt x="112" y="432" on="1"/>
        <pt x="112" y="374" on="1"/>
        <pt x="48" y="374" on="1"/>
        <pt x="48" y="500" on="1"/>
        <pt x="298" y="500" on="1"/>
        <pt x="349" y="500" on="0"/>
        <pt x="390" y="456" on="0"/>
        <pt x="390" y="414" on="1"/>
        <pt x="390" y="68" on="1"/>
      </contour>
      <contour>
        <pt x="308" y="278" on="1"/>
        <pt x="100" y="148" on="1"/>
        <pt x="100" y="68" on="1"/>
        <pt x="308" y="68" on="1"/>
      </contour>
      <contour>
        <pt x="83" y="638" on="1"/>
        <pt x="338" y="638" on="1"/>
        <pt x="338" y="575" on="1"/>
        <pt x="83" y="575" on="1"/>
      </contour>
    </TTGlyph>
    <TTGlyph name="ampersand" xMin="60" yMin="-6" xMax="686" yMax="756">
      <contour>
        <pt x="631" y="-6" on="1"/>
        <pt x="487" y="161" on="1"/>
        <pt x="487" y="124" on="1"/>
        <pt x="487" y="54" on="0"/>
        <pt x="467" y="29" on="1"/>
        <pt x="443" y="-1" on="0"/>
        <pt x="371" y="-1" on="1"/>
        <pt x="180" y="-1" on="1"/>
        <pt x="96" y="-1" on="0"/>
        <pt x="76" y="28" on="1"/>
        <pt x="64" y="44" on="0"/>
        <pt x="60" y="98" on="0"/>
        <pt x="60" y="140" on="1"/>
        <pt x="60" y="274" on="1"/>
        <pt x="254" y="440" on="1"/>
        <pt x="162" y="550" on="1"/>
        <pt x="162" y="631" on="1"/>
        <pt x="162" y="703" on="0"/>
        <pt x="190" y="741" on="0"/>
        <pt x="233" y="756" on="0"/>
        <pt x="271" y="756" on="1"/>
        <pt x="336" y="756" on="1"/>
        <pt x="421" y="756" on="0"/>
        <pt x="444" y="727" on="1"/>
        <pt x="456" y="711" on="0"/>
        <pt x="463" y="657" on="0"/>
        <pt x="463" y="615" on="1"/>
        <pt x="463" y="523" on="1"/>
        <pt x="355" y="436" on="1"/>
        <pt x="440" y="334" on="1"/>
        <pt x="559" y="432" on="1"/>
        <pt x="607" y="378" on="1"/>
        <pt x="487" y="279" on="1"/>
        <pt x="686" y="40" on="1"/>
      </contour>
      <contour>
        <pt x="311" y="490" on="1"/>
        <pt x="396" y="559" on="1"/>
        <pt x="396" y="617" on="1"/>
        <pt x="396" y="664" on="0"/>
        <pt x="382" y="683" on="0"/>
        <pt x="358" y="688" on="0"/>
        <pt x="336" y="688" on="1"/>
        <pt x="293" y="688" on="1"/>
        <pt x="252" y="688" on="0"/>
        <pt x="234" y="670" on="0"/>
        <pt x="231" y="645" on="0"/>
        <pt x="231" y="626" on="1"/>
        <pt x="231" y="571" on="1"/>
      </contour>
      <contour>
        <pt x="360" y="67" on="1"/>
        <pt x="401" y="67" on="0"/>
        <pt x="416" y="85" on="0"/>
        <pt x="418" y="109" on="0"/>
        <pt x="418" y="129" on="1"/>
        <pt x="418" y="243" on="1"/>
        <pt x="298" y="390" on="1"/>
        <pt x="127" y="238" on="1"/>
        <pt x="127" y="138" on="1"/>
        <pt x="127" y="92" on="0"/>
        <pt x="143" y="72" on="0"/>
        <pt x="169" y="67" on="0"/>
        <pt x="191" y="67" on="1"/>
      </contour>
    </TTGlyph>
    <TTGlyph name="aogonek" xMin="20" yMin="-217" xMax="453" yMax="500">
      <contour>
        <pt x="453" y="68" on="1"/>
        <pt x="453" y="0" on="1"/>
        <pt x="105" y="0" on="1"/>
        <pt x="54" y="0" on="0"/>
        <pt x="36" y="20" on="1"/>
        <pt x="20" y="38" on="0"/>
        <pt x="20" y="88" on="1"/>
        <pt x="20" y="125" on="1"/>
        <pt x="20" y="161" on="0"/>
        <pt x="29" y="174" on="1"/>
        <pt x="42" y="193" on="0"/>
        <pt x="88" y="221" on="1"/>
        <pt x="308" y="358" on="1"/>
        <pt x="308" y="432" on="1"/>
        <pt x="112" y="432" on="1"/>
        <pt x="112" y="374" on="1"/>
        <pt x="48" y="374" on="1"/>
        <pt x="48" y="500" on="1"/>
        <pt x="298" y="500" on="1"/>
        <pt x="349" y="500" on="0"/>
        <pt x="390" y="456" on="0"/>
        <pt x="390" y="414" on="1"/>
        <pt x="390" y="68" on="1"/>
      </contour>
      <contour>
        <pt x="308" y="278" on="1"/>
        <pt x="100" y="148" on="1"/>
        <pt x="100" y="68" on="1"/>
        <pt x="308" y="68" on="1"/>
      </contour>
      <contour>
        <pt x="453" y="0" on="1"/>
        <pt x="345" y="-89" on="1"/>
        <pt x="345" y="-164" on="1"/>
        <pt x="433" y="-164" on="1"/>
        <pt x="433" y="-217" on="1"/>
        <pt x="351" y="-217" on="1"/>
        <pt x="309" y="-217" on="0"/>
        <pt x="283" y="-177" on="0"/>
        <pt x="283" y="-149" on="1"/>
        <pt x="283" y="-118" on="1"/>
        <pt x="283" y="-89" on="0"/>
        <pt x="301" y="-62" on="0"/>
        <pt x="322" y="-45" on="0"/>
        <pt x="337" y="-34" on="1"/>
        <pt x="381" y="0" on="1"/>
      </contour>
    </TTGlyph>
    <TTGlyph name="aring" xMin="20" yMin="0" xMax="453" yMax="712">
      <contour>
        <pt x="453" y="68" on="1"/>
        <pt x="453" y="0" on="1"/>
        <pt x="105" y="0" on="1"/>
        <pt x="54" y="0" on="0"/>
        <pt x="36" y="20" on="1"/>
        <pt x="20" y="38" on="0"/>
        <pt x="20" y="88" on="1"/>
        <pt x="20" y="125" on="1"/>
        <pt x="20" y="161" on="0"/>
        <pt x="29" y="174" on="1"/>
        <pt x="42" y="193" on="0"/>
        <pt x="88" y="221" on="1"/>
        <pt x="308" y="358" on="1"/>
        <pt x="308" y="432" on="1"/>
        <pt x="112" y="432" on="1"/>
        <pt x="112" y="374" on="1"/>
        <pt x="48" y="374" on="1"/>
        <pt x="48" y="500" on="1"/>
        <pt x="298" y="500" on="1"/>
        <pt x="349" y="500" on="0"/>
        <pt x="390" y="456" on="0"/>
        <pt x="390" y="414" on="1"/>
        <pt x="390" y="68" on="1"/>
      </contour>
      <contour>
        <pt x="308" y="278" on="1"/>
        <pt x="100" y="148" on="1"/>
        <pt x="100" y="68" on="1"/>
        <pt x="308" y="68" on="1"/>
      </contour>
      <contour>
        <pt x="117" y="660" on="0"/>
        <pt x="169" y="712" on="0"/>
        <pt x="207" y="712" on="1"/>
        <pt x="243" y="712" on="0"/>
        <pt x="295" y="660" on="0"/>
        <pt x="295" y="586" on="0"/>
        <pt x="243" y="534" on="0"/>
        <pt x="206" y="534" on="1"/>
        <pt x="168" y="534" on="0"/>
        <pt x="143" y="560" on="1"/>
        <pt x="117" y="588" on="0"/>
      </contour>
      <contour>
        <pt x="166" y="624" on="1"/>
        <pt x="166" y="607" on="0"/>
        <pt x="189" y="583" on="0"/>
        <pt x="206" y="583" on="1"/>
        <pt x="223" y="583" on="0"/>
        <pt x="247" y="607" on="0"/>
        <pt x="247" y="640" on="0"/>
        <pt x="223" y="664" on="0"/>
        <pt x="190" y="664" on="0"/>
        <pt x="166" y="641" on="0"/>
      </contour>
    </TTGlyph>
    <TTGlyph name="asciicircum" xMin="80" yMin="375" xMax="516" yMax="750">
      <contour>
        <pt x="516" y="375" on="1"/>
        <pt x="447" y="375" on="1"/>
        <pt x="301" y="679" on="1"/>
        <pt x="150" y="375" on="1"/>
        <pt x="80" y="375" on="1"/>
        <pt x="272" y="750" on="1"/>
        <pt x="334" y="750" on="1"/>
      </contour>
    </TTGlyph>
    <TTGlyph name="asciitilde" xMin="40" yMin="243" xMax="555" yMax="385">
      <contour>
        <pt x="40" y="287" on="1"/>
        <pt x="111" y="385" on="0"/>
        <pt x="182" y="385" on="1"/>
        <pt x="227" y="385" on="0"/>
        <pt x="310" y="346" on="1"/>
        <pt x="341" y="331" on="0"/>
        <pt x="393" y="306" on="0"/>
        <pt x="411" y="306" on="1"/>
        <pt x="458" y="306" on="0"/>
        <pt x="496" y="348" on="1"/>
        <pt x="507" y="360" on="0"/>
        <pt x="516" y="371" on="1"/>
        <pt x="555" y="335" on="1"/>
        <pt x="479" y="243" on="0"/>
        <pt x="412" y="243" on="1"/>
        <pt x="380" y="243" on="0"/>
        <pt x="265" y="296" on="0"/>
        <pt x="205" y="320" on="0"/>
        <pt x="168" y="320" on="0"/>
        <pt x="144" y="313" on="0"/>
        <pt x="133" y="304" on="1"/>
        <pt x="113" y="289" on="0"/>
        <pt x="85" y="253" on="1"/>
      </contour>
    </TTGlyph>
    <TTGlyph name="asterisk" xMin="40" yMin="419" xMax="367" yMax="761">
      <contour>
        <pt x="262" y="592" on="1"/>
        <pt x="365" y="533" on="1"/>
        <pt x="336" y="483" on="1"/>
        <pt x="232" y="538" on="1"/>
        <pt x="232" y="419" on="1"/>
        <pt x="174" y="419" on="1"/>
        <pt x="174" y="539" on="1"/>
        <pt x="69" y="482" on="1"/>
        <pt x="40" y="538" on="1"/>
        <pt x="141" y="592" on="1"/>
        <pt x="42" y="652" on="1"/>
        <pt x="69" y="703" on="1"/>
        <pt x="174" y="643" on="1"/>
        <pt x="174" y="761" on="1"/>
        <pt x="232" y="761" on="1"/>
        <pt x="232" y="643" on="1"/>
        <pt x="338" y="701" on="1"/>
        <pt x="367" y="651" on="1"/>
      </contour>
    </TTGlyph>
    <TTGlyph name="atilde" xMin="20" yMin="0" xMax="453" yMax="672">
      <contour>
        <pt x="453" y="68" on="1"/>
        <pt x="453" y="0" on="1"/>
        <pt x="105" y="0" on="1"/>
        <pt x="54" y="0" on="0"/>
        <pt x="36" y="20" on="1"/>
        <pt x="20" y="38" on="0"/>
        <pt x="20" y="88" on="1"/>
        <pt x="20" y="125" on="1"/>
        <pt x="20" y="161" on="0"/>
        <pt x="29" y="174" on="1"/>
        <pt x="42" y="193" on="0"/>
        <pt x="88" y="221" on="1"/>
        <pt x="308" y="358" on="1"/>
        <pt x="308" y="432" on="1"/>
        <pt x="112" y="432" on="1"/>
        <pt x="112" y="374" on="1"/>
        <pt x="48" y="374" on="1"/>
        <pt x="48" y="500" on="1"/>
        <pt x="298" y="500" on="1"/>
        <pt x="349" y="500" on="0"/>
        <pt x="390" y="456" on="0"/>
        <pt x="390" y="414" on="1"/>
        <pt x="390" y="68" on="1"/>
      </contour>
      <contour>
        <pt x="308" y="278" on="1"/>
        <pt x="100" y="148" on="1"/>
        <pt x="100" y="68" on="1"/>
        <pt x="308" y="68" on="1"/>
      </contour>
      <contour>
        <pt x="375" y="638" on="1"/>
        <pt x="367" y="615" on="0"/>
        <pt x="347" y="596" on="1"/>
        <pt x="307" y="561" on="0"/>
        <pt x="275" y="561" on="1"/>
        <pt x="251" y="561" on="0"/>
        <pt x="188" y="598" on="0"/>
        <pt x="155" y="615" on="0"/>
        <pt x="122" y="615" on="0"/>
        <pt x="100" y="595" on="0"/>
        <pt x="86" y="566" on="1"/>
        <pt x="45" y="596" on="1"/>
        <pt x="52" y="618" on="0"/>
        <pt x="72" y="636" on="1"/>
        <pt x="109" y="672" on="0"/>
        <pt x="157" y="672" on="0"/>
        <pt x="198" y="655" on="0"/>
        <pt x="235" y="634" on="0"/>
        <pt x="265" y="617" on="0"/>
        <pt x="294" y="617" on="0"/>
        <pt x="329" y="647" on="0"/>
        <pt x="337" y="666" on="1"/>
      </contour>
    </TTGlyph>
    <TTGlyph name="b" xMin="40" yMin="0" xMax="477" yMax="750">
      <contour>
        <pt x="355" y="496" on="1"/>
        <pt x="377" y="510" on="0"/>
        <pt x="436" y="510" on="0"/>
        <pt x="477" y="466" on="0"/>
        <pt x="477" y="424" on="1"/>
        <pt x="477" y="88" on="1"/>
        <pt x="477" y="47" on="0"/>
        <pt x="464" y="30" on="1"/>
        <pt x="440" y="0" on="0"/>
        <pt x="391" y="0" on="1"/>
        <pt x="40" y="0" on="1"/>
        <pt x="40" y="68" on="1"/>
        <pt x="103" y="68" on="1"/>
        <pt x="103" y="682" on="1"/>
        <pt x="40" y="682" on="1"/>
        <pt x="40" y="750" on="1"/>
        <pt x="185" y="750" on="1"/>
        <pt x="185" y="389" on="1"/>
      </contour>
      <contour>
        <pt x="397" y="442" on="1"/>
        <pt x="185" y="309" on="1"/>
        <pt x="185" y="68" on="1"/>
        <pt x="397" y="68" on="1"/>
      </contour>
    </TTGlyph>
    <TTGlyph name="backslash" xMin="5" yMin="-150" xMax="414" yMax="870">
      <contour>
        <pt x="5" y="870" on="1"/>
        <pt x="83" y="870" on="1"/>
        <pt x="414" y="-150" on="1"/>
        <pt x="337" y="-150" on="1"/>
      </contour>
    </TTGlyph>
    <TTGlyph name="bar" xMin="100" yMin="-151" xMax="170" yMax="871">
      <contour>
        <pt x="100" y="-151" on="1"/>
        <pt x="100" y="871" on="1"/>
        <pt x="170" y="871" on="1"/>
        <pt x="170" y="-151" on="1"/>
      </contour>
    </TTGlyph>
    <TTGlyph name="braceleft" xMin="50" yMin="-151" xMax="319" yMax="873">
      <contour>
        <pt x="211" y="523" on="1"/>
        <pt x="211" y="404" on="0"/>
        <pt x="108" y="361" on="1"/>
        <pt x="211" y="318" on="0"/>
        <pt x="211" y="199" on="1"/>
        <pt x="211" y="78" on="1"/>
        <pt x="211" y="-18" on="0"/>
        <pt x="237" y="-81" on="0"/>
        <pt x="281" y="-110" on="0"/>
        <pt x="319" y="-110" on="1"/>
        <pt x="319" y="-151" on="1"/>
        <pt x="207" y="-151" on="0"/>
        <pt x="170" y="-97" on="1"/>
        <pt x="152" y="-71" on="0"/>
        <pt x="143" y="6" on="0"/>
        <pt x="143" y="56" on="1"/>
        <pt x="143" y="199" on="1"/>
        <pt x="143" y="302" on="0"/>
        <pt x="50" y="341" on="1"/>
        <pt x="50" y="381" on="1"/>
        <pt x="143" y="420" on="0"/>
        <pt x="143" y="523" on="1"/>
        <pt x="143" y="666" on="1"/>
        <pt x="143" y="715" on="0"/>
        <pt x="152" y="793" on="0"/>
        <pt x="170" y="819" on="1"/>
        <pt x="207" y="873" on="0"/>
        <pt x="319" y="873" on="1"/>
        <pt x="319" y="832" on="1"/>
        <pt x="249" y="832" on="0"/>
        <pt x="226" y="778" on="1"/>
        <pt x="211" y="740" on="0"/>
        <pt x="211" y="644" on="1"/>
      </contour>
    </TTGlyph>
    <TTGlyph name="braceright" xMin="10" yMin="-151" xMax="279" yMax="873">
      <contour>
        <pt x="221" y="361" on="1"/>
        <pt x="118" y="404" on="0"/>
        <pt x="118" y="523" on="1"/>
        <pt x="118" y="644" on="1"/>
        <pt x="118" y="740" on="0"/>
        <pt x="92" y="803" on="0"/>
        <pt x="48" y="832" on="0"/>
        <pt x="10" y="832" on="1"/>
        <pt x="10" y="873" on="1"/>
        <pt x="122" y="873" on="0"/>
        <pt x="159" y="819" on="1"/>
        <pt x="177" y="793" on="0"/>
        <pt x="186" y="715" on="0"/>
        <pt x="186" y="666" on="1"/>
        <pt x="186" y="523" on="1"/>
        <pt x="186" y="420" on="0"/>
        <pt x="279" y="381" on="1"/>
        <pt x="279" y="341" on="1"/>
        <pt x="186" y="302" on="0"/>
        <pt x="186" y="199" on="1"/>
        <pt x="186" y="56" on="1"/>
        <pt x="186" y="6" on="0"/>
        <pt x="177" y="-71" on="0"/>
        <pt x="159" y="-97" on="1"/>
        <pt x="122" y="-151" on="0"/>
        <pt x="10" y="-151" on="1"/>
        <pt x="10" y="-110" on="1"/>
        <pt x="80" y="-110" on="0"/>
        <pt x="102" y="-56" on="1"/>
        <pt x="118" y="-18" on="0"/>
        <pt x="118" y="78" on="1"/>
        <pt x="118" y="199" on="1"/>
        <pt x="118" y="318" on="0"/>
      </contour>
    </TTGlyph>
    <TTGlyph name="bracketleft" xMin="80" yMin="-149" xMax="254" yMax="870">
      <contour>
        <pt x="152" y="-149" on="1"/>
        <pt x="116" y="-149" on="0"/>
        <pt x="80" y="-120" on="0"/>
        <pt x="80" y="-84" on="1"/>
        <pt x="80" y="804" on="1"/>
        <pt x="80" y="840" on="0"/>
        <pt x="116" y="870" on="0"/>
        <pt x="152" y="870" on="1"/>
        <pt x="254" y="870" on="1"/>
        <pt x="254" y="821" on="1"/>
        <pt x="150" y="821" on="1"/>
        <pt x="150" y="-99" on="1"/>
        <pt x="254" y="-99" on="1"/>
        <pt x="254" y="-149" on="1"/>
      </contour>
    </TTGlyph>
    <TTGlyph name="bracketright" xMin="5" yMin="-149" xMax="179" yMax="870">
      <contour>
        <pt x="107" y="870" on="1"/>
        <pt x="143" y="870" on="0"/>
        <pt x="179" y="841" on="0"/>
        <pt x="179" y="805" on="1"/>
        <pt x="179" y="-83" on="1"/>
        <pt x="179" y="-119" on="0"/>
        <pt x="143" y="-149" on="0"/>
        <pt x="107" y="-149" on="1"/>
        <pt x="5" y="-149" on="1"/>
        <pt x="5" y="-100" on="1"/>
        <pt x="109" y="-100" on="1"/>
        <pt x="109" y="820" on="1"/>
        <pt x="5" y="820" on="1"/>
        <pt x="5" y="870" on="1"/>
      </contour>
    </TTGlyph>
    <TTGlyph name="breve" xMin="21" yMin="544" xMax="328" yMax="697">
      <contour>
        <pt x="328" y="697" on="1"/>
        <pt x="328" y="632" on="0"/>
        <pt x="283" y="588" on="1"/>
        <pt x="237" y="544" on="0"/>
        <pt x="175" y="544" on="1"/>
        <pt x="111" y="544" on="0"/>
        <pt x="21" y="634" on="0"/>
        <pt x="21" y="697" on="1"/>
        <pt x="74" y="697" on="1"/>
        <pt x="74" y="657" on="0"/>
        <pt x="133" y="598" on="0"/>
        <pt x="175" y="598" on="1"/>
        <pt x="216" y="598" on="0"/>
        <pt x="275" y="657" on="0"/>
        <pt x="275" y="697" on="1"/>
      </contour>
    </TTGlyph>
    <TTGlyph name="brokenbar" xMin="100" yMin="-150" xMax="169" yMax="750">
      <contour>
        <pt x="169" y="750" on="1"/>
        <pt x="169" y="389" on="1"/>
        <pt x="100" y="389" on="1"/>
        <pt x="100" y="750" on="1"/>
      </contour>
      <contour>
        <pt x="169" y="212" on="1"/>
        <pt x="169" y="-150" on="1"/>
        <pt x="100" y="-150" on="1"/>
        <pt x="100" y="212" on="1"/>
      </contour>
    </TTGlyph>
    <TTGlyph name="bullet" xMin="87" yMin="252" xMax="342" yMax="510">
      <contour>
        <pt x="87" y="382" on="1"/>
        <pt x="87" y="408" on="0"/>
        <pt x="107" y="455" on="0"/>
        <pt x="124" y="472" on="1"/>
        <pt x="164" y="510" on="0"/>
        <pt x="269" y="510" on="0"/>
        <pt x="305" y="472" on="1"/>
        <pt x="342" y="434" on="0"/>
        <pt x="342" y="382" on="1"/>
        <pt x="342" y="329" on="0"/>
        <pt x="305" y="290" on="1"/>
        <pt x="269" y="252" on="0"/>
        <pt x="216" y="252" on="1"/>
        <pt x="162" y="252" on="0"/>
        <pt x="126" y="290" on="1"/>
        <pt x="87" y="330" on="0"/>
      </contour>
    </TTGlyph>
    <TTGlyph name="c" xMin="50" yMin="0" xMax="386" yMax="501">
      <contour>
        <pt x="386" y="0" on="1"/>
        <pt x="137" y="0" on="1"/>
        <pt x="65" y="0" on="0"/>
        <pt x="54" y="54" on="1"/>
        <pt x="50" y="70" on="0"/>
        <pt x="50" y="88" on="1"/>
        <pt x="50" y="412" on="1"/>
        <pt x="50" y="454" on="0"/>
        <pt x="97" y="501" on="0"/>
        <pt x="145" y="501" on="1"/>
        <pt x="386" y="501" on="1"/>
        <pt x="386" y="374" on="1"/>
        <pt x="318" y="374" on="1"/>
        <pt x="318" y="432" on="1"/>
        <pt x="130" y="432" on="1"/>
        <pt x="130" y="68" on="1"/>
        <pt x="318" y="68" on="1"/>
        <pt x="318" y="126" on="1"/>
        <pt x="386" y="126" on="1"/>
      </contour>
    </TTGlyph>
    <TTGlyph name="cacute" xMin="50" yMin="0" xMax="386" yMax="682">
      <contour>
        <pt x="386" y="126" on="1"/>
        <pt x="318" y="126" on="1"/>
        <pt x="318" y="68" on="1"/>
        <pt x="130" y="68" on="1"/>
        <pt x="130" y="432" on="1"/>
        <pt x="318" y="432" on="1"/>
        <pt x="318" y="374" on="1"/>
        <pt x="386" y="374" on="1"/>
        <pt x="386" y="501" on="1"/>
        <pt x="145" y="501" on="1"/>
        <pt x="97" y="501" on="0"/>
        <pt x="50" y="454" on="0"/>
        <pt x="50" y="412" on="1"/>
        <pt x="50" y="88" on="1"/>
        <pt x="50" y="46" on="0"/>
        <pt x="64" y="30" on="1"/>
        <pt x="89" y="0" on="0"/>
        <pt x="137" y="0" on="1"/>
        <pt x="386" y="0" on="1"/>
      </contour>
      <contour>
        <pt x="231" y="682" on="1"/>
        <pt x="302" y="682" on="1"/>
        <pt x="197" y="559" on="1"/>
        <pt x="124" y="559" on="1"/>
      </contour>
    </TTGlyph>
    <TTGlyph name="caron" xMin="3" yMin="559" xMax="289" yMax="682">
      <contour>
        <pt x="182" y="559" on="1"/>
        <pt x="115" y="559" on="1"/>
        <pt x="3" y="682" on="1"/>
        <pt x="77" y="682" on="1"/>
        <pt x="147" y="602" on="1"/>
        <pt x="216" y="682" on="1"/>
        <pt x="289" y="682" on="1"/>
      </contour>
    </TTGlyph>
    <TTGlyph name="ccaron" xMin="50" yMin="0" xMax="386" yMax="682">
      <contour>
        <pt x="386" y="0" on="1"/>
        <pt x="137" y="0" on="1"/>
        <pt x="65" y="0" on="0"/>
        <pt x="54" y="54" on="1"/>
        <pt x="50" y="70" on="0"/>
        <pt x="50" y="88" on="1"/>
        <pt x="50" y="412" on="1"/>
        <pt x="50" y="454" on="0"/>
        <pt x="97" y="501" on="0"/>
        <pt x="145" y="501" on="1"/>
        <pt x="386" y="501" on="1"/>
        <pt x="386" y="374" on="1"/>
        <pt x="318" y="374" on="1"/>
        <pt x="318" y="432" on="1"/>
        <pt x="130" y="432" on="1"/>
        <pt x="130" y="68" on="1"/>
        <pt x="318" y="68" on="1"/>
        <pt x="318" y="126" on="1"/>
        <pt x="386" y="126" on="1"/>
      </contour>
      <contour>
        <pt x="249" y="559" on="1"/>
        <pt x="182" y="559" on="1"/>
        <pt x="70" y="682" on="1"/>
        <pt x="144" y="682" on="1"/>
        <pt x="214" y="602" on="1"/>
        <pt x="283" y="682" on="1"/>
        <pt x="356" y="682" on="1"/>
      </contour>
    </TTGlyph>
    <TTGlyph name="ccedilla" xMin="50" yMin="-217" xMax="386" yMax="501">
      <contour>
        <pt x="128" y="0" on="1"/>
        <pt x="50" y="3" on="0"/>
        <pt x="50" y="88" on="1"/>
        <pt x="50" y="412" on="1"/>
        <pt x="50" y="454" on="0"/>
        <pt x="97" y="501" on="0"/>
        <pt x="145" y="501" on="1"/>
        <pt x="386" y="501" on="1"/>
        <pt x="386" y="374" on="1"/>
        <pt x="318" y="374" on="1"/>
        <pt x="318" y="432" on="1"/>
        <pt x="130" y="432" on="1"/>
        <pt x="130" y="68" on="1"/>
        <pt x="318" y="68" on="1"/>
        <pt x="318" y="126" on="1"/>
        <pt x="386" y="126" on="1"/>
        <pt x="386" y="0" on="1"/>
        <pt x="187" y="0" on="1"/>
        <pt x="187" y="-42" on="1"/>
        <pt x="224" y="-42" on="1"/>
        <pt x="262" y="-42" on="0"/>
        <pt x="298" y="-80" on="0"/>
        <pt x="298" y="-112" on="1"/>
        <pt x="298" y="-149" on="1"/>
        <pt x="298" y="-177" on="0"/>
        <pt x="272" y="-217" on="0"/>
        <pt x="230" y="-217" on="1"/>
        <pt x="128" y="-217" on="1"/>
        <pt x="128" y="-164" on="1"/>
        <pt x="236" y="-164" on="1"/>
        <pt x="236" y="-97" on="1"/>
        <pt x="128" y="-97" on="1"/>
      </contour>
    </TTGlyph>
    <TTGlyph name="ccircumflex" xMin="50" yMin="0" xMax="386" yMax="682">
      <contour>
        <pt x="386" y="0" on="1"/>
        <pt x="137" y="0" on="1"/>
        <pt x="65" y="0" on="0"/>
        <pt x="54" y="54" on="1"/>
        <pt x="50" y="70" on="0"/>
        <pt x="50" y="88" on="1"/>
        <pt x="50" y="412" on="1"/>
        <pt x="50" y="454" on="0"/>
        <pt x="97" y="501" on="0"/>
        <pt x="145" y="501" on="1"/>
        <pt x="386" y="501" on="1"/>
        <pt x="386" y="374" on="1"/>
        <pt x="318" y="374" on="1"/>
        <pt x="318" y="432" on="1"/>
        <pt x="130" y="432" on="1"/>
        <pt x="130" y="68" on="1"/>
        <pt x="318" y="68" on="1"/>
        <pt x="318" y="126" on="1"/>
        <pt x="386" y="126" on="1"/>
      </contour>
      <contour>
        <pt x="356" y="559" on="1"/>
        <pt x="283" y="559" on="1"/>
        <pt x="214" y="639" on="1"/>
        <pt x="144" y="559" on="1"/>
        <pt x="70" y="559" on="1"/>
        <pt x="182" y="682" on="1"/>
        <pt x="249" y="682" on="1"/>
      </contour>
    </TTGlyph>
    <TTGlyph name="cdotaccent" xMin="50" yMin="0" xMax="386" yMax="668">
      <contour>
        <pt x="386" y="0" on="1"/>
        <pt x="137" y="0" on="1"/>
        <pt x="65" y="0" on="0"/>
        <pt x="54" y="54" on="1"/>
        <pt x="50" y="70" on="0"/>
        <pt x="50" y="88" on="1"/>
        <pt x="50" y="412" on="1"/>
        <pt x="50" y="454" on="0"/>
        <pt x="97" y="501" on="0"/>
        <pt x="145" y="501" on="1"/>
        <pt x="386" y="501" on="1"/>
        <pt x="386" y="374" on="1"/>
        <pt x="318" y="374" on="1"/>
        <pt x="318" y="432" on="1"/>
        <pt x="130" y="432" on="1"/>
        <pt x="130" y="68" on="1"/>
        <pt x="318" y="68" on="1"/>
        <pt x="318" y="126" on="1"/>
        <pt x="386" y="126" on="1"/>
      </contour>
      <contour>
        <pt x="231" y="668" on="0"/>
        <pt x="256" y="641" on="0"/>
        <pt x="256" y="605" on="0"/>
        <pt x="231" y="580" on="0"/>
        <pt x="195" y="580" on="0"/>
        <pt x="170" y="605" on="0"/>
        <pt x="170" y="641" on="0"/>
        <pt x="196" y="668" on="0"/>
      </contour>
    </TTGlyph>
    <TTGlyph name="cedilla" xMin="0" yMin="-217" xMax="170" yMax="2">
      <contour>
        <pt x="0" y="2" on="1"/>
        <pt x="59" y="2" on="1"/>
        <pt x="59" y="-42" on="1"/>
        <pt x="96" y="-42" on="1"/>
        <pt x="134" y="-42" on="0"/>
        <pt x="170" y="-80" on="0"/>
        <pt x="170" y="-112" on="1"/>
        <pt x="170" y="-149" on="1"/>
        <pt x="170" y="-177" on="0"/>
        <pt x="144" y="-217" on="0"/>
        <pt x="102" y="-217" on="1"/>
        <pt x="0" y="-217" on="1"/>
        <pt x="0" y="-164" on="1"/>
        <pt x="108" y="-164" on="1"/>
        <pt x="108" y="-97" on="1"/>
        <pt x="0" y="-97" on="1"/>
      </contour>
    </TTGlyph>
    <TTGlyph name="cent" xMin="50" yMin="-117" xMax="403" yMax="586">
      <contour>
        <pt x="210" y="-117" on="1"/>
        <pt x="210" y="0" on="1"/>
        <pt x="137" y="0" on="1"/>
        <pt x="65" y="0" on="0"/>
        <pt x="54" y="54" on="1"/>
        <pt x="50" y="70" on="0"/>
        <pt x="50" y="88" on="1"/>
        <pt x="50" y="412" on="1"/>
        <pt x="50" y="454" on="0"/>
        <pt x="97" y="501" on="0"/>
        <pt x="145" y="501" on="1"/>
        <pt x="210" y="501" on="1"/>
        <pt x="210" y="586" on="1"/>
        <pt x="269" y="586" on="1"/>
        <pt x="269" y="501" on="1"/>
        <pt x="403" y="501" on="1"/>
        <pt x="403" y="374" on="1"/>
        <pt x="335" y="374" on="1"/>
        <pt x="335" y="432" on="1"/>
        <pt x="269" y="432" on="1"/>
        <pt x="269" y="68" on="1"/>
        <pt x="335" y="68" on="1"/>
        <pt x="335" y="126" on="1"/>
        <pt x="403" y="126" on="1"/>
        <pt x="403" y="0" on="1"/>
        <pt x="269" y="0" on="1"/>
        <pt x="269" y="-117" on="1"/>
      </contour>
      <contour>
        <pt x="130" y="68" on="1"/>
        <pt x="210" y="68" on="1"/>
        <pt x="210" y="432" on="1"/>
        <pt x="130" y="432" on="1"/>
      </contour>
    </TTGlyph>
    <TTGlyph name="circumflex" xMin="3" yMin="559" xMax="289" yMax="682">
      <contour>
        <pt x="289" y="559" on="1"/>
        <pt x="216" y="559" on="1"/>
        <pt x="147" y="639" on="1"/>
        <pt x="77" y="559" on="1"/>
        <pt x="3" y="559" on="1"/>
        <pt x="115" y="682" on="1"/>
        <pt x="182" y="682" on="1"/>
      </contour>
    </TTGlyph>
    <TTGlyph name="colon" xMin="60" yMin="-4" xMax="161" yMax="458">
      <contour>
        <pt x="132" y="99" on="0"/>
        <pt x="161" y="67" on="0"/>
        <pt x="161" y="25" on="0"/>
        <pt x="132" y="-4" on="0"/>
        <pt x="90" y="-4" on="0"/>
        <pt x="60" y="25" on="0"/>
        <pt x="60" y="67" on="0"/>
        <pt x="91" y="99" on="0"/>
      </contour>
      <contour>
        <pt x="132" y="458" on="0"/>
        <pt x="161" y="427" on="0"/>
        <pt x="161" y="383" on="0"/>
        <pt x="132" y="354" on="0"/>
        <pt x="90" y="354" on="0"/>
        <pt x="60" y="383" on="0"/>
        <pt x="60" y="427" on="0"/>
        <pt x="91" y="458" on="0"/>
      </contour>
    </TTGlyph>
    <TTGlyph name="comma" xMin="20" yMin="-150" xMax="171" yMax="98">
      <contour>
        <pt x="93" y="-150" on="1"/>
        <pt x="20" y="-150" on="1"/>
        <pt x="97" y="98" on="1"/>
        <pt x="171" y="98" on="1"/>
      </contour>
    </TTGlyph>
    <TTGlyph name="copyright" xMin="55" yMin="-11" xMax="826" yMax="759">
      <contour>
        <pt x="765" y="593" on="0"/>
        <pt x="826" y="452" on="0"/>
        <pt x="826" y="293" on="0"/>
        <pt x="765" y="153" on="0"/>
        <pt x="661" y="49" on="0"/>
        <pt x="520" y="-11" on="0"/>
        <pt x="361" y="-11" on="0"/>
        <pt x="221" y="49" on="0"/>
        <pt x="116" y="153" on="0"/>
        <pt x="55" y="293" on="0"/>
        <pt x="55" y="452" on="0"/>
        <pt x="116" y="593" on="0"/>
        <pt x="221" y="698" on="0"/>
        <pt x="362" y="759" on="0"/>
        <pt x="521" y="759" on="0"/>
        <pt x="661" y="698" on="0"/>
      </contour>
      <contour>
        <pt x="708" y="191" on="0"/>
        <pt x="758" y="306" on="0"/>
        <pt x="758" y="437" on="0"/>
        <pt x="708" y="553" on="0"/>
        <pt x="622" y="640" on="0"/>
        <pt x="507" y="691" on="0"/>
        <pt x="441" y="691" on="1"/>
        <pt x="375" y="691" on="0"/>
        <pt x="258" y="641" on="0"/>
        <pt x="214" y="598" on="1"/>
        <pt x="121" y="504" on="0"/>
        <pt x="121" y="373" on="1"/>
        <pt x="121" y="242" on="0"/>
        <pt x="214" y="148" on="1"/>
        <pt x="258" y="105" on="0"/>
        <pt x="375" y="55" on="0"/>
        <pt x="441" y="55" on="1"/>
        <pt x="572" y="55" on="0"/>
        <pt x="665" y="148" on="1"/>
      </contour>
      <contour>
        <pt x="582" y="134" on="1"/>
        <pt x="346" y="134" on="1"/>
        <pt x="279" y="134" on="0"/>
        <pt x="268" y="185" on="1"/>
        <pt x="264" y="200" on="0"/>
        <pt x="264" y="217" on="1"/>
        <pt x="264" y="523" on="1"/>
        <pt x="264" y="563" on="0"/>
        <pt x="309" y="607" on="0"/>
        <pt x="354" y="607" on="1"/>
        <pt x="582" y="607" on="1"/>
        <pt x="582" y="487" on="1"/>
        <pt x="517" y="487" on="1"/>
        <pt x="517" y="542" on="1"/>
        <pt x="340" y="542" on="1"/>
        <pt x="340" y="198" on="1"/>
        <pt x="517" y="198" on="1"/>
        <pt x="517" y="253" on="1"/>
        <pt x="582" y="253" on="1"/>
      </contour>
    </TTGlyph>
    <TTGlyph name="currency" xMin="27" yMin="88" xMax="464" yMax="523">
      <contour>
        <pt x="379" y="138" on="1"/>
        <pt x="325" y="90" on="0"/>
        <pt x="165" y="90" on="0"/>
        <pt x="112" y="137" on="1"/>
        <pt x="64" y="88" on="1"/>
        <pt x="27" y="125" on="1"/>
        <pt x="76" y="174" on="1"/>
        <pt x="28" y="230" on="0"/>
        <pt x="30" y="305" on="1"/>
        <pt x="30" y="387" on="0"/>
        <pt x="76" y="437" on="1"/>
        <pt x="27" y="486" on="1"/>
        <pt x="64" y="523" on="1"/>
        <pt x="112" y="474" on="1"/>
        <pt x="172" y="521" on="0"/>
        <pt x="316" y="521" on="0"/>
        <pt x="379" y="474" on="1"/>
        <pt x="427" y="523" on="1"/>
        <pt x="464" y="487" on="1"/>
        <pt x="414" y="437" on="1"/>
        <pt x="460" y="385" on="0"/>
        <pt x="460" y="226" on="0"/>
        <pt x="414" y="174" on="1"/>
        <pt x="464" y="124" on="1"/>
        <pt x="427" y="88" on="1"/>
      </contour>
      <contour>
        <pt x="98" y="304" on="1"/>
        <pt x="98" y="273" on="0"/>
        <pt x="121" y="218" on="0"/>
        <pt x="141" y="197" on="1"/>
        <pt x="184" y="152" on="0"/>
        <pt x="245" y="152" on="1"/>
        <pt x="307" y="152" on="0"/>
        <pt x="351" y="198" on="1"/>
        <pt x="393" y="242" on="0"/>
        <pt x="393" y="305" on="1"/>
        <pt x="393" y="366" on="0"/>
        <pt x="350" y="412" on="1"/>
        <pt x="309" y="457" on="0"/>
        <pt x="245" y="457" on="1"/>
        <pt x="184" y="457" on="0"/>
        <pt x="141" y="412" on="1"/>
        <pt x="98" y="368" on="0"/>
      </contour>
    </TTGlyph>
    <TTGlyph name="d" xMin="50" yMin="-10" xMax="487" yMax="750">
      <contour>
        <pt x="487" y="69" on="1"/>
        <pt x="487" y="0" on="1"/>
        <pt x="342" y="0" on="1"/>
        <pt x="342" y="115" on="1"/>
        <pt x="169" y="6" on="1"/>
        <pt x="138" y="-10" on="0"/>
        <pt x="83" y="-10" on="0"/>
        <pt x="50" y="30" on="0"/>
        <pt x="50" y="56" on="1"/>
        <pt x="50" y="406" on="1"/>
        <pt x="50" y="452" on="0"/>
        <pt x="64" y="469" on="1"/>
        <pt x="88" y="500" on="0"/>
        <pt x="140" y="500" on="1"/>
        <pt x="342" y="500" on="1"/>
        <pt x="342" y="682" on="1"/>
        <pt x="276" y="682" on="1"/>
        <pt x="276" y="750" on="1"/>
        <pt x="424" y="750" on="1"/>
        <pt x="424" y="69" on="1"/>
      </contour>
      <contour>
        <pt x="342" y="432" on="1"/>
        <pt x="130" y="432" on="1"/>
        <pt x="130" y="63" on="1"/>
        <pt x="342" y="195" on="1"/>
      </contour>
    </TTGlyph>
    <TTGlyph name="dagger" xMin="40" yMin="-197" xMax="509" yMax="750">
      <contour>
        <pt x="313" y="-197" on="1"/>
        <pt x="237" y="-197" on="1"/>
        <pt x="237" y="420" on="1"/>
        <pt x="40" y="420" on="1"/>
        <pt x="40" y="487" on="1"/>
        <pt x="237" y="487" on="1"/>
        <pt x="237" y="750" on="1"/>
        <pt x="313" y="750" on="1"/>
        <pt x="313" y="487" on="1"/>
        <pt x="509" y="487" on="1"/>
        <pt x="509" y="420" on="1"/>
        <pt x="313" y="420" on="1"/>
      </contour>
    </TTGlyph>
    <TTGlyph name="daggerdbl" xMin="40" yMin="-197" xMax="509" yMax="750">
      <contour>
        <pt x="313" y="60" on="1"/>
        <pt x="313" y="-197" on="1"/>
        <pt x="237" y="-197" on="1"/>
        <pt x="237" y="60" on="1"/>
        <pt x="40" y="60" on="1"/>
        <pt x="40" y="128" on="1"/>
        <pt x="237" y="128" on="1"/>
        <pt x="237" y="420" on="1"/>
        <pt x="40" y="420" on="1"/>
        <pt x="40" y="487" on="1"/>
        <pt x="237" y="487" on="1"/>
        <pt x="237" y="750" on="1"/>
        <pt x="313" y="750" on="1"/>
        <pt x="313" y="487" on="1"/>
        <pt x="509" y="487" on="1"/>
        <pt x="509" y="420" on="1"/>
        <pt x="313" y="420" on="1"/>
        <pt x="313" y="128" on="1"/>
        <pt x="509" y="128" on="1"/>
        <pt x="509" y="60" on="1"/>
      </contour>
    </TTGlyph>
    <TTGlyph name="dcaron" xMin="50" yMin="-10" xMax="604" yMax="750">
      <contour>
        <pt x="487" y="69" on="1"/>
        <pt x="487" y="0" on="1"/>
        <pt x="342" y="0" on="1"/>
        <pt x="342" y="115" on="1"/>
        <pt x="169" y="6" on="1"/>
        <pt x="138" y="-10" on="0"/>
        <pt x="83" y="-10" on="0"/>
        <pt x="50" y="30" on="0"/>
        <pt x="50" y="56" on="1"/>
        <pt x="50" y="406" on="1"/>
        <pt x="50" y="452" on="0"/>
        <pt x="64" y="469" on="1"/>
        <pt x="88" y="500" on="0"/>
        <pt x="140" y="500" on="1"/>
        <pt x="342" y="500" on="1"/>
        <pt x="342" y="682" on="1"/>
        <pt x="276" y="682" on="1"/>
        <pt x="276" y="750" on="1"/>
        <pt x="424" y="750" on="1"/>
        <pt x="424" y="69" on="1"/>
      </contour>
      <contour>
        <pt x="342" y="432" on="1"/>
        <pt x="130" y="432" on="1"/>
        <pt x="130" y="63" on="1"/>
        <pt x="342" y="195" on="1"/>
      </contour>
      <contour>
        <pt x="528" y="510" on="1"/>
        <pt x="455" y="510" on="1"/>
        <pt x="530" y="750" on="1"/>
        <pt x="604" y="750" on="1"/>
      </contour>
    </TTGlyph>
    <TTGlyph name="dcroat" xMin="50" yMin="-10" xMax="487" yMax="750">
      <contour>
        <pt x="342" y="632" on="1"/>
        <pt x="342" y="682" on="1"/>
        <pt x="276" y="682" on="1"/>
        <pt x="276" y="750" on="1"/>
        <pt x="424" y="750" on="1"/>
        <pt x="424" y="632" on="1"/>
        <pt x="487" y="632" on="1"/>
        <pt x="487" y="569" on="1"/>
        <pt x="424" y="569" on="1"/>
        <pt x="424" y="69" on="1"/>
        <pt x="487" y="69" on="1"/>
        <pt x="487" y="0" on="1"/>
        <pt x="342" y="0" on="1"/>
        <pt x="342" y="115" on="1"/>
        <pt x="169" y="6" on="1"/>
        <pt x="138" y="-10" on="0"/>
        <pt x="83" y="-10" on="0"/>
        <pt x="50" y="30" on="0"/>
        <pt x="50" y="56" on="1"/>
        <pt x="50" y="406" on="1"/>
        <pt x="50" y="452" on="0"/>
        <pt x="64" y="469" on="1"/>
        <pt x="88" y="500" on="0"/>
        <pt x="140" y="500" on="1"/>
        <pt x="342" y="500" on="1"/>
        <pt x="342" y="569" on="1"/>
        <pt x="260" y="569" on="1"/>
        <pt x="260" y="632" on="1"/>
      </contour>
      <contour>
        <pt x="342" y="432" on="1"/>
        <pt x="130" y="432" on="1"/>
        <pt x="130" y="63" on="1"/>
        <pt x="342" y="195" on="1"/>
      </contour>
    </TTGlyph>
    <TTGlyph name="degree" xMin="37" yMin="494" xMax="344" yMax="801">
      <contour>
        <pt x="37" y="648" on="1"/>
        <pt x="37" y="713" on="0"/>
        <pt x="82" y="756" on="1"/>
        <pt x="128" y="801" on="0"/>
        <pt x="192" y="801" on="1"/>
        <pt x="254" y="801" on="0"/>
        <pt x="344" y="711" on="0"/>
        <pt x="344" y="647" on="1"/>
        <pt x="344" y="582" on="0"/>
        <pt x="299" y="538" on="1"/>
        <pt x="253" y="494" on="0"/>
        <pt x="191" y="494" on="1"/>
        <pt x="127" y="494" on="0"/>
        <pt x="37" y="584" on="0"/>
      </contour>
      <contour>
        <pt x="90" y="650" on="1"/>
        <pt x="90" y="629" on="0"/>
        <pt x="106" y="592" on="0"/>
        <pt x="120" y="578" on="1"/>
        <pt x="148" y="548" on="0"/>
        <pt x="191" y="548" on="1"/>
        <pt x="232" y="548" on="0"/>
        <pt x="291" y="607" on="0"/>
        <pt x="291" y="648" on="1"/>
        <pt x="291" y="690" on="0"/>
        <pt x="232" y="749" on="0"/>
        <pt x="192" y="749" on="1"/>
        <pt x="149" y="749" on="0"/>
        <pt x="90" y="690" on="0"/>
      </contour>
    </TTGlyph>
    <TTGlyph name="dieresis" xMin="1" yMin="558" xMax="235" yMax="646">
      <contour>
        <pt x="62" y="646" on="0"/>
        <pt x="87" y="619" on="0"/>
        <pt x="87" y="583" on="0"/>
        <pt x="62" y="558" on="0"/>
        <pt x="26" y="558" on="0"/>
        <pt x="1" y="583" on="0"/>
        <pt x="1" y="619" on="0"/>
        <pt x="27" y="646" on="0"/>
      </contour>
      <contour>
        <pt x="210" y="646" on="0"/>
        <pt x="235" y="619" on="0"/>
        <pt x="235" y="583" on="0"/>
        <pt x="210" y="558" on="0"/>
        <pt x="174" y="558" on="0"/>
        <pt x="149" y="583" on="0"/>
        <pt x="149" y="619" on="0"/>
        <pt x="175" y="646" on="0"/>
      </contour>
    </TTGlyph>
    <TTGlyph name="divide" xMin="15" yMin="205" xMax="344" yMax="574">
      <contour>
        <pt x="15" y="420" on="1"/>
        <pt x="344" y="420" on="1"/>
        <pt x="344" y="354" on="1"/>
        <pt x="15" y="354" on="1"/>
      </contour>
      <contour>
        <pt x="200" y="308" on="0"/>
        <pt x="229" y="276" on="0"/>
        <pt x="229" y="234" on="0"/>
        <pt x="200" y="205" on="0"/>
        <pt x="158" y="205" on="0"/>
        <pt x="128" y="234" on="0"/>
        <pt x="128" y="276" on="0"/>
        <pt x="159" y="308" on="0"/>
      </contour>
      <contour>
        <pt x="200" y="574" on="0"/>
        <pt x="229" y="543" on="0"/>
        <pt x="229" y="499" on="0"/>
        <pt x="200" y="470" on="0"/>
        <pt x="158" y="470" on="0"/>
        <pt x="128" y="499" on="0"/>
        <pt x="128" y="543" on="0"/>
        <pt x="159" y="574" on="0"/>
      </contour>
    </TTGlyph>
    <TTGlyph name="dollar" xMin="80" yMin="-150" xMax="502" yMax="900">
      <contour>
        <pt x="256" y="-150" on="1"/>
        <pt x="256" y="0" on="1"/>
        <pt x="80" y="0" on="1"/>
        <pt x="80" y="185" on="1"/>
        <pt x="152" y="185" on="1"/>
        <pt x="152" y="68" on="1"/>
        <pt x="256" y="68" on="1"/>
        <pt x="256" y="365" on="1"/>
        <pt x="160" y="424" on="1"/>
        <pt x="125" y="444" on="0"/>
        <pt x="80" y="487" on="0"/>
        <pt x="80" y="524" on="1"/>
        <pt x="80" y="650" on="1"/>
        <pt x="80" y="709" on="0"/>
        <pt x="108" y="731" on="1"/>
        <pt x="132" y="750" on="0"/>
        <pt x="191" y="750" on="1"/>
        <pt x="256" y="750" on="1"/>
        <pt x="256" y="900" on="1"/>
        <pt x="326" y="900" on="1"/>
        <pt x="326" y="750" on="1"/>
        <pt x="493" y="750" on="1"/>
        <pt x="493" y="565" on="1"/>
        <pt x="421" y="565" on="1"/>
        <pt x="421" y="682" on="1"/>
        <pt x="326" y="682" on="1"/>
        <pt x="326" y="418" on="1"/>
        <pt x="408" y="367" on="1"/>
        <pt x="428" y="353" on="0"/>
        <pt x="463" y="332" on="0"/>
        <pt x="476" y="320" on="1"/>
        <pt x="502" y="296" on="0"/>
        <pt x="502" y="261" on="1"/>
        <pt x="502" y="91" on="1"/>
        <pt x="502" y="46" on="0"/>
        <pt x="470" y="22" on="1"/>
        <pt x="443" y="0" on="0"/>
        <pt x="399" y="0" on="1"/>
        <pt x="326" y="0" on="1"/>
        <pt x="326" y="-150" on="1"/>
      </contour>
      <contour>
        <pt x="326" y="322" on="1"/>
        <pt x="326" y="68" on="1"/>
        <pt x="422" y="68" on="1"/>
        <pt x="422" y="263" on="1"/>
      </contour>
      <contour>
        <pt x="256" y="462" on="1"/>
        <pt x="256" y="682" on="1"/>
        <pt x="160" y="682" on="1"/>
        <pt x="160" y="522" on="1"/>
      </contour>
    </TTGlyph>
    <TTGlyph name="dotaccent" xMin="0" yMin="580" xMax="86" yMax="668">
      <contour>
        <pt x="61" y="668" on="0"/>
        <pt x="86" y="641" on="0"/>
        <pt x="86" y="605" on="0"/>
        <pt x="61" y="580" on="0"/>
        <pt x="25" y="580" on="0"/>
        <pt x="0" y="605" on="0"/>
        <pt x="0" y="641" on="0"/>
        <pt x="26" y="668" on="0"/>
      </contour>
    </TTGlyph>
    <TTGlyph name="dotlessi" xMin="50" yMin="0" xMax="260" yMax="500">
      <contour>
        <pt x="195" y="68" on="1"/>
        <pt x="260" y="68" on="1"/>
        <pt x="260" y="0" on="1"/>
        <pt x="50" y="0" on="1"/>
        <pt x="50" y="68" on="1"/>
        <pt x="113" y="68" on="1"/>
        <pt x="113" y="432" on="1"/>
        <pt x="50" y="432" on="1"/>
        <pt x="50" y="500" on="1"/>
        <pt x="195" y="500" on="1"/>
      </contour>
    </TTGlyph>
    <TTGlyph name="e" xMin="50" yMin="0" xMax="415" yMax="501">
      <contour>
        <pt x="50" y="402" on="1"/>
        <pt x="50" y="501" on="0"/>
        <pt x="153" y="501" on="1"/>
        <pt x="322" y="501" on="1"/>
        <pt x="371" y="501" on="0"/>
        <pt x="415" y="463" on="0"/>
        <pt x="415" y="412" on="1"/>
        <pt x="415" y="319" on="1"/>
        <pt x="130" y="139" on="1"/>
        <pt x="130" y="68" on="1"/>
        <pt x="336" y="68" on="1"/>
        <pt x="336" y="126" on="1"/>
        <pt x="415" y="126" on="1"/>
        <pt x="415" y="73" on="1"/>
        <pt x="415" y="43" on="0"/>
        <pt x="378" y="0" on="0"/>
        <pt x="335" y="0" on="1"/>
        <pt x="130" y="0" on="1"/>
        <pt x="87" y="0" on="0"/>
        <pt x="50" y="43" on="0"/>
        <pt x="50" y="73" on="1"/>
      </contour>
      <contour>
        <pt x="130" y="220" on="1"/>
        <pt x="335" y="349" on="1"/>
        <pt x="335" y="432" on="1"/>
        <pt x="130" y="432" on="1"/>
      </contour>
    </TTGlyph>
    <TTGlyph name="eacute" xMin="50" yMin="0" xMax="415" yMax="682">
      <contour>
        <pt x="153" y="501" on="1"/>
        <pt x="50" y="501" on="0"/>
        <pt x="50" y="402" on="1"/>
        <pt x="50" y="73" on="1"/>
        <pt x="50" y="43" on="0"/>
        <pt x="87" y="0" on="0"/>
        <pt x="130" y="0" on="1"/>
        <pt x="335" y="0" on="1"/>
        <pt x="378" y="0" on="0"/>
        <pt x="415" y="43" on="0"/>
        <pt x="415" y="73" on="1"/>
        <pt x="415" y="126" on="1"/>
        <pt x="336" y="126" on="1"/>
        <pt x="336" y="68" on="1"/>
        <pt x="130" y="68" on="1"/>
        <pt x="130" y="139" on="1"/>
        <pt x="415" y="319" on="1"/>
        <pt x="415" y="412" on="1"/>
        <pt x="415" y="463" on="0"/>
        <pt x="371" y="501" on="0"/>
        <pt x="322" y="501" on="1"/>
      </contour>
      <contour>
        <pt x="130" y="432" on="1"/>
        <pt x="335" y="432" on="1"/>
        <pt x="335" y="349" on="1"/>
        <pt x="130" y="220" on="1"/>
      </contour>
      <contour>
        <pt x="250" y="682" on="1"/>
        <pt x="321" y="682" on="1"/>
        <pt x="216" y="559" on="1"/>
        <pt x="143" y="559" on="1"/>
      </contour>
    </TTGlyph>
    <TTGlyph name="ebreve" xMin="50" yMin="0" xMax="415" yMax="697">
      <contour>
        <pt x="50" y="402" on="1"/>
        <pt x="50" y="501" on="0"/>
        <pt x="153" y="501" on="1"/>
        <pt x="322" y="501" on="1"/>
        <pt x="371" y="501" on="0"/>
        <pt x="415" y="463" on="0"/>
        <pt x="415" y="412" on="1"/>
        <pt x="415" y="319" on="1"/>
        <pt x="130" y="139" on="1"/>
        <pt x="130" y="68" on="1"/>
        <pt x="336" y="68" on="1"/>
        <pt x="336" y="126" on="1"/>
        <pt x="415" y="126" on="1"/>
        <pt x="415" y="73" on="1"/>
        <pt x="415" y="43" on="0"/>
        <pt x="378" y="0" on="0"/>
        <pt x="335" y="0" on="1"/>
        <pt x="130" y="0" on="1"/>
        <pt x="87" y="0" on="0"/>
        <pt x="50" y="43" on="0"/>
        <pt x="50" y="73" on="1"/>
      </contour>
      <contour>
        <pt x="130" y="220" on="1"/>
        <pt x="335" y="349" on="1"/>
        <pt x="335" y="432" on="1"/>
        <pt x="130" y="432" on="1"/>
      </contour>
      <contour>
        <pt x="386" y="697" on="1"/>
        <pt x="386" y="632" on="0"/>
        <pt x="341" y="588" on="1"/>
        <pt x="295" y="544" on="0"/>
        <pt x="233" y="544" on="1"/>
        <pt x="169" y="544" on="0"/>
        <pt x="79" y="634" on="0"/>
        <pt x="79" y="697" on="1"/>
        <pt x="132" y="697" on="1"/>
        <pt x="132" y="657" on="0"/>
        <pt x="191" y="598" on="0"/>
        <pt x="233" y="598" on="1"/>
        <pt x="274" y="598" on="0"/>
        <pt x="333" y="657" on="0"/>
        <pt x="333" y="697" on="1"/>
      </contour>
    </TTGlyph>
    <TTGlyph name="ecaron" xMin="50" yMin="0" xMax="415" yMax="682">
      <contour>
        <pt x="50" y="402" on="1"/>
        <pt x="50" y="501" on="0"/>
        <pt x="153" y="501" on="1"/>
        <pt x="322" y="501" on="1"/>
        <pt x="371" y="501" on="0"/>
        <pt x="415" y="463" on="0"/>
        <pt x="415" y="412" on="1"/>
        <pt x="415" y="319" on="1"/>
        <pt x="130" y="139" on="1"/>
        <pt x="130" y="68" on="1"/>
        <pt x="336" y="68" on="1"/>
        <pt x="336" y="126" on="1"/>
        <pt x="415" y="126" on="1"/>
        <pt x="415" y="73" on="1"/>
        <pt x="415" y="43" on="0"/>
        <pt x="378" y="0" on="0"/>
        <pt x="335" y="0" on="1"/>
        <pt x="130" y="0" on="1"/>
        <pt x="87" y="0" on="0"/>
        <pt x="50" y="43" on="0"/>
        <pt x="50" y="73" on="1"/>
      </contour>
      <contour>
        <pt x="130" y="220" on="1"/>
        <pt x="335" y="349" on="1"/>
        <pt x="335" y="432" on="1"/>
        <pt x="130" y="432" on="1"/>
      </contour>
      <contour>
        <pt x="268" y="559" on="1"/>
        <pt x="201" y="559" on="1"/>
        <pt x="89" y="682" on="1"/>
        <pt x="163" y="682" on="1"/>
        <pt x="233" y="602" on="1"/>
        <pt x="302" y="682" on="1"/>
        <pt x="375" y="682" on="1"/>
      </contour>
    </TTGlyph>
</ttFont>
